SplineFontDB: 3.2
FontName: IRZar-Italic
FullName: IRZar-Italic
FamilyName: IRZar
Weight: Book
Copyright: Copyright (c) 2022, Information Technology Organization of Iran (ito.gov.ir)
Version: 1.000
ItalicAngle: 0
UnderlinePosition: -100
UnderlineWidth: 60
Ascent: 1638
Descent: 410
InvalidEm: 0
sfntRevision: 0x00010000
LayerCount: 2
Layer: 0 1 "Back" 1
Layer: 1 1 "Fore" 0
XUID: [1021 420 722297922 7961800]
StyleMap: 0x0001
FSType: 0
OS2Version: 3
OS2_WeightWidthSlopeOnly: 0
OS2_UseTypoMetrics: 0
CreationTime: 1356427160
ModificationTime: 1662631257
PfmFamily: 17
TTFWeight: 400
TTFWidth: 5
LineGap: 100
VLineGap: 0
Panose: 2 0 5 6 0 0 0 9 0 2
OS2TypoAscent: 2100
OS2TypoAOffset: 0
OS2TypoDescent: -1300
OS2TypoDOffset: 0
OS2TypoLinegap: 300
OS2WinAscent: 2100
OS2WinAOffset: 0
OS2WinDescent: 1300
OS2WinDOffset: 0
HheadAscent: 2100
HheadAOffset: 0
HheadDescent: -1300
HheadDOffset: 0
OS2SubXSize: 1434
OS2SubYSize: 1331
OS2SubXOff: 0
OS2SubYOff: 293
OS2SupXSize: 1434
OS2SupYSize: 1331
OS2SupXOff: 0
OS2SupYOff: 928
OS2StrikeYSize: 50
OS2StrikeYPos: 250
OS2CapHeight: 2108
OS2XHeight: 707
OS2FamilyClass: 2048
OS2Vendor: 'PARS'
OS2CodePages: 20000041.00000000
OS2UnicodeRanges: 00002003.00000000.00000000.00000000
Lookup: 1 1 0 "'init' Initial Forms in Arabic lookup 0" { "'init' Initial Forms in Arabic lookup 0 subtable"  } ['init' ('arab' <'dflt' > ) ]
Lookup: 1 1 0 "'isol' Isolated Forms in Arabic lookup 1" { "'isol' Isolated Forms in Arabic lookup 1 subtable"  } ['isol' ('arab' <'dflt' > ) ]
Lookup: 1 1 0 "'medi' Medial Forms in Arabic lookup 2" { "'medi' Medial Forms in Arabic lookup 2 subtable"  } ['medi' ('arab' <'dflt' > ) ]
Lookup: 1 1 0 "'fina' Terminal Forms in Arabic lookup 3" { "'fina' Terminal Forms in Arabic lookup 3 subtable"  } ['fina' ('arab' <'dflt' > ) ]
Lookup: 4 1 0 "'ccmp' Glyph Composition/Decomposition in Arabic lookup 4" { "'ccmp' Glyph Composition/Decomposition in Arabic lookup 4 subtable"  } ['ccmp' ('arab' <'dflt' > ) ]

StartChar: quotedbl
Encoding: 34 34 1
Width: 480
Flags: W
LayerCount: 2
Fore
SplineSet
-193 1275 m 1,0,-1
 -91 1275 l 1,1,-1
 -44 953 l 1,2,-1
 -112 953 l 1,3,-1
 -193 1275 l 1,0,-1
19 1275 m 1,4,-1
 120 1275 l 1,5,-1
 167 953 l 1,6,-1
 100 953 l 1,7,-1
 19 1275 l 1,4,-1
EndSplineSet
EndChar

StartChar: numbersign
Encoding: 35 35 2
Width: 1264
Flags: W
LayerCount: 2
Fore
SplineSet
1310 791 m 1,0,-1
 1062 791 l 1,1,-1
 916 472 l 1,2,-1
 1144 472 l 1,3,-1
 1119 357 l 1,4,-1
 862 357 l 1,5,-1
 697 0 l 1,6,-1
 588 0 l 1,7,-1
 753 357 l 1,8,-1
 524 357 l 1,9,-1
 359 0 l 1,10,-1
 250 0 l 1,11,-1
 414 357 l 1,12,-1
 196 357 l 1,13,-1
 220 472 l 1,14,-1
 469 472 l 1,15,-1
 615 791 l 1,16,-1
 387 791 l 1,17,-1
 411 905 l 1,18,-1
 669 905 l 1,19,-1
 834 1262 l 1,20,-1
 943 1262 l 1,21,-1
 778 905 l 1,22,-1
 1007 905 l 1,23,-1
 1172 1262 l 1,24,-1
 1282 1262 l 1,25,-1
 1116 905 l 1,26,-1
 1335 905 l 1,27,-1
 1310 791 l 1,0,-1
955 792 m 1,28,-1
 723 792 l 1,29,-1
 576 470 l 1,30,-1
 808 470 l 1,31,-1
 955 792 l 1,28,-1
EndSplineSet
EndChar

StartChar: dollar
Encoding: 36 36 3
Width: 948
Flags: W
LayerCount: 2
Fore
SplineSet
936 322 m 0,0,1
 909 197 909 197 795 108 c 128,-1,2
 681 19 681 19 532 1 c 1,3,-1
 466 -306 l 1,4,-1
 370 -306 l 1,5,-1
 435 -3 l 1,6,7
 343 -2 343 -2 254.5 18 c 128,-1,8
 166 38 166 38 105 72 c 1,9,-1
 141 244 l 1,10,-1
 154 244 l 1,11,12
 210 193 210 193 287.5 161.5 c 128,-1,13
 365 130 365 130 461 122 c 1,14,-1
 538 489 l 1,15,16
 519 494 519 494 490 501 c 128,-1,17
 461 508 461 508 442 515 c 0,18,19
 322 549 322 549 282 619.5 c 128,-1,20
 242 690 242 690 263 793 c 0,21,22
 289 914 289 914 402 1003 c 128,-1,23
 515 1092 515 1092 670 1106 c 1,24,-1
 720 1337 l 1,25,-1
 816 1337 l 1,26,-1
 767 1108 l 1,27,28
 844 1105 844 1105 922.5 1085.5 c 128,-1,29
 1001 1066 1001 1066 1049 1044 c 1,30,-1
 1013 876 l 1,31,-1
 1001 876 l 1,32,33
 950 917 950 917 885 947 c 128,-1,34
 820 977 820 977 741 985 c 1,35,-1
 664 620 l 1,36,37
 691 614 691 614 713.5 607.5 c 128,-1,38
 736 601 736 601 753 597 c 0,39,40
 863 570 863 570 911.5 503 c 128,-1,41
 960 436 960 436 936 322 c 0,0,1
569 633 m 1,42,-1
 644 984 l 1,43,44
 566 977 566 977 505.5 934 c 128,-1,45
 445 891 445 891 429 815 c 0,46,47
 413 740 413 740 442 698.5 c 128,-1,48
 471 657 471 657 569 633 c 1,42,-1
772 300 m 0,49,50
 789 379 789 379 756 417.5 c 128,-1,51
 723 456 723 456 633 476 c 1,52,-1
 558 124 l 1,53,54
 647 134 647 134 700.5 176 c 128,-1,55
 754 218 754 218 772 300 c 0,49,50
EndSplineSet
EndChar

StartChar: percent
Encoding: 37 37 4
Width: 1447
Flags: W
LayerCount: 2
Fore
SplineSet
1429 1177 m 1,0,-1
 331 -48 l 1,1,-1
 255 -48 l 1,2,-1
 1353 1177 l 1,3,-1
 1429 1177 l 1,0,-1
556 1177 m 0,4,5
 671 1177 671 1177 714 1081.5 c 128,-1,6
 757 986 757 986 731 863 c 0,7,8
 700 715 700 715 612 634.5 c 128,-1,9
 524 554 524 554 424 554 c 0,10,11
 356 554 356 554 308.5 591.5 c 128,-1,12
 261 629 261 629 243 701.5 c 128,-1,13
 225 774 225 774 244 863 c 0,14,15
 262 952 262 952 312.5 1027 c 128,-1,16
 363 1102 363 1102 429 1139.5 c 128,-1,17
 495 1177 495 1177 556 1177 c 0,4,5
545 1129 m 0,18,19
 501 1129 501 1129 456.5 1078 c 128,-1,20
 412 1027 412 1027 378 864 c 0,21,22
 353 746 353 746 358 685 c 0,23,24
 363 638 363 638 388 613 c 0,25,26
 403 597 403 597 428 597 c 0,27,28
 470 597 470 597 508 641 c 0,29,30
 564 706 564 706 597 859 c 0,31,32
 631 1020 631 1020 603 1085 c 0,33,34
 585 1129 585 1129 545 1129 c 0,18,19
1261 570 m 0,35,36
 1322 570 1322 570 1373.5 532 c 128,-1,37
 1425 494 1425 494 1442 421.5 c 128,-1,38
 1459 349 1459 349 1441 261 c 0,39,40
 1409 111 1409 111 1320 31.5 c 128,-1,41
 1231 -48 1231 -48 1132 -48 c 0,42,43
 1071 -48 1071 -48 1020.5 -9.5 c 128,-1,44
 970 29 970 29 952 100 c 128,-1,45
 934 171 934 171 953 261 c 0,46,47
 972 350 972 350 1021 424 c 128,-1,48
 1070 498 1070 498 1136 534 c 128,-1,49
 1202 570 1202 570 1261 570 c 0,35,36
1253 526 m 256,50,51
 1212 526 1212 526 1172 480 c 0,52,53
 1121 421 1121 421 1086 255 c 0,54,55
 1054 104 1054 104 1080 43 c 0,56,57
 1101 0 1101 0 1143 0 c 0,58,59
 1181 0 1181 0 1220 47 c 0,60,61
 1274 108 1274 108 1307 260 c 0,62,63
 1340 419 1340 419 1312 482 c 0,64,65
 1294 526 1294 526 1253 526 c 256,50,51
EndSplineSet
EndChar

StartChar: ampersand
Encoding: 38 38 5
Width: 1350
Flags: W
LayerCount: 2
Fore
SplineSet
1043 740 m 1,0,-1
 1399 740 l 1,1,-1
 1393 709 l 1,2,3
 1317 703 1317 703 1276.5 676.5 c 128,-1,4
 1236 650 1236 650 1132.5 514.5 c 128,-1,5
 1029 379 1029 379 911 263 c 1,6,7
 968 175 968 175 1019.5 139.5 c 128,-1,8
 1071 104 1071 104 1131 104 c 0,9,10
 1189 104 1189 104 1237 135.5 c 128,-1,11
 1285 167 1285 167 1315 230 c 1,12,-1
 1342 207 l 1,13,14
 1285 87 1285 87 1203 30 c 128,-1,15
 1121 -27 1121 -27 1029 -27 c 0,16,17
 959 -27 959 -27 895.5 11 c 128,-1,18
 832 49 832 49 766 139 c 1,19,20
 642 46 642 46 550 9.5 c 128,-1,21
 458 -27 458 -27 361 -27 c 0,22,23
 222 -27 222 -27 155.5 48 c 128,-1,24
 89 123 89 123 111 227 c 0,25,26
 132 329 132 329 227.5 431 c 128,-1,27
 323 533 323 533 550 642 c 1,28,29
 530 731 530 731 527.5 787.5 c 128,-1,30
 525 844 525 844 535 896 c 0,31,32
 566 1041 566 1041 690 1117 c 0,33,34
 785 1177 785 1177 891 1177 c 0,35,36
 992 1177 992 1177 1043 1117 c 128,-1,37
 1094 1057 1094 1057 1076 969 c 0,38,39
 1057 880 1057 880 981 812 c 128,-1,40
 905 744 905 744 732 664 c 1,41,42
 798 472 798 472 882 312 c 1,43,44
 1068 490 1068 490 1094 613 c 0,45,46
 1102 651 1102 651 1083 682 c 0,47,48
 1071 705 1071 705 1037 709 c 1,49,-1
 1043 740 l 1,0,-1
714 719 m 1,50,51
 831 768 831 768 896 832 c 128,-1,52
 961 896 961 896 978 973 c 0,53,54
 991 1035 991 1035 962 1074.5 c 128,-1,55
 933 1114 933 1114 877 1114 c 0,56,57
 802 1114 802 1114 753.5 1062.5 c 128,-1,58
 705 1011 705 1011 695 962 c 0,59,60
 686 921 686 921 689.5 869.5 c 128,-1,61
 693 818 693 818 714 719 c 1,50,51
732 189 m 1,62,63
 654 341 654 341 625.5 411 c 128,-1,64
 597 481 597 481 567 586 c 1,65,66
 453 528 453 528 387 457.5 c 128,-1,67
 321 387 321 387 304 304 c 0,68,69
 284 214 284 214 328 145 c 128,-1,70
 372 76 372 76 472 76 c 0,71,72
 525 76 525 76 579 97.5 c 128,-1,73
 633 119 633 119 732 189 c 1,62,63
EndSplineSet
EndChar

StartChar: quotesingle
Encoding: 39 39 6
Width: 384
Flags: W
LayerCount: 2
Fore
SplineSet
-128 1274 m 1,0,-1
 -27 1274 l 1,1,-1
 18 952 l 1,2,-1
 -48 952 l 1,3,-1
 -128 1274 l 1,0,-1
EndSplineSet
EndChar

StartChar: asterisk
Encoding: 42 42 7
Width: 774
Flags: W
LayerCount: 2
Fore
SplineSet
278 713 m 1,0,-1
 309 569 l 2,1,2
 312 555 312 555 306 545 c 128,-1,3
 300 535 300 535 285 535 c 2,4,-1
 234 535 l 2,5,6
 226 535 226 535 213.5 545 c 128,-1,7
 201 555 201 555 198 569 c 2,8,-1
 167 713 l 1,9,-1
 90 612 l 1,10,11
 66 594 66 594 33 612 c 1,12,-1
 -4 645 l 2,13,14
 -26 668 -26 668 -8 694 c 2,15,-1
 70 797 l 1,16,-1
 -73 797 l 2,17,18
 -87 797 -87 797 -101.5 806 c 128,-1,19
 -116 815 -116 815 -119 831 c 2,20,-1
 -130 881 l 2,21,22
 -132 891 -132 891 -121.5 900 c 128,-1,23
 -111 909 -111 909 -97 909 c 2,24,-1
 37 909 l 1,25,-1
 -81 1010 l 2,26,27
 -98 1022 -98 1022 -102 1036.5 c 128,-1,28
 -106 1051 -106 1051 -99 1065 c 1,29,-1
 -68 1096 l 2,30,31
 -61 1106 -61 1106 -48 1105 c 128,-1,32
 -35 1104 -35 1104 -20 1090 c 2,33,-1
 109 985 l 1,34,-1
 76 1141 l 2,35,36
 73 1153 73 1153 81.5 1164.5 c 128,-1,37
 90 1176 90 1176 98 1176 c 2,38,-1
 149 1176 l 2,39,40
 164 1176 164 1176 174 1164.5 c 128,-1,41
 184 1153 184 1153 187 1141 c 2,42,-1
 219 991 l 1,43,-1
 304 1096 l 2,44,45
 313 1110 313 1110 324.5 1111 c 128,-1,46
 336 1112 336 1112 357 1104 c 1,47,-1
 391 1065 l 1,48,49
 404 1057 404 1057 406.5 1044.5 c 128,-1,50
 409 1032 409 1032 400 1016 c 2,51,-1
 318 909 l 1,52,-1
 474 909 l 2,53,54
 484 909 484 909 498 900 c 128,-1,55
 512 891 512 891 514 881 c 2,56,-1
 525 831 l 2,57,58
 528 815 528 815 518 806 c 128,-1,59
 508 797 508 797 498 797 c 2,60,-1
 334 797 l 1,61,-1
 468 694 l 1,62,63
 493 668 493 668 480 637 c 1,64,-1
 457 606 l 1,65,66
 438 588 438 588 406 612 c 2,67,-1
 278 713 l 1,0,-1
EndSplineSet
EndChar

StartChar: plus
Encoding: 43 43 8
Width: 864
Flags: W
LayerCount: 2
Fore
SplineSet
266 420 m 1,0,-1
 6 420 l 1,1,-1
 -21 553 l 1,2,-1
 238 553 l 1,3,-1
 182 817 l 1,4,-1
 315 817 l 1,5,-1
 371 553 l 1,6,-1
 644 553 l 1,7,-1
 672 420 l 1,8,-1
 399 420 l 1,9,-1
 455 157 l 1,10,-1
 322 157 l 1,11,-1
 266 420 l 1,0,-1
EndSplineSet
EndChar

StartChar: hyphen
Encoding: 45 45 9
Width: 928
Flags: W
LayerCount: 2
Fore
SplineSet
711 384 m 1,0,-1
 55 384 l 1,1,-1
 25 526 l 1,2,-1
 681 526 l 1,3,-1
 711 384 l 1,0,-1
EndSplineSet
EndChar

StartChar: period
Encoding: 46 46 10
Width: 589
Flags: W
LayerCount: 2
Fore
SplineSet
371 87 m 0,0,1
 380 46 380 46 356.5 17 c 128,-1,2
 333 -12 333 -12 292 -12 c 256,3,4
 251 -12 251 -12 216 17.5 c 128,-1,5
 181 47 181 47 172 88 c 256,6,7
 163 129 163 129 186 158 c 128,-1,8
 209 187 209 187 250 187 c 0,9,10
 292 187 292 187 327 158 c 128,-1,11
 362 129 362 129 371 87 c 0,0,1
EndSplineSet
EndChar

StartChar: slash
Encoding: 47 47 11
Width: 868
Flags: W
LayerCount: 2
Fore
SplineSet
428 1188 m 1,0,-1
 276 -171 l 1,1,-1
 162 -171 l 1,2,-1
 314 1188 l 1,3,-1
 428 1188 l 1,0,-1
EndSplineSet
EndChar

StartChar: zero
Encoding: 48 48 12
Width: 868
Flags: W
LayerCount: 2
Fore
SplineSet
182 568 m 0,0,1
 225 765 225 765 314.5 907 c 128,-1,2
 404 1049 404 1049 517 1118 c 0,3,4
 605 1173 605 1173 687 1173 c 0,5,6
 819 1173 819 1173 896 1039 c 0,7,8
 991 871 991 871 931 586 c 0,9,10
 888 386 888 386 800.5 246 c 128,-1,11
 713 106 713 106 610 43 c 128,-1,12
 507 -20 507 -20 424 -20 c 0,13,14
 260 -20 260 -20 191 174 c 0,15,16
 134 337 134 337 182 568 c 0,0,1
344 547 m 0,17,18
 295 310 295 310 320 159 c 0,19,20
 342 33 342 33 438 33 c 0,21,22
 483 33 483 33 541.5 74.5 c 128,-1,23
 600 116 600 116 646 212 c 0,24,25
 715 358 715 358 772 623 c 0,26,27
 814 820 814 820 801 952 c 0,28,29
 792 1049 792 1049 752 1090 c 0,30,31
 723 1117 723 1117 674 1117 c 0,32,33
 617 1117 617 1117 560 1066 c 0,34,35
 484 995 484 995 430 844 c 128,-1,36
 376 693 376 693 344 547 c 0,17,18
EndSplineSet
EndChar

StartChar: one
Encoding: 49 49 13
Width: 868
Flags: W
LayerCount: 2
Fore
SplineSet
423 1037 m 1,0,-1
 732 1173 l 1,1,-1
 760 1173 l 1,2,-1
 553 202 l 2,3,4
 533 106 533 106 536.5 82 c 128,-1,5
 540 58 540 58 562.5 45.5 c 128,-1,6
 585 33 585 33 662 32 c 1,7,-1
 656 0 l 1,8,-1
 224 0 l 1,9,-1
 230 32 l 1,10,11
 312 33 312 33 338.5 45 c 128,-1,12
 365 57 365 57 378 78.5 c 128,-1,13
 391 100 391 100 413 202 c 2,14,-1
 546 824 l 2,15,16
 572 949 572 949 571 985 c 0,17,18
 571 1011 571 1011 558 1024 c 128,-1,19
 545 1037 545 1037 523 1037 c 0,20,21
 492 1037 492 1037 430 1011 c 1,22,-1
 423 1037 l 1,0,-1
EndSplineSet
EndChar

StartChar: two
Encoding: 50 50 14
Width: 868
Flags: W
LayerCount: 2
Fore
SplineSet
843 222 m 1,0,-1
 715 0 l 1,1,-1
 37 0 l 1,2,-1
 43 32 l 1,3,4
 402 304 402 304 560.5 477.5 c 128,-1,5
 719 651 719 651 749 794 c 0,6,7
 773 903 773 903 721 973.5 c 128,-1,8
 669 1044 669 1044 576 1044 c 0,9,10
 491 1044 491 1044 412.5 994 c 128,-1,11
 334 944 334 944 282 849 c 1,12,-1
 250 849 l 1,13,14
 304 1006 304 1006 410 1089.5 c 128,-1,15
 516 1173 516 1173 648 1173 c 0,16,17
 788 1173 788 1173 862.5 1083.5 c 128,-1,18
 937 994 937 994 911 871 c 0,19,20
 893 784 893 784 832 697 c 0,21,22
 741 560 741 560 567 406 c 0,23,24
 307 176 307 176 245 128 c 1,25,-1
 545 128 l 2,26,27
 636 128 636 128 674.5 135 c 128,-1,28
 713 142 713 142 747 162.5 c 128,-1,29
 781 183 781 183 812 222 c 1,30,-1
 843 222 l 1,0,-1
EndSplineSet
EndChar

StartChar: three
Encoding: 51 51 15
Width: 868
Flags: W
LayerCount: 2
Fore
SplineSet
285 931 m 1,0,1
 360 1047 360 1047 448 1110 c 128,-1,2
 536 1173 536 1173 649 1173 c 0,3,4
 787 1173 787 1173 842 1083 c 0,5,6
 883 1017 883 1017 867 940 c 0,7,8
 841 815 841 815 654 681 c 1,9,10
 752 639 752 639 789.5 562 c 128,-1,11
 827 485 827 485 805 381 c 0,12,13
 773 231 773 231 655 122 c 0,14,15
 500 -20 500 -20 265 -20 c 0,16,17
 149 -20 149 -20 113 8.5 c 128,-1,18
 77 37 77 37 85 70 c 0,19,20
 90 95 90 95 114 113.5 c 128,-1,21
 138 132 138 132 165 132 c 0,22,23
 187 132 187 132 208 125 c 0,24,25
 222 121 222 121 267 94.5 c 128,-1,26
 312 68 312 68 330 63 c 0,27,28
 359 53 359 53 394 53 c 0,29,30
 481 53 481 53 559.5 120.5 c 128,-1,31
 638 188 638 188 657 279 c 0,32,33
 672 346 672 346 656 409 c 0,34,35
 643 457 643 457 622 481 c 0,36,37
 594 515 594 515 536 542.5 c 128,-1,38
 478 570 478 570 411 570 c 2,39,-1
 385 570 l 1,40,-1
 390 596 l 1,41,42
 459 604 459 604 535 644.5 c 128,-1,43
 611 685 611 685 653 740.5 c 128,-1,44
 695 796 695 796 710 863 c 0,45,46
 728 951 728 951 685 1004.5 c 128,-1,47
 642 1058 642 1058 561 1058 c 0,48,49
 429 1058 429 1058 312 918 c 1,50,-1
 285 931 l 1,0,1
EndSplineSet
EndChar

StartChar: four
Encoding: 52 52 16
Width: 868
Flags: W
LayerCount: 2
Fore
SplineSet
898 424 m 1,0,-1
 871 303 l 1,1,-1
 718 303 l 1,2,-1
 654 0 l 1,3,-1
 514 0 l 1,4,-1
 578 303 l 1,5,-1
 91 303 l 1,6,-1
 114 412 l 1,7,-1
 810 1173 l 1,8,-1
 903 1173 l 1,9,-1
 744 424 l 1,10,-1
 898 424 l 1,0,-1
604 424 m 1,11,-1
 725 994 l 1,12,-1
 200 424 l 1,13,-1
 604 424 l 1,11,-1
EndSplineSet
EndChar

StartChar: five
Encoding: 53 53 17
Width: 868
Flags: W
LayerCount: 2
Fore
SplineSet
997 1150 m 1,0,-1
 901 1006 l 1,1,-1
 554 1006 l 1,2,-1
 446 851 l 1,3,4
 665 818 665 818 767 685 c 0,5,6
 856 569 856 569 823 413 c 0,7,8
 803 322 803 322 749.5 244.5 c 128,-1,9
 696 167 696 167 628.5 113 c 128,-1,10
 561 59 561 59 487 26 c 0,11,12
 378 -20 378 -20 276 -20 c 0,13,14
 172 -20 172 -20 132 15 c 128,-1,15
 92 50 92 50 102 92 c 0,16,17
 107 117 107 117 130.5 135 c 128,-1,18
 154 153 154 153 183 153 c 0,19,20
 206 153 206 153 220.5 146 c 128,-1,21
 235 139 235 139 270 111 c 0,22,23
 324 67 324 67 389 67 c 0,24,25
 489 67 489 67 580 142 c 128,-1,26
 671 217 671 217 694 324 c 0,27,28
 717 429 717 429 668.5 519 c 128,-1,29
 620 609 620 609 513 659 c 0,30,31
 428 697 428 697 269 703 c 1,32,-1
 585 1150 l 1,33,-1
 997 1150 l 1,0,-1
EndSplineSet
EndChar

StartChar: six
Encoding: 54 54 18
Width: 868
Flags: W
LayerCount: 2
Fore
SplineSet
1027 1173 m 1,0,-1
 1021 1143 l 1,1,2
 906 1131 906 1131 828 1097.5 c 128,-1,3
 750 1064 750 1064 666.5 995 c 128,-1,4
 583 926 583 926 519.5 842 c 128,-1,5
 456 758 456 758 401 642 c 1,6,7
 542 726 542 726 665 726 c 0,8,9
 782 726 782 726 848.5 631 c 128,-1,10
 915 536 915 536 883 387 c 0,11,12
 852 243 852 243 740 124 c 0,13,14
 603 -20 603 -20 430 -20 c 0,15,16
 313 -20 313 -20 247 57 c 0,17,18
 119 210 119 210 170 452 c 0,19,20
 202 605 202 605 294 744.5 c 128,-1,21
 386 884 386 884 523.5 991.5 c 128,-1,22
 661 1099 661 1099 774 1136 c 128,-1,23
 887 1173 887 1173 978 1173 c 2,24,-1
 1027 1173 l 1,0,-1
374 580 m 1,25,26
 334 465 334 465 319 395 c 0,27,28
 301 314 301 314 311 218.5 c 128,-1,29
 321 123 321 123 369 67 c 0,30,31
 404 28 404 28 465 28 c 0,32,33
 540 28 540 28 613 97 c 128,-1,34
 686 166 686 166 713 295 c 0,35,36
 744 440 744 440 708.5 546 c 128,-1,37
 673 652 673 652 567 652 c 0,38,39
 534 652 534 652 495 638.5 c 128,-1,40
 456 625 456 625 374 580 c 1,25,26
EndSplineSet
EndChar

StartChar: seven
Encoding: 55 55 19
Width: 868
Flags: W
LayerCount: 2
Fore
SplineSet
419 1150 m 1,0,-1
 1035 1150 l 1,1,-1
 1028 1117 l 1,2,-1
 403 -23 l 1,3,-1
 307 -23 l 1,4,-1
 870 1011 l 1,5,-1
 554 1011 l 2,6,7
 458 1011 458 1011 413 989 c 0,8,9
 334 950 334 950 273 868 c 1,10,-1
 250 878 l 1,11,-1
 419 1150 l 1,0,-1
EndSplineSet
EndChar

StartChar: eight
Encoding: 56 56 20
Width: 868
Flags: W
LayerCount: 2
Fore
SplineSet
456 579 m 1,0,1
 343 691 343 691 318 759 c 128,-1,2
 293 827 293 827 308 900 c 0,3,4
 332 1011 332 1011 436 1092 c 128,-1,5
 540 1173 540 1173 684 1173 c 0,6,7
 823 1173 823 1173 891.5 1098 c 128,-1,8
 960 1023 960 1023 939 926 c 0,9,10
 925 862 925 862 865 794.5 c 128,-1,11
 805 727 805 727 641 637 c 1,12,13
 765 522 765 522 800 456 c 0,14,15
 846 369 846 369 826 273 c 0,16,17
 800 152 800 152 689 66 c 128,-1,18
 578 -20 578 -20 428 -20 c 0,19,20
 264 -20 264 -20 195 83 c 0,21,22
 139 164 139 164 160 262 c 0,23,24
 176 338 176 338 243.5 413.5 c 128,-1,25
 311 489 311 489 456 579 c 1,0,1
608 670 m 1,26,27
 729 761 729 761 767.5 814 c 128,-1,28
 806 867 806 867 820 935 c 0,29,30
 840 1024 840 1024 800.5 1074.5 c 128,-1,31
 761 1125 761 1125 674 1125 c 0,32,33
 588 1125 588 1125 523 1074.5 c 128,-1,34
 458 1024 458 1024 443 957 c 0,35,36
 435 914 435 914 448 869.5 c 128,-1,37
 461 825 461 825 494 785 c 1,38,-1
 608 670 l 1,26,27
489 547 m 1,39,40
 406 488 406 488 357 418 c 128,-1,41
 308 348 308 348 291 266 c 0,42,43
 268 157 268 157 313.5 91 c 128,-1,44
 359 25 359 25 453 25 c 0,45,46
 544 25 544 25 609.5 77 c 128,-1,47
 675 129 675 129 691 202 c 0,48,49
 704 264 704 264 683 312 c 0,50,51
 641 402 641 402 489 547 c 1,39,40
EndSplineSet
EndChar

StartChar: nine
Encoding: 57 57 21
Width: 868
Flags: W
LayerCount: 2
Fore
SplineSet
86 -23 m 1,0,-1
 92 7 l 1,1,2
 202 10 202 10 308 59 c 128,-1,3
 414 108 414 108 529 232 c 128,-1,4
 644 356 644 356 711 505 c 1,5,6
 559 419 559 419 450 419 c 0,7,8
 330 419 330 419 263.5 512.5 c 128,-1,9
 197 606 197 606 230 761 c 0,10,11
 263 913 263 913 373 1030 c 0,12,13
 509 1173 509 1173 676 1173 c 0,14,15
 818 1173 818 1173 894 1057 c 0,16,17
 987 912 987 912 942 699 c 0,18,19
 901 507 901 507 771.5 341.5 c 128,-1,20
 642 176 642 176 452 66 c 0,21,22
 296 -23 296 -23 135 -23 c 2,23,-1
 86 -23 l 1,0,-1
737 567 m 1,24,25
 776 677 776 677 791 744 c 0,26,27
 808 826 808 826 800 921.5 c 128,-1,28
 792 1017 792 1017 751.5 1067.5 c 128,-1,29
 711 1118 711 1118 647 1118 c 0,30,31
 570 1118 570 1118 499 1050.5 c 128,-1,32
 428 983 428 983 400 849 c 0,33,34
 361 670 361 670 416 569 c 0,35,36
 455 496 455 496 535 496 c 0,37,38
 575 496 575 496 632 514.5 c 128,-1,39
 689 533 689 533 737 567 c 1,24,25
EndSplineSet
EndChar

StartChar: less
Encoding: 60 60 22
Width: 1117
Flags: W
LayerCount: 2
Fore
SplineSet
942 58 m 1,0,-1
 55 444 l 1,1,-1
 36 534 l 1,2,-1
 759 918 l 1,3,-1
 788 784 l 1,4,-1
 227 489 l 1,5,-1
 914 192 l 1,6,-1
 942 58 l 1,0,-1
EndSplineSet
EndChar

StartChar: equal
Encoding: 61 61 23
Width: 1117
Flags: W
LayerCount: 2
Fore
SplineSet
802 566 m 1,0,-1
 23 566 l 1,1,-1
 -1 686 l 1,2,-1
 777 686 l 1,3,-1
 802 566 l 1,0,-1
865 271 m 1,4,-1
 86 271 l 1,5,-1
 60 391 l 1,6,-1
 839 391 l 1,7,-1
 865 271 l 1,4,-1
EndSplineSet
EndChar

StartChar: greater
Encoding: 62 62 24
Width: 1117
Flags: W
LayerCount: 2
Fore
SplineSet
871 444 m 1,0,-1
 147 58 l 1,1,-1
 119 192 l 1,2,-1
 682 489 l 1,3,-1
 -6 784 l 1,4,-1
 -35 918 l 1,5,-1
 852 534 l 1,6,-1
 871 444 l 1,0,-1
EndSplineSet
EndChar

StartChar: question
Encoding: 63 63 25
Width: 771
Flags: W
LayerCount: 2
Fore
SplineSet
442 271 m 1,0,-1
 407 271 l 1,1,2
 436 378 436 378 471.5 448 c 128,-1,3
 507 518 507 518 599 642 c 0,4,5
 671 739 671 739 697 790.5 c 128,-1,6
 723 842 723 842 735 894 c 0,7,8
 757 1002 757 1002 713.5 1065.5 c 128,-1,9
 670 1129 670 1129 586 1129 c 0,10,11
 513 1129 513 1129 463 1094 c 128,-1,12
 413 1059 413 1059 405 1019 c 0,13,14
 397 987 397 987 413 941.5 c 128,-1,15
 429 896 429 896 424 871 c 0,16,17
 418 842 418 842 394 820.5 c 128,-1,18
 370 799 370 799 341 799 c 0,19,20
 306 799 306 799 284.5 834.5 c 128,-1,21
 263 870 263 870 277 933 c 0,22,23
 297 1028 297 1028 394.5 1102.5 c 128,-1,24
 492 1177 492 1177 633 1177 c 0,25,26
 807 1177 807 1177 868 1075 c 0,27,28
 914 1000 914 1000 895 909 c 0,29,30
 881 847 881 847 839.5 782 c 128,-1,31
 798 717 798 717 703 629 c 0,32,33
 550 490 550 490 510 431.5 c 128,-1,34
 470 373 470 373 442 271 c 1,0,-1
408 166 m 0,35,36
 448 166 448 166 470 138.5 c 128,-1,37
 492 111 492 111 483 71 c 0,38,39
 475 32 475 32 441 4.5 c 128,-1,40
 407 -23 407 -23 368 -23 c 256,41,42
 329 -23 329 -23 307 4.5 c 128,-1,43
 285 32 285 32 294 71 c 0,44,45
 302 111 302 111 335.5 138.5 c 128,-1,46
 369 166 369 166 408 166 c 0,35,36
EndSplineSet
EndChar

StartChar: at
Encoding: 64 64 26
Width: 1600
Flags: W
LayerCount: 2
Fore
SplineSet
1365 812 m 1,0,-1
 1196 474 l 2,1,2
 1099 284 1099 284 1076.5 233 c 128,-1,3
 1054 182 1054 182 1047 152 c 0,4,5
 1042 125 1042 125 1056.5 106 c 128,-1,6
 1071 87 1071 87 1097 87 c 0,7,8
 1160 87 1160 87 1260 149 c 128,-1,9
 1360 211 1360 211 1451.5 350.5 c 128,-1,10
 1543 490 1543 490 1575 640 c 0,11,12
 1606 785 1606 785 1562 908 c 128,-1,13
 1518 1031 1518 1031 1404.5 1097 c 128,-1,14
 1291 1163 1291 1163 1136 1163 c 0,15,16
 940 1163 940 1163 750.5 1059 c 128,-1,17
 561 955 561 955 421.5 760 c 128,-1,18
 282 565 282 565 236 354 c 0,19,20
 195 159 195 159 247.5 0 c 128,-1,21
 300 -159 300 -159 439 -241 c 128,-1,22
 578 -323 578 -323 757 -323 c 0,23,24
 980 -323 980 -323 1186 -203.5 c 128,-1,25
 1392 -84 1392 -84 1538 146 c 1,26,-1
 1588 146 l 1,27,28
 1462 -87 1462 -87 1230.5 -231 c 128,-1,29
 999 -375 999 -375 741 -375 c 0,30,31
 540 -375 540 -375 387 -279.5 c 128,-1,32
 234 -184 234 -184 176 -9 c 128,-1,33
 118 166 118 166 162 376 c 0,34,35
 210 600 210 600 356 794 c 128,-1,36
 502 988 502 988 714.5 1097 c 128,-1,37
 927 1206 927 1206 1139 1206 c 0,38,39
 1315 1206 1315 1206 1441 1133.5 c 128,-1,40
 1567 1061 1567 1061 1611.5 921.5 c 128,-1,41
 1656 782 1656 782 1623 625 c 0,42,43
 1590 470 1590 470 1488 317.5 c 128,-1,44
 1386 165 1386 165 1265 95.5 c 128,-1,45
 1144 26 1144 26 1027 26 c 0,46,47
 962 26 962 26 936.5 56.5 c 128,-1,48
 911 87 911 87 922 142 c 0,49,50
 933 190 933 190 964 267 c 1,51,52
 807 116 807 116 721.5 70.5 c 128,-1,53
 636 25 636 25 579 25 c 0,54,55
 518 25 518 25 482.5 79.5 c 128,-1,56
 447 134 447 134 466 223 c 0,57,58
 493 346 493 346 605.5 498.5 c 128,-1,59
 718 651 718 651 870 747 c 0,60,61
 983 817 983 817 1060 817 c 0,62,63
 1116 817 1116 817 1148.5 788 c 128,-1,64
 1181 759 1181 759 1181 701 c 1,65,-1
 1230 794 l 1,66,-1
 1365 812 l 1,0,-1
1062 778 m 0,67,68
 999 778 999 778 918 710 c 0,69,70
 801 613 801 613 699 445 c 0,71,72
 621 323 621 323 605 248 c 0,73,74
 595 195 595 195 617.5 161.5 c 128,-1,75
 640 128 640 128 677 128 c 0,76,77
 727 128 727 128 789 165 c 128,-1,78
 851 202 851 202 927 280 c 128,-1,79
 1003 358 1003 358 1047 436 c 0,80,81
 1124 570 1124 570 1142 655 c 0,82,83
 1153 711 1153 711 1129.5 744.5 c 128,-1,84
 1106 778 1106 778 1062 778 c 0,67,68
EndSplineSet
EndChar

StartChar: A
Encoding: 65 65 27
Width: 1254
Flags: W
LayerCount: 2
Fore
SplineSet
877 385 m 1,0,-1
 431 385 l 1,1,-1
 314 204 l 2,2,3
 271 137 271 137 264 104 c 0,4,5
 259 77 259 77 279.5 57 c 128,-1,6
 300 37 300 37 382 32 c 1,7,-1
 375 0 l 1,8,-1
 14 0 l 1,9,-1
 20 32 l 1,10,11
 94 45 94 45 120 65 c 0,12,13
 173 105 173 105 251 230 c 2,14,-1
 856 1177 l 1,15,-1
 886 1177 l 1,16,-1
 1082 219 l 2,17,18
 1107 104 1107 104 1139 70 c 128,-1,19
 1171 36 1171 36 1241 32 c 1,20,-1
 1235 0 l 1,21,-1
 781 0 l 1,22,-1
 788 32 l 1,23,24
 858 35 858 35 885.5 54.5 c 128,-1,25
 913 74 913 74 919 102 c 0,26,27
 926 139 926 139 909 219 c 2,28,-1
 877 385 l 1,0,-1
865 447 m 1,29,-1
 770 913 l 1,30,-1
 470 447 l 1,31,-1
 865 447 l 1,29,-1
EndSplineSet
EndChar

StartChar: B
Encoding: 66 66 28
Width: 1159
Flags: W
LayerCount: 2
Fore
SplineSet
926 587 m 1,0,1
 1041 562 1041 562 1089 506 c 0,2,3
 1153 427 1153 427 1130 315 c 0,4,5
 1111 229 1111 229 1040.5 150.5 c 128,-1,6
 970 72 970 72 867.5 36 c 128,-1,7
 765 0 765 0 571 0 c 2,8,-1
 29 0 l 1,9,-1
 35 32 l 1,10,-1
 78 32 l 2,11,12
 151 32 151 32 192 77 c 0,13,14
 217 107 217 107 237 204 c 2,15,-1
 395 947 l 2,16,17
 419 1054 419 1054 400 1081 c 0,18,19
 375 1118 375 1118 310 1118 c 2,20,-1
 266 1118 l 1,21,-1
 272 1150 l 1,22,-1
 770 1150 l 2,23,24
 908 1150 908 1150 988 1130 c 0,25,26
 1109 1099 1109 1099 1160 1021 c 128,-1,27
 1211 943 1211 943 1188 843 c 0,28,29
 1170 757 1170 757 1103.5 688.5 c 128,-1,30
 1037 620 1037 620 926 587 c 1,0,1
492 633 m 1,31,32
 522 626 522 626 561.5 623.5 c 128,-1,33
 601 621 601 621 650 621 c 0,34,35
 774 621 774 621 841.5 647.5 c 128,-1,36
 909 674 909 674 954.5 729 c 128,-1,37
 1000 784 1000 784 1013 850 c 0,38,39
 1035 951 1035 951 967.5 1022 c 128,-1,40
 900 1093 900 1093 743 1093 c 0,41,42
 658 1093 658 1093 586 1075 c 1,43,-1
 492 633 l 1,31,32
375 83 m 1,44,45
 469 60 469 60 565 60 c 0,46,47
 719 60 719 60 813.5 129 c 128,-1,48
 908 198 908 198 931 300 c 0,49,50
 944 367 944 367 921 429 c 128,-1,51
 898 491 898 491 823 526.5 c 128,-1,52
 748 562 748 562 626 562 c 0,53,54
 575 562 575 562 537 560.5 c 128,-1,55
 499 559 499 559 476 554 c 1,56,-1
 375 83 l 1,44,45
EndSplineSet
EndChar

StartChar: C
Encoding: 67 67 29
Width: 1159
Flags: W
LayerCount: 2
Fore
SplineSet
1294 1177 m 1,0,-1
 1238 785 l 1,1,-1
 1212 785 l 1,2,3
 1197 960 1197 960 1116 1037.5 c 128,-1,4
 1035 1115 1035 1115 898 1115 c 0,5,6
 783 1115 783 1115 679 1057 c 128,-1,7
 575 999 575 999 494.5 871.5 c 128,-1,8
 414 744 414 744 374 555 c 0,9,10
 341 400 341 400 366.5 285.5 c 128,-1,11
 392 171 392 171 479.5 110 c 128,-1,12
 567 49 567 49 695 49 c 0,13,14
 808 49 808 49 903.5 96.5 c 128,-1,15
 999 144 999 144 1132 286 c 1,16,-1
 1154 269 l 1,17,18
 1036 117 1036 117 905.5 45 c 128,-1,19
 775 -27 775 -27 616 -27 c 0,20,21
 331 -27 331 -27 219 185 c 0,22,23
 135 343 135 343 180 558 c 0,24,25
 217 729 217 729 325.5 873.5 c 128,-1,26
 434 1018 434 1018 585.5 1097.5 c 128,-1,27
 737 1177 737 1177 897 1177 c 0,28,29
 1022 1177 1022 1177 1130 1115 c 0,30,31
 1162 1096 1162 1096 1177 1096 c 0,32,33
 1200 1096 1200 1096 1221 1113 c 0,34,35
 1248 1135 1248 1135 1265 1177 c 1,36,-1
 1294 1177 l 1,0,-1
EndSplineSet
EndChar

StartChar: D
Encoding: 68 68 30
Width: 1254
Flags: W
LayerCount: 2
Fore
SplineSet
30 0 m 1,0,-1
 36 32 l 1,1,-1
 79 32 l 2,2,3
 153 32 153 32 192 78 c 0,4,5
 217 106 217 106 237 204 c 2,6,-1
 395 947 l 2,7,8
 419 1054 419 1054 401 1081 c 0,9,10
 375 1118 375 1118 311 1118 c 2,11,-1
 267 1118 l 1,12,-1
 273 1150 l 1,13,-1
 742 1150 l 2,14,15
 1000 1150 1000 1150 1121.5 1091 c 128,-1,16
 1243 1032 1243 1032 1296 896 c 128,-1,17
 1349 760 1349 760 1311 581 c 0,18,19
 1260 341 1260 341 1080 180 c 0,20,21
 879 0 879 0 544 0 c 2,22,-1
 30 0 l 1,0,-1
375 83 m 1,23,24
 477 59 477 59 550 59 c 0,25,26
 747 59 747 59 906 197.5 c 128,-1,27
 1065 336 1065 336 1115 572 c 0,28,29
 1166 811 1166 811 1066 948 c 128,-1,30
 966 1085 966 1085 762 1085 c 0,31,32
 686 1085 686 1085 583 1061 c 1,33,-1
 375 83 l 1,23,24
EndSplineSet
EndChar

StartChar: E
Encoding: 69 69 31
Width: 1061
Flags: W
LayerCount: 2
Fore
SplineSet
594 1088 m 1,0,-1
 496 633 l 1,1,-1
 749 633 l 2,2,3
 848 633 848 633 887 662 c 0,4,5
 939 702 939 702 966 799 c 1,6,-1
 997 799 l 1,7,-1
 913 400 l 1,8,-1
 881 400 l 1,9,10
 886 483 886 483 880 507 c 0,11,12
 870 536 870 536 839.5 553 c 128,-1,13
 809 570 809 570 737 570 c 2,14,-1
 483 570 l 1,15,-1
 403 192 l 2,16,17
 387 116 387 116 390 99.5 c 128,-1,18
 393 83 393 83 408 73 c 128,-1,19
 423 63 423 63 471 63 c 2,20,-1
 666 63 l 2,21,22
 763 63 763 63 810.5 76.5 c 128,-1,23
 858 90 858 90 906 129 c 0,24,25
 970 182 970 182 1047 288 c 1,26,-1
 1081 288 l 1,27,-1
 922 0 l 1,28,-1
 36 0 l 1,29,-1
 42 32 l 1,30,-1
 83 32 l 2,31,32
 123 32 123 32 164 51 c 0,33,34
 193 65 193 65 209 92 c 128,-1,35
 225 119 225 119 243 202 c 2,36,-1
 402 950 l 2,37,38
 425 1059 425 1059 408 1084 c 0,39,40
 385 1118 385 1118 314 1118 c 2,41,-1
 273 1118 l 1,42,-1
 280 1150 l 1,43,-1
 1166 1150 l 1,44,-1
 1126 898 l 1,45,-1
 1092 898 l 1,46,47
 1094 989 1094 989 1079 1023 c 128,-1,48
 1064 1057 1064 1057 1026 1075 c 0,49,50
 995 1088 995 1088 909 1088 c 2,51,-1
 594 1088 l 1,0,-1
EndSplineSet
EndChar

StartChar: F
Encoding: 70 70 32
Width: 966
Flags: W
LayerCount: 2
Fore
SplineSet
586 1088 m 1,0,-1
 490 635 l 1,1,-1
 700 635 l 2,2,3
 772 635 772 635 812 667 c 128,-1,4
 852 699 852 699 882 793 c 1,5,-1
 914 793 l 1,6,-1
 831 404 l 1,7,-1
 799 404 l 1,8,9
 814 471 814 471 803.5 502 c 128,-1,10
 793 533 793 533 767.5 549 c 128,-1,11
 742 565 742 565 685 565 c 2,12,-1
 475 565 l 1,13,-1
 397 204 l 2,14,15
 379 117 379 117 385 88 c 0,16,17
 389 67 389 67 412 52 c 0,18,19
 445 32 445 32 487 32 c 2,20,-1
 528 32 l 1,21,-1
 522 0 l 1,22,-1
 28 0 l 1,23,-1
 34 32 l 1,24,-1
 75 32 l 2,25,26
 146 32 146 32 187 73 c 0,27,28
 213 100 213 100 235 204 c 2,29,-1
 393 947 l 2,30,31
 412 1033 412 1033 406 1062 c 0,32,33
 403 1083 403 1083 379 1098 c 0,34,35
 348 1118 348 1118 306 1118 c 2,36,-1
 265 1118 l 1,37,-1
 271 1150 l 1,38,-1
 1128 1150 l 1,39,-1
 1084 897 l 1,40,-1
 1055 897 l 1,41,42
 1049 977 1049 977 1028.5 1015.5 c 128,-1,43
 1008 1054 1008 1054 969 1071 c 128,-1,44
 930 1088 930 1088 840 1088 c 2,45,-1
 586 1088 l 1,0,-1
EndSplineSet
EndChar

StartChar: G
Encoding: 71 71 33
Width: 1254
Flags: W
LayerCount: 2
Fore
SplineSet
1315 1177 m 1,0,-1
 1269 813 l 1,1,-1
 1239 813 l 1,2,3
 1222 949 1222 949 1166 1018 c 0,4,5
 1084 1117 1084 1117 923 1117 c 0,6,7
 704 1117 704 1117 552 943 c 0,8,9
 425 796 425 796 383 594 c 0,10,11
 348 429 348 429 382.5 293.5 c 128,-1,12
 417 158 417 158 506.5 95 c 128,-1,13
 596 32 596 32 704 32 c 0,14,15
 767 32 767 32 830 48 c 128,-1,16
 893 64 893 64 955 95 c 1,17,-1
 1025 427 l 2,18,19
 1044 514 1044 514 1036.5 540.5 c 128,-1,20
 1029 567 1029 567 1004.5 581.5 c 128,-1,21
 980 596 980 596 911 596 c 1,22,-1
 917 628 l 1,23,-1
 1362 628 l 1,24,-1
 1356 596 l 1,25,-1
 1335 596 l 2,26,27
 1269 596 1269 596 1234 551 c 0,28,29
 1211 519 1211 519 1190 427 c 2,30,-1
 1116 75 l 1,31,32
 1007 23 1007 23 907 -2 c 128,-1,33
 807 -27 807 -27 691 -27 c 0,34,35
 357 -27 357 -27 230 188 c 0,36,37
 135 348 135 348 179 558 c 0,38,39
 212 709 212 709 314 848 c 0,40,41
 436 1013 436 1013 605 1102 c 0,42,43
 747 1177 747 1177 919 1177 c 0,44,45
 982 1177 982 1177 1031 1166 c 128,-1,46
 1080 1155 1080 1155 1167 1121 c 0,47,48
 1212 1103 1212 1103 1227 1103 c 0,49,50
 1243 1103 1243 1103 1258 1118 c 128,-1,51
 1273 1133 1273 1133 1284 1177 c 1,52,-1
 1315 1177 l 1,0,-1
EndSplineSet
EndChar

StartChar: H
Encoding: 72 72 34
Width: 1254
Flags: W
LayerCount: 2
Fore
SplineSet
488 617 m 1,0,-1
 1022 617 l 1,1,-1
 1092 946 l 2,2,3
 1111 1035 1111 1035 1105 1062 c 0,4,5
 1101 1083 1101 1083 1078 1098 c 0,6,7
 1045 1118 1045 1118 1005 1118 c 2,8,-1
 965 1118 l 1,9,-1
 971 1150 l 1,10,-1
 1463 1150 l 1,11,-1
 1456 1118 l 1,12,-1
 1415 1118 l 2,13,14
 1376 1118 1376 1118 1333 1099 c 0,15,16
 1304 1084 1304 1084 1288 1058 c 0,17,18
 1272 1029 1272 1029 1254 946 c 2,19,-1
 1096 204 l 2,20,21
 1078 116 1078 116 1083 88 c 0,22,23
 1089 66 1089 66 1111 52 c 0,24,25
 1143 32 1143 32 1184 32 c 2,26,-1
 1225 32 l 1,27,-1
 1219 0 l 1,28,-1
 727 0 l 1,29,-1
 734 32 l 1,30,-1
 774 32 l 2,31,32
 845 32 845 32 885 73 c 0,33,34
 912 100 912 100 934 204 c 2,35,-1
 1008 553 l 1,36,-1
 474 553 l 1,37,-1
 400 204 l 2,38,39
 382 116 382 116 386 88 c 0,40,41
 390 67 390 67 414 52 c 0,42,43
 446 32 446 32 488 32 c 2,44,-1
 529 32 l 1,45,-1
 523 0 l 1,46,-1
 30 0 l 1,47,-1
 36 32 l 1,48,-1
 76 32 l 2,49,50
 148 32 148 32 189 73 c 0,51,52
 214 100 214 100 236 204 c 2,53,-1
 394 946 l 2,54,55
 413 1035 413 1035 408 1062 c 0,56,57
 404 1083 404 1083 382 1098 c 0,58,59
 349 1118 349 1118 307 1118 c 2,60,-1
 267 1118 l 1,61,-1
 273 1150 l 1,62,-1
 766 1150 l 1,63,-1
 760 1118 l 1,64,-1
 719 1118 l 2,65,66
 678 1118 678 1118 637 1099 c 0,67,68
 607 1085 607 1085 591 1058 c 0,69,70
 576 1030 576 1030 558 946 c 2,71,-1
 488 617 l 1,0,-1
EndSplineSet
EndChar

StartChar: I
Encoding: 73 73 35
Width: 579
Flags: W
LayerCount: 2
Fore
SplineSet
543 32 m 1,0,-1
 536 0 l 1,1,-1
 43 0 l 1,2,-1
 50 32 l 1,3,-1
 90 32 l 2,4,5
 161 32 161 32 202 73 c 0,6,7
 228 100 228 100 250 204 c 2,8,-1
 408 947 l 2,9,10
 427 1033 427 1033 422 1062 c 0,11,12
 419 1083 419 1083 395 1098 c 0,13,14
 363 1118 363 1118 321 1118 c 2,15,-1
 281 1118 l 1,16,-1
 287 1150 l 1,17,-1
 780 1150 l 1,18,-1
 774 1118 l 1,19,-1
 731 1118 l 2,20,21
 661 1118 661 1118 620 1077 c 0,22,23
 594 1049 594 1049 571 947 c 2,24,-1
 413 204 l 2,25,26
 395 117 395 117 400 88 c 0,27,28
 404 67 404 67 428 52 c 0,29,30
 460 32 460 32 500 32 c 2,31,-1
 543 32 l 1,0,-1
EndSplineSet
EndChar

StartChar: J
Encoding: 74 74 36
Width: 676
Flags: W
LayerCount: 2
Fore
SplineSet
410 1118 m 1,0,-1
 417 1150 l 1,1,-1
 909 1150 l 1,2,-1
 903 1118 l 1,3,-1
 862 1118 l 2,4,5
 791 1118 791 1118 749 1077 c 0,6,7
 724 1049 724 1049 702 947 c 2,8,-1
 582 384 l 2,9,10
 555 254 555 254 509 173.5 c 128,-1,11
 463 93 463 93 381 33 c 128,-1,12
 299 -27 299 -27 200 -27 c 0,13,14
 121 -27 121 -27 84 13 c 128,-1,15
 47 53 47 53 57 104 c 0,16,17
 67 145 67 145 92 166 c 0,18,19
 125 193 125 193 162 193 c 0,20,21
 190 193 190 193 208 175 c 128,-1,22
 226 157 226 157 242 79 c 0,23,24
 251 34 251 34 282 34 c 0,25,26
 305 34 305 34 331 62 c 128,-1,27
 357 90 357 90 372 161 c 2,28,-1
 538 947 l 2,29,30
 558 1033 558 1033 552 1062 c 0,31,32
 549 1083 549 1083 525 1098 c 0,33,34
 493 1118 493 1118 452 1118 c 2,35,-1
 410 1118 l 1,0,-1
EndSplineSet
EndChar

StartChar: K
Encoding: 75 75 37
Width: 1254
Flags: W
LayerCount: 2
Fore
SplineSet
654 638 m 1,0,-1
 989 216 l 2,1,2
 1071 112 1071 112 1136.5 74 c 128,-1,3
 1202 36 1202 36 1275 32 c 1,4,-1
 1269 0 l 1,5,-1
 722 0 l 1,6,-1
 728 32 l 1,7,8
 777 32 777 32 802 48.5 c 128,-1,9
 827 65 827 65 832 85 c 0,10,11
 836 105 836 105 831.5 121.5 c 128,-1,12
 827 138 827 138 791 181 c 2,13,-1
 478 575 l 1,14,-1
 399 204 l 2,15,16
 381 117 381 117 385 88 c 0,17,18
 389 67 389 67 413 52 c 0,19,20
 445 32 445 32 487 32 c 2,21,-1
 526 32 l 1,22,-1
 519 0 l 1,23,-1
 29 0 l 1,24,-1
 35 32 l 1,25,-1
 76 32 l 2,26,27
 147 32 147 32 188 73 c 0,28,29
 213 100 213 100 235 204 c 2,30,-1
 393 947 l 2,31,32
 412 1033 412 1033 407 1062 c 0,33,34
 404 1083 404 1083 381 1098 c 0,35,36
 348 1118 348 1118 307 1118 c 2,37,-1
 266 1118 l 1,38,-1
 272 1150 l 1,39,-1
 763 1150 l 1,40,-1
 757 1118 l 1,41,-1
 718 1118 l 2,42,43
 677 1118 677 1118 636 1099 c 0,44,45
 606 1085 606 1085 590.5 1058 c 128,-1,46
 575 1031 575 1031 556 947 c 2,47,-1
 482 595 l 1,48,49
 502 611 502 611 621 702 c 0,50,51
 922 933 922 933 991 1010 c 0,52,53
 1021 1044 1021 1044 1026 1070 c 0,54,55
 1030 1089 1030 1089 1016 1103.5 c 128,-1,56
 1002 1118 1002 1118 959 1118 c 2,57,-1
 933 1118 l 1,58,-1
 939 1150 l 1,59,-1
 1361 1150 l 1,60,-1
 1355 1118 l 1,61,62
 1318 1117 1318 1117 1285.5 1108 c 128,-1,63
 1253 1099 1253 1099 1202.5 1072 c 128,-1,64
 1152 1045 1152 1045 1076 986 c 0,65,66
 1054 969 1054 969 866 812 c 2,67,-1
 654 638 l 1,0,-1
EndSplineSet
EndChar

StartChar: L
Encoding: 76 76 38
Width: 1061
Flags: W
LayerCount: 2
Fore
SplineSet
1062 318 m 1,0,-1
 1090 312 l 1,1,-1
 925 0 l 1,2,-1
 35 0 l 1,3,-1
 41 32 l 1,4,-1
 85 32 l 2,5,6
 157 32 157 32 198 78 c 0,7,8
 223 106 223 106 244 205 c 2,9,-1
 401 947 l 2,10,11
 424 1054 424 1054 405 1081 c 0,12,13
 381 1118 381 1118 316 1118 c 2,14,-1
 272 1118 l 1,15,-1
 279 1150 l 1,16,-1
 799 1150 l 1,17,-1
 793 1118 l 1,18,19
 702 1119 702 1119 661 1101 c 128,-1,20
 620 1083 620 1083 600.5 1056 c 128,-1,21
 581 1029 581 1029 559 926 c 2,22,-1
 406 205 l 2,23,24
 390 134 390 134 399 108 c 0,25,26
 406 90 406 90 425 81.5 c 128,-1,27
 444 73 444 73 555 73 c 2,28,-1
 639 73 l 2,29,30
 772 73 772 73 829 92.5 c 128,-1,31
 886 112 886 112 941 161.5 c 128,-1,32
 996 211 996 211 1062 318 c 1,0,-1
EndSplineSet
EndChar

StartChar: M
Encoding: 77 77 39
Width: 1544
Flags: W
LayerCount: 2
Fore
SplineSet
710 0 m 1,0,-1
 472 968 l 1,1,-1
 307 199 l 2,2,3
 285 93 285 93 303 67 c 0,4,5
 326 32 326 32 394 32 c 2,6,-1
 436 32 l 1,7,-1
 429 0 l 1,8,-1
 29 0 l 1,9,-1
 35 32 l 1,10,-1
 76 32 l 2,11,12
 148 32 148 32 189 75 c 0,13,14
 213 103 213 103 233 199 c 2,15,-1
 393 951 l 2,16,17
 409 1027 409 1027 400 1061 c 0,18,19
 393 1085 393 1085 365 1101.5 c 128,-1,20
 337 1118 337 1118 266 1118 c 1,21,-1
 272 1150 l 1,22,-1
 598 1150 l 1,23,-1
 825 250 l 1,24,-1
 1426 1150 l 1,25,-1
 1751 1150 l 1,26,-1
 1745 1118 l 1,27,-1
 1706 1118 l 2,28,29
 1631 1118 1631 1118 1591 1075 c 0,30,31
 1568 1047 1568 1047 1547 951 c 2,32,-1
 1386 199 l 2,33,34
 1364 93 1364 93 1382 67 c 0,35,36
 1407 32 1407 32 1474 32 c 2,37,-1
 1514 32 l 1,38,-1
 1507 0 l 1,39,-1
 1020 0 l 1,40,-1
 1026 32 l 1,41,-1
 1066 32 l 2,42,43
 1141 32 1141 32 1180 75 c 0,44,45
 1203 103 1203 103 1223 199 c 2,46,-1
 1388 968 l 1,47,-1
 739 0 l 1,48,-1
 710 0 l 1,0,-1
EndSplineSet
EndChar

StartChar: N
Encoding: 78 78 40
Width: 1254
Flags: W
LayerCount: 2
Fore
SplineSet
220 1150 m 1,0,-1
 533 1150 l 1,1,-1
 1053 287 l 1,2,-1
 1194 951 l 2,3,4
 1216 1057 1216 1057 1199 1083 c 0,5,6
 1174 1118 1174 1118 1107 1118 c 2,7,-1
 1066 1118 l 1,8,-1
 1073 1150 l 1,9,-1
 1473 1150 l 1,10,-1
 1467 1118 l 1,11,-1
 1427 1118 l 2,12,13
 1354 1118 1354 1118 1313 1075 c 0,14,15
 1289 1047 1289 1047 1268 951 c 2,16,-1
 1062 -19 l 1,17,-1
 1032 -19 l 1,18,-1
 470 907 l 1,19,-1
 319 199 l 2,20,21
 297 93 297 93 315 67 c 0,22,23
 339 32 339 32 407 32 c 2,24,-1
 447 32 l 1,25,-1
 441 0 l 1,26,-1
 40 0 l 1,27,-1
 47 32 l 1,28,-1
 87 32 l 2,29,30
 161 32 161 32 200 75 c 0,31,32
 225 103 225 103 245 199 c 2,33,-1
 416 999 l 1,34,35
 378 1058 378 1058 356 1076.5 c 128,-1,36
 334 1095 334 1095 287 1111 c 0,37,38
 265 1118 265 1118 214 1118 c 1,39,-1
 220 1150 l 1,0,-1
EndSplineSet
EndChar

StartChar: O
Encoding: 79 79 41
Width: 1254
Flags: W
LayerCount: 2
Fore
SplineSet
884 1177 m 0,0,1
 1108 1177 1108 1177 1236 1006.5 c 128,-1,2
 1364 836 1364 836 1310 582 c 0,3,4
 1255 320 1255 320 1052.5 146.5 c 128,-1,5
 850 -27 850 -27 615 -27 c 0,6,7
 377 -27 377 -27 252 142.5 c 128,-1,8
 127 312 127 312 184 579 c 0,9,10
 243 853 243 853 465 1026 c 0,11,12
 658 1177 658 1177 884 1177 c 0,0,1
855 1114 m 0,13,14
 701 1114 701 1114 583 1000 c 0,15,16
 437 858 437 858 378 583 c 0,17,18
 319 301 319 301 406 149 c 0,19,20
 475 34 475 34 626 34 c 0,21,22
 789 34 789 34 921.5 160 c 128,-1,23
 1054 286 1054 286 1112 559 c 0,24,25
 1174 854 1174 854 1089 999 c 0,26,27
 1020 1114 1020 1114 855 1114 c 0,13,14
EndSplineSet
EndChar

StartChar: P
Encoding: 80 80 42
Width: 966
Flags: W
LayerCount: 2
Fore
SplineSet
470 538 m 1,0,-1
 399 204 l 2,1,2
 376 95 376 95 393 69 c 0,3,4
 419 32 419 32 483 32 c 2,5,-1
 528 32 l 1,6,-1
 522 0 l 1,7,-1
 29 0 l 1,8,-1
 35 32 l 1,9,-1
 78 32 l 2,10,11
 152 32 152 32 192 78 c 0,12,13
 215 105 215 105 235 204 c 2,14,-1
 393 947 l 2,15,16
 417 1055 417 1055 400 1081 c 0,17,18
 375 1118 375 1118 310 1118 c 2,19,-1
 266 1118 l 1,20,-1
 272 1150 l 1,21,-1
 694 1150 l 2,22,23
 848 1150 848 1150 930 1118 c 128,-1,24
 1012 1086 1012 1086 1057.5 1010.5 c 128,-1,25
 1103 935 1103 935 1081 832 c 0,26,27
 1052 691 1052 691 940 603 c 128,-1,28
 828 515 828 515 658 515 c 0,29,30
 617 515 617 515 570 521 c 128,-1,31
 523 527 523 527 470 538 c 1,0,-1
480 587 m 1,32,33
 524 579 524 579 557.5 574.5 c 128,-1,34
 591 570 591 570 616 570 c 0,35,36
 704 570 704 570 782.5 638 c 128,-1,37
 861 706 861 706 884 815 c 0,38,39
 900 889 900 889 883.5 953.5 c 128,-1,40
 867 1018 867 1018 817 1049.5 c 128,-1,41
 767 1081 767 1081 696 1081 c 0,42,43
 653 1081 653 1081 582 1065 c 1,44,-1
 480 587 l 1,32,33
EndSplineSet
EndChar

StartChar: Q
Encoding: 81 81 43
Width: 1254
Flags: W
LayerCount: 2
Fore
SplineSet
762 -13 m 1,0,1
 816 -162 816 -162 902 -232.5 c 128,-1,2
 988 -303 988 -303 1114 -313 c 1,3,-1
 1108 -340 l 1,4,5
 991 -336 991 -336 867 -293 c 128,-1,6
 743 -250 743 -250 640 -174.5 c 128,-1,7
 537 -99 537 -99 470 -13 c 1,8,9
 357 36 357 36 298 91 c 0,10,11
 212 174 212 174 180 293.5 c 128,-1,12
 148 413 148 413 183 578 c 0,13,14
 238 835 238 835 441 1006 c 128,-1,15
 644 1177 644 1177 882 1177 c 0,16,17
 1108 1177 1108 1177 1236.5 1005.5 c 128,-1,18
 1365 834 1365 834 1310 575 c 0,19,20
 1265 363 1265 363 1113 204 c 128,-1,21
 961 45 961 45 762 -13 c 1,0,1
858 1111 m 0,22,23
 704 1111 704 1111 586 1001 c 0,24,25
 439 863 439 863 377 578 c 0,26,27
 318 299 318 299 406 147 c 0,28,29
 475 32 475 32 629 32 c 0,30,31
 789 32 789 32 911 147 c 0,32,33
 1055 285 1055 285 1111 553 c 0,34,35
 1155 759 1155 759 1121 900 c 0,36,37
 1097 1008 1097 1008 1027.5 1059.5 c 128,-1,38
 958 1111 958 1111 858 1111 c 0,22,23
EndSplineSet
EndChar

StartChar: R
Encoding: 82 82 44
Width: 1159
Flags: W
LayerCount: 2
Fore
SplineSet
1173 0 m 1,0,-1
 867 0 l 1,1,-1
 590 537 l 1,2,3
 548 536 548 536 520 536 c 0,4,5
 510 536 510 536 497 536 c 128,-1,6
 484 536 484 536 471 537 c 1,7,-1
 400 204 l 2,8,9
 377 95 377 95 394 69 c 0,10,11
 420 32 420 32 483 32 c 2,12,-1
 529 32 l 1,13,-1
 523 0 l 1,14,-1
 30 0 l 1,15,-1
 36 32 l 1,16,-1
 79 32 l 2,17,18
 153 32 153 32 193 78 c 0,19,20
 217 105 217 105 237 204 c 2,21,-1
 395 947 l 2,22,23
 419 1055 419 1055 401 1081 c 0,24,25
 375 1118 375 1118 311 1118 c 2,26,-1
 267 1118 l 1,27,-1
 273 1150 l 1,28,-1
 692 1150 l 2,29,30
 876 1150 876 1150 957 1123 c 128,-1,31
 1038 1096 1038 1096 1083.5 1024.5 c 128,-1,32
 1129 953 1129 953 1108 854 c 0,33,34
 1085 748 1085 748 999.5 669.5 c 128,-1,35
 914 591 914 591 762 560 c 1,36,-1
 930 230 l 2,37,38
 987 117 987 117 1037.5 79 c 128,-1,39
 1088 41 1088 41 1180 32 c 1,40,-1
 1173 0 l 1,0,-1
482 591 m 1,41,42
 498 591 498 591 510 590.5 c 128,-1,43
 522 590 522 590 530 590 c 0,44,45
 694 590 694 590 792 661 c 128,-1,46
 890 732 890 732 914 843 c 0,47,48
 937 951 937 951 884 1018 c 128,-1,49
 831 1085 831 1085 720 1085 c 0,50,51
 671 1085 671 1085 584 1070 c 1,52,-1
 482 591 l 1,41,42
EndSplineSet
EndChar

StartChar: S
Encoding: 83 83 45
Width: 966
Flags: W
LayerCount: 2
Fore
SplineSet
1045 1177 m 1,0,-1
 961 778 l 1,1,-1
 931 778 l 1,2,3
 938 893 938 893 913.5 960.5 c 128,-1,4
 889 1028 889 1028 824.5 1068.5 c 128,-1,5
 760 1109 760 1109 683 1109 c 0,6,7
 594 1109 594 1109 525 1055 c 128,-1,8
 456 1001 456 1001 441 932 c 0,9,10
 430 880 430 880 457 836 c 0,11,12
 496 773 496 773 671 667 c 0,13,14
 814 580 814 580 863 534 c 128,-1,15
 912 488 912 488 930.5 425.5 c 128,-1,16
 949 363 949 363 934 294 c 0,17,18
 906 163 906 163 785 68 c 128,-1,19
 664 -27 664 -27 505 -27 c 0,20,21
 454 -27 454 -27 412 -19 c 0,22,23
 387 -15 387 -15 309.5 12 c 128,-1,24
 232 39 232 39 210 39 c 0,25,26
 189 39 189 39 174 26.5 c 128,-1,27
 159 14 159 14 144 -27 c 1,28,-1
 113 -27 l 1,29,-1
 197 368 l 1,30,-1
 228 368 l 1,31,32
 224 244 224 244 248.5 182.5 c 128,-1,33
 273 121 273 121 341 80.5 c 128,-1,34
 409 40 409 40 501 40 c 0,35,36
 607 40 607 40 680.5 96 c 128,-1,37
 754 152 754 152 770 228 c 0,38,39
 779 270 779 270 764.5 313.5 c 128,-1,40
 750 357 750 357 709 394 c 0,41,42
 682 420 682 420 552 502.5 c 128,-1,43
 422 585 422 585 370 634.5 c 128,-1,44
 318 684 318 684 298 743 c 128,-1,45
 278 802 278 802 294 873 c 0,46,47
 320 997 320 997 434 1087 c 128,-1,48
 548 1177 548 1177 694 1177 c 0,49,50
 785 1177 785 1177 879 1131 c 0,51,52
 922 1110 922 1110 941 1110 c 0,53,54
 964 1110 964 1110 980.5 1123 c 128,-1,55
 997 1136 997 1136 1014 1177 c 1,56,-1
 1045 1177 l 1,0,-1
EndSplineSet
EndChar

StartChar: T
Encoding: 84 84 46
Width: 1061
Flags: W
LayerCount: 2
Fore
SplineSet
1249 1150 m 1,0,-1
 1204 880 l 1,1,-1
 1172 880 l 1,2,3
 1178 952 1178 952 1168 982 c 0,4,5
 1152 1031 1152 1031 1113.5 1054.5 c 128,-1,6
 1075 1078 1075 1078 1004 1078 c 2,7,-1
 842 1078 l 1,8,-1
 654 199 l 2,9,10
 632 93 632 93 650 67 c 0,11,12
 674 32 674 32 742 32 c 2,13,-1
 781 32 l 1,14,-1
 775 0 l 1,15,-1
 287 0 l 1,16,-1
 294 32 l 1,17,-1
 335 32 l 2,18,19
 407 32 407 32 447 75 c 0,20,21
 472 103 472 103 492 199 c 2,22,-1
 679 1078 l 1,23,-1
 541 1078 l 2,24,25
 460 1078 460 1078 423 1066 c 0,26,27
 376 1049 376 1049 335.5 1003.5 c 128,-1,28
 295 958 295 958 271 880 c 1,29,-1
 240 880 l 1,30,-1
 310 1150 l 1,31,-1
 1249 1150 l 1,0,-1
EndSplineSet
EndChar

StartChar: U
Encoding: 85 85 47
Width: 1254
Flags: W
LayerCount: 2
Fore
SplineSet
1066 1118 m 1,0,-1
 1073 1150 l 1,1,-1
 1480 1150 l 1,2,-1
 1473 1118 l 1,3,-1
 1430 1118 l 2,4,5
 1362 1118 1362 1118 1312 1062 c 0,6,7
 1290 1036 1290 1036 1270 939 c 2,8,-1
 1170 473 l 2,9,10
 1134 300 1134 300 1079 204.5 c 128,-1,11
 1024 109 1024 109 909 40.5 c 128,-1,12
 794 -28 794 -28 621 -28 c 0,13,14
 432 -28 432 -28 348.5 38 c 128,-1,15
 265 104 265 104 248 214 c 0,16,17
 237 289 237 289 281 497 c 2,18,-1
 376 947 l 2,19,20
 400 1053 400 1053 377.5 1085.5 c 128,-1,21
 355 1118 355 1118 290 1118 c 2,22,-1
 247 1118 l 1,23,-1
 253 1150 l 1,24,-1
 750 1150 l 1,25,-1
 744 1118 l 1,26,-1
 700 1118 l 2,27,28
 629 1118 629 1118 588 1074 c 0,29,30
 561 1043 561 1043 540 947 c 2,31,-1
 434 445 l 2,32,33
 419 378 419 378 413 292 c 128,-1,34
 407 206 407 206 428.5 157 c 128,-1,35
 450 108 450 108 504.5 77 c 128,-1,36
 559 46 559 46 648 46 c 0,37,38
 760 46 760 46 859 95 c 128,-1,39
 958 144 958 144 1007.5 221 c 128,-1,40
 1057 298 1057 298 1096 481 c 2,41,-1
 1195 947 l 2,42,43
 1218 1054 1218 1054 1199 1081 c 0,44,45
 1174 1118 1174 1118 1109 1118 c 2,46,-1
 1066 1118 l 1,0,-1
EndSplineSet
EndChar

StartChar: V
Encoding: 86 86 48
Width: 1254
Flags: W
LayerCount: 2
Fore
SplineSet
1477 1150 m 1,0,-1
 1470 1118 l 1,1,2
 1408 1108 1408 1108 1370 1079 c 0,3,4
 1317 1038 1317 1038 1262 952 c 2,5,-1
 653 -27 l 1,6,-1
 622 -27 l 1,7,-1
 402 965 l 2,8,9
 385 1041 385 1041 375 1058 c 0,10,11
 359 1084 359 1084 331.5 1099 c 128,-1,12
 304 1114 304 1114 252 1118 c 1,13,-1
 259 1150 l 1,14,-1
 729 1150 l 1,15,-1
 723 1118 l 1,16,17
 640 1111 640 1111 612.5 1091.5 c 128,-1,18
 585 1072 585 1072 579 1041 c 0,19,20
 570 999 570 999 589 909 c 2,21,-1
 739 235 l 1,22,-1
 1151 901 l 2,23,24
 1213 999 1213 999 1220 1037 c 0,25,26
 1225 1062 1225 1062 1205.5 1084.5 c 128,-1,27
 1186 1107 1186 1107 1129 1116 c 0,28,29
 1126 1117 1126 1117 1116 1118 c 1,30,-1
 1123 1150 l 1,31,-1
 1477 1150 l 1,0,-1
EndSplineSet
EndChar

StartChar: W
Encoding: 87 87 49
Width: 1639
Flags: W
LayerCount: 2
Fore
SplineSet
1870 1150 m 1,0,-1
 1863 1118 l 1,1,2
 1818 1118 1818 1118 1786 1102 c 128,-1,3
 1754 1086 1754 1086 1719 1042 c 0,4,5
 1696 1012 1696 1012 1637 901 c 2,6,-1
 1119 -27 l 1,7,-1
 1085 -27 l 1,8,-1
 979 709 l 1,9,-1
 563 -27 l 1,10,-1
 532 -27 l 1,11,-1
 394 929 l 2,12,13
 378 1036 378 1036 372 1055 c 0,14,15
 363 1088 363 1088 337 1103 c 128,-1,16
 311 1118 311 1118 261 1118 c 1,17,-1
 267 1150 l 1,18,-1
 692 1150 l 1,19,-1
 686 1118 l 1,20,-1
 666 1118 l 2,21,22
 621 1118 621 1118 593 1098 c 128,-1,23
 565 1078 565 1078 559 1049 c 0,24,25
 552 1020 552 1020 567 913 c 2,26,-1
 656 267 l 1,27,-1
 964 816 l 1,28,-1
 951 913 l 1,29,-1
 939 990 l 2,30,31
 931 1032 931 1032 915 1064 c 0,32,33
 907 1080 907 1080 894 1092 c 0,34,35
 876 1107 876 1107 856 1113 c 0,36,37
 842 1118 842 1118 807 1118 c 1,38,-1
 813 1150 l 1,39,-1
 1260 1150 l 1,40,-1
 1254 1118 l 1,41,-1
 1223 1118 l 2,42,43
 1177 1118 1177 1118 1150.5 1098 c 128,-1,44
 1124 1078 1124 1078 1116 1043 c 0,45,46
 1107 1000 1107 1000 1121 893 c 2,47,-1
 1209 267 l 1,48,-1
 1562 901 l 2,49,50
 1623 1006 1623 1006 1631 1046 c 0,51,52
 1636 1066 1636 1066 1627 1083 c 128,-1,53
 1618 1100 1618 1100 1601 1107 c 0,54,55
 1571 1118 1571 1118 1520 1118 c 1,56,-1
 1526 1150 l 1,57,-1
 1870 1150 l 1,0,-1
EndSplineSet
EndChar

StartChar: X
Encoding: 88 88 50
Width: 1254
Flags: W
LayerCount: 2
Fore
SplineSet
844 637 m 1,0,-1
 1012 269 l 2,1,2
 1082 117 1082 117 1123.5 76.5 c 128,-1,3
 1165 36 1165 36 1240 32 c 1,4,-1
 1234 0 l 1,5,-1
 740 0 l 1,6,-1
 746 32 l 1,7,8
 796 32 796 32 821 41 c 0,9,10
 841 49 841 49 856 65 c 128,-1,11
 871 81 871 81 874 96 c 0,12,13
 879 117 879 117 874 136 c 0,14,15
 872 151 872 151 844 210 c 2,16,-1
 711 506 l 1,17,-1
 405 197 l 2,18,19
 356 147 356 147 345 130.5 c 128,-1,20
 334 114 334 114 331 96 c 0,21,22
 325 70 325 70 344 52 c 128,-1,23
 363 34 363 34 427 32 c 1,24,-1
 421 0 l 1,25,-1
 13 0 l 1,26,-1
 19 32 l 1,27,28
 64 36 64 36 96 49 c 0,29,30
 155 71 155 71 210.5 108.5 c 128,-1,31
 266 146 266 146 342 223 c 2,32,-1
 687 566 l 1,33,-1
 531 897 l 2,34,35
 467 1032 467 1032 411.5 1074 c 128,-1,36
 356 1116 356 1116 273 1118 c 1,37,-1
 280 1150 l 1,38,-1
 811 1150 l 1,39,-1
 805 1118 l 1,40,41
 736 1116 736 1116 706.5 1096.5 c 128,-1,42
 677 1077 677 1077 673 1054 c 0,43,44
 666 1022 666 1022 693 961 c 2,45,-1
 814 697 l 1,46,-1
 1074 956 l 2,47,48
 1119 1003 1119 1003 1130.5 1020 c 128,-1,49
 1142 1037 1142 1037 1146 1054 c 0,50,51
 1149 1072 1149 1072 1143 1085 c 0,52,53
 1134 1103 1134 1103 1116 1110 c 128,-1,54
 1098 1117 1098 1117 1037 1118 c 1,55,-1
 1043 1150 l 1,56,-1
 1451 1150 l 1,57,-1
 1445 1118 l 1,58,59
 1396 1116 1396 1116 1363 1103 c 0,60,61
 1313 1083 1313 1083 1268 1050.5 c 128,-1,62
 1223 1018 1223 1018 1134 929 c 2,63,-1
 844 637 l 1,0,-1
EndSplineSet
EndChar

StartChar: Y
Encoding: 89 89 51
Width: 1254
Flags: W
LayerCount: 2
Fore
SplineSet
1072 1150 m 1,0,-1
 1472 1150 l 1,1,-1
 1466 1118 l 1,2,-1
 1444 1118 l 2,3,4
 1423 1118 1423 1118 1376 1098.5 c 128,-1,5
 1329 1079 1329 1079 1286 1043 c 128,-1,6
 1243 1007 1243 1007 1176 924 c 2,7,-1
 805 488 l 1,8,-1
 743 199 l 2,9,10
 721 93 721 93 740 67 c 0,11,12
 764 32 764 32 834 32 c 2,13,-1
 871 32 l 1,14,-1
 865 0 l 1,15,-1
 376 0 l 1,16,-1
 383 32 l 1,17,-1
 424 32 l 2,18,19
 496 32 496 32 536 75 c 0,20,21
 561 103 561 103 581 199 c 2,22,-1
 639 472 l 1,23,-1
 426 953 l 2,24,25
 388 1038 388 1038 372.5 1059 c 128,-1,26
 357 1080 357 1080 301 1110 c 0,27,28
 286 1118 286 1118 253 1118 c 1,29,-1
 260 1150 l 1,30,-1
 752 1150 l 1,31,-1
 745 1118 l 1,32,-1
 720 1118 l 2,33,34
 681 1118 681 1118 642.5 1099.5 c 128,-1,35
 604 1081 604 1081 597 1044 c 0,36,37
 590 1013 590 1013 625 934 c 2,38,-1
 787 563 l 1,39,-1
 1088 918 l 2,40,41
 1155 997 1155 997 1163 1037 c 0,42,43
 1168 1060 1168 1060 1159.5 1078.5 c 128,-1,44
 1151 1097 1151 1097 1131 1107.5 c 128,-1,45
 1111 1118 1111 1118 1065 1118 c 1,46,-1
 1072 1150 l 1,0,-1
EndSplineSet
EndChar

StartChar: Z
Encoding: 90 90 52
Width: 1061
Flags: W
LayerCount: 2
Fore
SplineSet
1242 1150 m 1,0,-1
 259 70 l 1,1,-1
 729 70 l 2,2,3
 838 70 838 70 905.5 117 c 128,-1,4
 973 164 973 164 1050 310 c 1,5,-1
 1077 304 l 1,6,-1
 958 0 l 1,7,-1
 22 0 l 1,8,-1
 29 32 l 1,9,-1
 989 1081 l 1,10,-1
 621 1081 l 2,11,12
 529 1081 529 1081 484 1061 c 128,-1,13
 439 1041 439 1041 409 1003.5 c 128,-1,14
 379 966 379 966 340 863 c 1,15,-1
 308 863 l 1,16,-1
 392 1150 l 1,17,-1
 1242 1150 l 1,0,-1
EndSplineSet
EndChar

StartChar: bracketleft
Encoding: 91 91 53
Width: 649
Flags: W
LayerCount: 2
Fore
SplineSet
514 -233 m 1,0,-1
 141 -233 l 1,1,-1
 550 1693 l 1,2,-1
 923 1693 l 1,3,-1
 902 1595 l 1,4,-1
 669 1595 l 1,5,-1
 301 -137 l 1,6,-1
 534 -137 l 1,7,-1
 514 -233 l 1,0,-1
EndSplineSet
EndChar

StartChar: backslash
Encoding: 92 92 54
Width: 609
Flags: W
LayerCount: 2
Fore
SplineSet
503 -379 m 1,0,-1
 384 -379 l 1,1,-1
 257 938 l 1,2,-1
 378 938 l 1,3,-1
 503 -379 l 1,0,-1
EndSplineSet
EndChar

StartChar: bracketright
Encoding: 93 93 55
Width: 649
Flags: W
LayerCount: 2
Fore
SplineSet
182 -137 m 1,0,-1
 416 -137 l 1,1,-1
 783 1595 l 1,2,-1
 550 1595 l 1,3,-1
 571 1693 l 1,4,-1
 944 1693 l 1,5,-1
 535 -233 l 1,6,-1
 162 -233 l 1,7,-1
 182 -137 l 1,0,-1
EndSplineSet
EndChar

StartChar: asciicircum
Encoding: 94 94 56
Width: 986
Flags: W
LayerCount: 2
Fore
SplineSet
992 453 m 1,0,-1
 862 453 l 1,1,-1
 676 865 l 1,2,-1
 314 452 l 1,3,-1
 182 452 l 1,4,-1
 660 984 l 1,5,-1
 743 984 l 1,6,-1
 992 453 l 1,0,-1
EndSplineSet
EndChar

StartChar: underscore
Encoding: 95 95 57
Width: 924
Flags: W
LayerCount: 2
Fore
SplineSet
884 -248 m 1,0,-1
 -65 -248 l 1,1,-1
 -42 -141 l 1,2,-1
 906 -141 l 1,3,-1
 884 -248 l 1,0,-1
EndSplineSet
EndChar

StartChar: grave
Encoding: 96 96 58
Width: 225
Flags: W
LayerCount: 2
Fore
SplineSet
352 1062 m 1,0,1
 371 977 371 977 377 902 c 1,2,3
 373 847 373 847 364 853 c 1,4,5
 347 887 347 887 317 982.5 c 128,-1,6
 287 1078 287 1078 284 1112 c 1,7,8
 289 1151 289 1151 352 1062 c 1,0,1
EndSplineSet
EndChar

StartChar: a
Encoding: 97 97 59
Width: 771
Flags: W
LayerCount: 2
Fore
SplineSet
517 112 m 1,0,1
 378 19 378 19 346 5 c 0,2,3
 295 -16 295 -16 243 -16 c 0,4,5
 162 -16 162 -16 121.5 39 c 128,-1,6
 81 94 81 94 100 184 c 0,7,8
 112 241 112 241 146 282 c 0,9,10
 194 340 194 340 291 391 c 128,-1,11
 388 442 388 442 603 515 c 1,12,-1
 609 545 l 2,13,14
 634 661 634 661 607 704.5 c 128,-1,15
 580 748 580 748 509 748 c 0,16,17
 456 748 456 748 418 719 c 0,18,19
 379 690 379 690 371 653 c 2,20,-1
 364 604 l 2,21,22
 355 565 355 565 330 544 c 128,-1,23
 305 523 305 523 273 523 c 0,24,25
 242 523 242 523 226.5 544.5 c 128,-1,26
 211 566 211 566 219 604 c 0,27,28
 234 677 234 677 322 738 c 128,-1,29
 410 799 410 799 545 799 c 0,30,31
 649 799 649 799 707 765 c 0,32,33
 753 739 753 739 763 683 c 0,34,35
 771 647 771 647 746 533 c 2,36,-1
 690 269 l 2,37,38
 667 159 667 159 666 133.5 c 128,-1,39
 665 108 665 108 673.5 99.5 c 128,-1,40
 682 91 682 91 694 91 c 0,41,42
 708 91 708 91 719 98 c 0,43,44
 739 108 739 108 800 159 c 1,45,-1
 791 112 l 1,46,47
 669 -15 669 -15 583 -15 c 0,48,49
 542 -15 542 -15 522.5 13.5 c 128,-1,50
 503 42 503 42 517 112 c 1,0,1
529 167 m 1,51,-1
 591 463 l 1,52,53
 454 412 454 412 411 391 c 0,54,55
 336 354 336 354 299 313 c 128,-1,56
 262 272 262 272 251 224 c 0,57,58
 238 163 238 163 266.5 123 c 128,-1,59
 295 83 295 83 341 83 c 0,60,61
 406 83 406 83 529 167 c 1,51,-1
EndSplineSet
EndChar

StartChar: b
Encoding: 98 98 60
Width: 868
Flags: W
LayerCount: 2
Fore
SplineSet
403 642 m 1,0,1
 549 799 549 799 681 799 c 0,2,3
 799 799 799 799 866.5 697.5 c 128,-1,4
 934 596 934 596 896 418 c 0,5,6
 852 211 852 211 689 85 c 0,7,8
 548 -23 548 -23 403 -23 c 0,9,10
 335 -23 335 -23 270.5 1 c 128,-1,11
 206 25 206 25 142 74 c 1,12,-1
 314 880 l 2,13,14
 341 1011 341 1011 341.5 1042 c 128,-1,15
 342 1073 342 1073 330.5 1084 c 128,-1,16
 319 1095 319 1095 299 1095 c 0,17,18
 276 1095 276 1095 236 1081 c 1,19,-1
 231 1111 l 1,20,-1
 484 1206 l 1,21,-1
 523 1206 l 1,22,-1
 403 642 l 1,0,1
391 588 m 1,23,-1
 293 124 l 1,24,25
 328 82 328 82 369 60 c 128,-1,26
 410 38 410 38 459 38 c 0,27,28
 535 38 535 38 620 123 c 128,-1,29
 705 208 705 208 740 370 c 0,30,31
 772 519 772 519 722 599 c 128,-1,32
 672 679 672 679 587 679 c 0,33,34
 543 679 543 679 493 656 c 0,35,36
 456 639 456 639 391 588 c 1,23,-1
EndSplineSet
EndChar

StartChar: c
Encoding: 99 99 61
Width: 771
Flags: W
LayerCount: 2
Fore
SplineSet
777 295 m 1,0,1
 712 142 712 142 603 59.5 c 128,-1,2
 494 -23 494 -23 383 -23 c 0,3,4
 251 -23 251 -23 176 87.5 c 128,-1,5
 101 198 101 198 141 388 c 0,6,7
 180 570 180 570 313.5 684.5 c 128,-1,8
 447 799 447 799 600 799 c 0,9,10
 714 799 714 799 775 738.5 c 128,-1,11
 836 678 836 678 821 613 c 0,12,13
 815 581 815 581 790 561 c 128,-1,14
 765 541 765 541 727 541 c 0,15,16
 677 541 677 541 658 573 c 0,17,18
 649 591 649 591 654.5 641 c 128,-1,19
 660 691 660 691 636 718 c 0,20,21
 613 743 613 743 560 743 c 0,22,23
 475 743 475 743 409 681 c 0,24,25
 323 597 323 597 295 460 c 0,26,27
 265 321 265 321 310 214.5 c 128,-1,28
 355 108 355 108 472 108 c 0,29,30
 554 108 554 108 634 165 c 0,31,32
 689 205 689 205 754 307 c 1,33,-1
 777 295 l 1,0,1
EndSplineSet
EndChar

StartChar: d
Encoding: 100 100 62
Width: 868
Flags: W
LayerCount: 2
Fore
SplineSet
621 87 m 1,0,1
 551 28 551 28 491.5 2.5 c 128,-1,2
 432 -23 432 -23 370 -23 c 0,3,4
 243 -23 243 -23 169.5 83 c 128,-1,5
 96 189 96 189 132 356 c 0,6,7
 169 524 169 524 303.5 662 c 128,-1,8
 438 800 438 800 603 800 c 0,9,10
 706 800 706 800 759 736 c 1,11,-1
 790 879 l 2,12,13
 817 1011 817 1011 817.5 1042 c 128,-1,14
 818 1073 818 1073 806.5 1084 c 128,-1,15
 795 1095 795 1095 775 1095 c 0,16,17
 753 1095 753 1095 713 1081 c 1,18,-1
 708 1111 l 1,19,-1
 960 1206 l 1,20,-1
 999 1206 l 1,21,-1
 808 307 l 2,22,23
 779 172 779 172 779 141.5 c 128,-1,24
 779 111 779 111 790 99 c 128,-1,25
 801 87 801 87 820 87 c 0,26,27
 843 87 843 87 884 102 c 1,28,-1
 887 72 l 1,29,-1
 637 -23 l 1,30,-1
 598 -23 l 1,31,-1
 621 87 l 1,0,1
634 146 m 1,32,-1
 719 547 l 1,33,34
 726 604 726 604 710.5 652 c 128,-1,35
 695 700 695 700 658.5 724 c 128,-1,36
 622 748 622 748 582 748 c 0,37,38
 508 748 508 748 435 681 c 0,39,40
 338 593 338 593 302 423 c 0,41,42
 266 252 266 252 321.5 161 c 128,-1,43
 377 70 377 70 469 70 c 0,44,45
 546 70 546 70 634 146 c 1,32,-1
EndSplineSet
EndChar

StartChar: e
Encoding: 101 101 63
Width: 771
Flags: W
LayerCount: 2
Fore
SplineSet
287 484 m 1,0,1
 250 312 250 312 314 213 c 0,2,3
 377 114 377 114 492 114 c 0,4,5
 568 114 568 114 633.5 156 c 128,-1,6
 699 198 699 198 759 300 c 1,7,-1
 781 283 l 1,8,9
 739 167 739 167 633 72 c 128,-1,10
 527 -23 527 -23 399 -23 c 0,11,12
 259 -23 259 -23 182 85.5 c 128,-1,13
 105 194 105 194 144 378 c 0,14,15
 187 578 187 578 313 689 c 128,-1,16
 439 800 439 800 593 800 c 0,17,18
 723 800 723 800 789 714.5 c 128,-1,19
 855 629 855 629 825 484 c 1,20,-1
 287 484 l 1,0,1
297 533 m 1,21,-1
 657 533 l 1,22,23
 670 608 670 608 661 638 c 0,24,25
 651 686 651 686 615 713 c 128,-1,26
 579 740 579 740 532 740 c 0,27,28
 462 740 462 740 395 685.5 c 128,-1,29
 328 631 328 631 297 533 c 1,21,-1
EndSplineSet
EndChar

StartChar: f
Encoding: 102 102 64
Width: 579
Flags: W
LayerCount: 2
Fore
SplineSet
510 715 m 1,0,-1
 402 206 l 2,1,2
 378 96 378 96 395 68 c 0,3,4
 420 31 420 31 472 31 c 2,5,-1
 543 31 l 1,6,-1
 536 0 l 1,7,-1
 72 0 l 1,8,-1
 78 31 l 1,9,-1
 113 31 l 2,10,11
 147 31 147 31 178.5 48 c 128,-1,12
 210 65 210 65 227 93.5 c 128,-1,13
 244 122 244 122 262 206 c 2,14,-1
 370 715 l 1,15,-1
 218 715 l 1,16,-1
 231 777 l 1,17,-1
 383 777 l 1,18,-1
 394 828 l 2,19,20
 419 943 419 943 473 1024 c 128,-1,21
 527 1105 527 1105 614.5 1154.5 c 128,-1,22
 702 1204 702 1204 797 1204 c 0,23,24
 886 1204 886 1204 949 1147 c 0,25,26
 990 1109 990 1109 979 1061 c 0,27,28
 974 1036 974 1036 947 1013 c 128,-1,29
 920 990 920 990 895 990 c 0,30,31
 876 990 876 990 857 1004.5 c 128,-1,32
 838 1019 838 1019 816.5 1065 c 128,-1,33
 795 1111 795 1111 772 1127 c 256,34,35
 749 1143 749 1143 718 1143 c 0,36,37
 678 1143 678 1143 646.5 1122 c 128,-1,38
 615 1101 615 1101 594 1057.5 c 128,-1,39
 573 1014 573 1014 535 833 c 2,40,-1
 523 777 l 1,41,-1
 722 777 l 1,42,-1
 709 715 l 1,43,-1
 510 715 l 1,0,-1
EndSplineSet
EndChar

StartChar: g
Encoding: 103 103 65
Width: 868
Flags: W
LayerCount: 2
Fore
SplineSet
321 283 m 1,0,1
 258 318 258 318 233 380.5 c 128,-1,2
 208 443 208 443 224 518 c 0,3,4
 249 634 249 634 353.5 716.5 c 128,-1,5
 458 799 458 799 594 799 c 0,6,7
 705 799 705 799 775 745 c 1,8,-1
 939 745 l 2,9,10
 975 745 975 745 980.5 743 c 128,-1,11
 986 741 986 741 988 736 c 0,12,13
 992 728 992 728 988 709 c 0,14,15
 983 687 983 687 977 678 c 0,16,17
 973 674 973 674 966 671.5 c 128,-1,18
 959 669 959 669 923 669 c 2,19,-1
 823 669 l 1,20,21
 856 608 856 608 835 513 c 0,22,23
 813 405 813 405 714 327.5 c 128,-1,24
 615 250 615 250 475 250 c 0,25,26
 417 250 417 250 359 267 c 1,27,28
 316 235 316 235 297.5 211 c 128,-1,29
 279 187 279 187 276 170 c 0,30,31
 272 155 272 155 283.5 141.5 c 128,-1,32
 295 128 295 128 334 122 c 0,33,34
 357 119 357 119 452 117 c 0,35,36
 625 112 625 112 675 104 c 0,37,38
 752 93 752 93 789 45.5 c 128,-1,39
 826 -2 826 -2 811 -71 c 0,40,41
 791 -167 791 -167 683 -251 c 0,42,43
 524 -375 524 -375 312 -375 c 0,44,45
 147 -375 147 -375 51 -301 c 0,46,47
 -2 -259 -2 -259 6 -213 c 0,48,49
 11 -193 11 -193 24 -172 c 0,50,51
 45 -141 45 -141 102 -85 c 0,52,53
 109 -77 109 -77 208 6 c 1,54,55
 170 33 170 33 155.5 53.5 c 128,-1,56
 141 74 141 74 147 101 c 0,57,58
 154 130 154 130 186.5 170 c 128,-1,59
 219 210 219 210 321 283 c 1,0,1
570 759 m 0,60,61
 508 759 508 759 455 709 c 128,-1,62
 402 659 402 659 379 555 c 0,63,64
 351 422 351 422 393 348 c 0,65,66
 425 291 425 291 493 291 c 0,67,68
 558 291 558 291 609 339.5 c 128,-1,69
 660 388 660 388 683 492 c 0,70,71
 711 626 711 626 669 703 c 0,72,73
 638 759 638 759 570 759 c 0,60,61
253 0 m 1,74,75
 205 -43 205 -43 176 -80.5 c 128,-1,76
 147 -118 147 -118 141 -149 c 0,77,78
 131 -190 131 -190 175 -220 c 0,79,80
 249 -273 249 -273 409 -273 c 0,81,82
 562 -273 562 -273 645.5 -219 c 128,-1,83
 729 -165 729 -165 743 -104 c 0,84,85
 752 -60 752 -60 712 -41 c 0,86,87
 672 -23 672 -23 543 -19 c 0,88,89
 353 -15 353 -15 253 0 c 1,74,75
EndSplineSet
EndChar

StartChar: h
Encoding: 104 104 66
Width: 868
Flags: W
LayerCount: 2
Fore
SplineSet
537 1206 m 1,0,-1
 417 638 l 1,1,2
 533 741 533 741 594.5 770 c 128,-1,3
 656 799 656 799 711 799 c 0,4,5
 778 799 778 799 817 763 c 128,-1,6
 856 727 856 727 864 649 c 0,7,8
 868 595 868 595 837 450 c 2,9,-1
 779 176 l 2,10,11
 763 102 763 102 768 74 c 0,12,13
 773 54 773 54 791.5 42.5 c 128,-1,14
 810 31 810 31 864 31 c 1,15,-1
 858 0 l 1,16,-1
 476 0 l 1,17,-1
 482 31 l 1,18,-1
 500 31 l 2,19,20
 554 31 554 31 578.5 47.5 c 128,-1,21
 603 64 603 64 619 95 c 0,22,23
 623 109 623 109 638 176 c 2,24,-1
 696 450 l 2,25,26
 723 578 723 578 718 617.5 c 128,-1,27
 713 657 713 657 689 677 c 128,-1,28
 665 697 665 697 624 697 c 0,29,30
 582 697 582 697 532.5 675 c 128,-1,31
 483 653 483 653 406 586 c 1,32,-1
 319 176 l 2,33,34
 302 95 302 95 307 76 c 128,-1,35
 312 57 312 57 333.5 44 c 128,-1,36
 355 31 355 31 414 31 c 1,37,-1
 408 0 l 1,38,-1
 23 0 l 1,39,-1
 30 31 l 1,40,41
 81 31 81 31 113 47 c 0,42,43
 132 55 132 55 147.5 79 c 128,-1,44
 163 103 163 103 179 176 c 2,45,-1
 329 879 l 2,46,47
 356 1011 356 1011 356.5 1042 c 128,-1,48
 357 1073 357 1073 346 1084 c 128,-1,49
 335 1095 335 1095 313 1095 c 0,50,51
 295 1095 295 1095 252 1081 c 1,52,-1
 246 1111 l 1,53,-1
 499 1206 l 1,54,-1
 537 1206 l 1,0,-1
EndSplineSet
EndChar

StartChar: i
Encoding: 105 105 67
Width: 482
Flags: W
LayerCount: 2
Fore
SplineSet
508 1206 m 0,0,1
 543 1206 543 1206 562.5 1180.5 c 128,-1,2
 582 1155 582 1155 575 1120 c 0,3,4
 567 1084 567 1084 537 1058.5 c 128,-1,5
 507 1033 507 1033 472 1033 c 0,6,7
 436 1033 436 1033 415.5 1058.5 c 128,-1,8
 395 1084 395 1084 403 1120 c 0,9,10
 410 1155 410 1155 440.5 1180.5 c 128,-1,11
 471 1206 471 1206 508 1206 c 0,0,1
492 799 m 1,12,-1
 359 176 l 2,13,14
 343 103 343 103 348.5 78.5 c 128,-1,15
 354 54 354 54 372.5 42.5 c 128,-1,16
 391 31 391 31 446 31 c 1,17,-1
 440 0 l 1,18,-1
 63 0 l 1,19,-1
 69 31 l 1,20,21
 126 31 126 31 148 42 c 128,-1,22
 170 53 170 53 186 78.5 c 128,-1,23
 202 104 202 104 218 176 c 2,24,-1
 282 475 l 2,25,26
 308 601 308 601 308 638 c 0,27,28
 308 666 308 666 297.5 676.5 c 128,-1,29
 287 687 287 687 266 687 c 0,30,31
 242 687 242 687 206 674 c 1,32,-1
 200 705 l 1,33,-1
 455 799 l 1,34,-1
 492 799 l 1,12,-1
EndSplineSet
EndChar

StartChar: j
Encoding: 106 106 68
Width: 482
Flags: W
LayerCount: 2
Fore
SplineSet
507 1206 m 256,0,1
 543 1206 543 1206 563 1180.5 c 128,-1,2
 583 1155 583 1155 576 1119 c 0,3,4
 568 1083 568 1083 537.5 1057.5 c 128,-1,5
 507 1032 507 1032 471 1032 c 256,6,7
 435 1032 435 1032 414.5 1057.5 c 128,-1,8
 394 1083 394 1083 402 1119 c 0,9,10
 409 1155 409 1155 440 1180.5 c 128,-1,11
 471 1206 471 1206 507 1206 c 256,0,1
494 799 m 1,12,-1
 328 18 l 2,13,14
 285 -181 285 -181 179.5 -278 c 128,-1,15
 74 -375 74 -375 -60 -375 c 0,16,17
 -138 -375 -138 -375 -169 -347 c 128,-1,18
 -200 -319 -200 -319 -195 -289 c 0,19,20
 -189 -260 -189 -260 -163 -238.5 c 128,-1,21
 -137 -217 -137 -217 -109 -217 c 0,22,23
 -87 -217 -87 -217 -67 -228 c 0,24,25
 -53 -234 -53 -234 -20 -270.5 c 128,-1,26
 13 -307 13 -307 40 -307 c 0,27,28
 60 -307 60 -307 83 -292 c 128,-1,29
 106 -277 106 -277 123.5 -239.5 c 128,-1,30
 141 -202 141 -202 167 -80 c 2,31,-1
 284 473 l 2,32,33
 312 601 312 601 311 638 c 0,34,35
 312 666 312 666 301 676.5 c 128,-1,36
 290 687 290 687 268 687 c 0,37,38
 245 687 245 687 209 674 c 1,39,-1
 202 705 l 1,40,-1
 457 799 l 1,41,-1
 494 799 l 1,12,-1
EndSplineSet
EndChar

StartChar: k
Encoding: 107 107 69
Width: 868
Flags: W
LayerCount: 2
Fore
SplineSet
540 1206 m 1,0,-1
 375 432 l 1,1,-1
 611 613 l 2,2,3
 687 671 687 671 700 686 c 0,4,5
 709 696 709 696 711 706 c 0,6,7
 714 723 714 723 703 735.5 c 128,-1,8
 692 748 692 748 660 749 c 1,9,-1
 666 777 l 1,10,-1
 1003 777 l 1,11,-1
 997 749 l 1,12,13
 929 748 929 748 878 728.5 c 128,-1,14
 827 709 827 709 761 659 c 2,15,-1
 523 475 l 1,16,-1
 668 223 l 2,17,18
 729 119 729 119 753 91 c 0,19,20
 784 51 784 51 812 39 c 0,21,22
 832 31 832 31 885 31 c 1,23,-1
 879 0 l 1,24,-1
 501 0 l 1,25,-1
 508 31 l 1,26,27
 540 32 540 32 553 40.5 c 128,-1,28
 566 49 566 49 570 66 c 0,29,30
 575 85 575 85 549 128 c 2,31,-1
 375 432 l 1,32,-1
 321 175 l 2,33,34
 304 100 304 100 310 76 c 128,-1,35
 316 52 316 52 333.5 42 c 128,-1,36
 351 32 351 32 416 31 c 1,37,-1
 409 0 l 1,38,-1
 15 0 l 1,39,-1
 21 31 l 1,40,41
 81 31 81 31 112 45 c 0,42,43
 131 54 131 54 145 74 c 0,44,45
 164 102 164 102 179 171 c 2,46,-1
 329 878 l 2,47,48
 357 1012 357 1012 358 1042.5 c 128,-1,49
 359 1073 359 1073 347.5 1084.5 c 128,-1,50
 336 1096 336 1096 315 1096 c 0,51,52
 297 1096 297 1096 258 1081 c 1,53,-1
 250 1111 l 1,54,-1
 500 1206 l 1,55,-1
 540 1206 l 1,0,-1
EndSplineSet
EndChar

StartChar: l
Encoding: 108 108 70
Width: 482
Flags: W
LayerCount: 2
Fore
SplineSet
577 1206 m 1,0,-1
 358 176 l 2,1,2
 342 103 342 103 348 79 c 128,-1,3
 354 55 354 55 373.5 43 c 128,-1,4
 393 31 393 31 454 31 c 1,5,-1
 447 0 l 1,6,-1
 66 0 l 1,7,-1
 72 31 l 1,8,9
 126 31 126 31 148 42 c 128,-1,10
 170 53 170 53 185.5 78.5 c 128,-1,11
 201 104 201 104 217 176 c 2,12,-1
 367 881 l 2,13,14
 394 1012 394 1012 395 1042.5 c 128,-1,15
 396 1073 396 1073 385 1084 c 128,-1,16
 374 1095 374 1095 354 1095 c 0,17,18
 332 1095 332 1095 295 1081 c 1,19,-1
 287 1111 l 1,20,-1
 538 1206 l 1,21,-1
 577 1206 l 1,0,-1
EndSplineSet
EndChar

StartChar: m
Encoding: 109 109 71
Width: 1350
Flags: W
LayerCount: 2
Fore
SplineSet
420 634 m 1,0,1
 523 719 523 719 540 731 c 0,2,3
 585 764 585 764 633 781.5 c 128,-1,4
 681 799 681 799 724 799 c 0,5,6
 797 799 797 799 840.5 756.5 c 128,-1,7
 884 714 884 714 885 634 c 1,8,9
 993 736 993 736 1060.5 767.5 c 128,-1,10
 1128 799 1128 799 1191 799 c 0,11,12
 1253 799 1253 799 1294.5 767.5 c 128,-1,13
 1336 736 1336 736 1348 664 c 0,14,15
 1357 615 1357 615 1335 510 c 2,16,-1
 1264 176 l 2,17,18
 1248 103 1248 103 1253 75 c 0,19,20
 1257 57 1257 57 1277 44 c 128,-1,21
 1297 31 1297 31 1349 31 c 1,22,-1
 1343 0 l 1,23,-1
 960 0 l 1,24,-1
 967 31 l 1,25,-1
 983 31 l 2,26,27
 1032 31 1032 31 1063 50 c 0,28,29
 1086 64 1086 64 1101 93 c 0,30,31
 1108 108 1108 108 1123 176 c 2,32,-1
 1194 510 l 2,33,34
 1214 604 1214 604 1199 643 c 0,35,36
 1177 697 1177 697 1103 697 c 0,37,38
 1059 697 1059 697 1008.5 675 c 128,-1,39
 958 653 958 653 882 591 c 1,40,-1
 878 583 l 1,41,-1
 872 546 l 1,42,-1
 794 176 l 2,43,44
 777 95 777 95 781 76 c 128,-1,45
 785 57 785 57 807.5 44 c 128,-1,46
 830 31 830 31 889 31 c 1,47,-1
 883 0 l 1,48,-1
 490 0 l 1,49,-1
 496 31 l 1,50,51
 561 31 561 31 588.5 46 c 128,-1,52
 616 61 616 61 632 91 c 0,53,54
 639 106 639 106 654 176 c 2,55,-1
 725 510 l 2,56,57
 745 604 745 604 725 647 c 0,58,59
 700 701 700 701 633 701 c 0,60,61
 587 701 587 701 536 676 c 0,62,63
 458 638 458 638 410 591 c 1,64,-1
 322 176 l 2,65,66
 305 100 305 100 311 76.5 c 128,-1,67
 317 53 317 53 335.5 42 c 128,-1,68
 354 31 354 31 418 31 c 1,69,-1
 411 0 l 1,70,-1
 28 0 l 1,71,-1
 34 31 l 1,72,73
 87 31 87 31 110.5 42 c 128,-1,74
 134 53 134 53 150 78.5 c 128,-1,75
 166 104 166 104 182 176 c 2,76,-1
 245 473 l 2,77,78
 272 600 272 600 272 638 c 0,79,80
 272 666 272 666 261.5 676.5 c 128,-1,81
 251 687 251 687 229 687 c 0,82,83
 206 687 206 687 171 674 c 1,84,-1
 164 705 l 1,85,-1
 418 799 l 1,86,-1
 455 799 l 1,87,-1
 420 634 l 1,0,1
EndSplineSet
EndChar

StartChar: n
Encoding: 110 110 72
Width: 868
Flags: W
LayerCount: 2
Fore
SplineSet
416 635 m 1,0,1
 587 799 587 799 710 799 c 0,2,3
 774 799 774 799 813 767.5 c 128,-1,4
 852 736 852 736 864 664 c 0,5,6
 871 613 871 613 849 507 c 2,7,-1
 779 176 l 2,8,9
 763 102 763 102 770 75 c 0,10,11
 774 54 774 54 792.5 42.5 c 128,-1,12
 811 31 811 31 867 31 c 1,13,-1
 861 0 l 1,14,-1
 477 0 l 1,15,-1
 483 31 l 1,16,-1
 499 31 l 2,17,18
 553 31 553 31 578 47.5 c 128,-1,19
 603 64 603 64 619 95 c 0,20,21
 624 108 624 108 639 176 c 2,22,-1
 707 494 l 2,23,24
 729 600 729 600 711.5 647.5 c 128,-1,25
 694 695 694 695 629 695 c 0,26,27
 528 695 528 695 405 585 c 1,28,-1
 318 176 l 2,29,30
 301 96 301 96 306 78 c 0,31,32
 313 53 313 53 331.5 42 c 128,-1,33
 350 31 350 31 413 31 c 1,34,-1
 407 0 l 1,35,-1
 23 0 l 1,36,-1
 30 31 l 1,37,-1
 47 31 l 2,38,39
 106 31 106 31 133 61 c 128,-1,40
 160 91 160 91 178 176 c 2,41,-1
 240 464 l 2,42,43
 269 604 269 604 269 634.5 c 128,-1,44
 269 665 269 665 258 676 c 128,-1,45
 247 687 247 687 225 687 c 0,46,47
 201 687 201 687 166 674 c 1,48,-1
 160 705 l 1,49,-1
 413 799 l 1,50,-1
 450 799 l 1,51,-1
 416 635 l 1,0,1
EndSplineSet
EndChar

StartChar: o
Encoding: 111 111 73
Width: 868
Flags: W
LayerCount: 2
Fore
SplineSet
604 799 m 0,0,1
 780 799 780 799 859 666 c 0,2,3
 924 551 924 551 893 403 c 0,4,5
 870 299 870 299 798 192 c 128,-1,6
 726 85 726 85 626.5 31 c 128,-1,7
 527 -23 527 -23 420 -23 c 0,8,9
 244 -23 244 -23 171 117 c 0,10,11
 107 234 107 234 139 381 c 0,12,13
 161 488 161 488 237 593.5 c 128,-1,14
 313 699 313 699 410 749 c 128,-1,15
 507 799 507 799 604 799 c 0,0,1
566 744 m 0,16,17
 520 744 520 744 469.5 717.5 c 128,-1,18
 419 691 419 691 376.5 624.5 c 128,-1,19
 334 558 334 558 312 452 c 0,20,21
 276 282 276 282 317 159 c 128,-1,22
 358 36 358 36 469 36 c 0,23,24
 551 36 551 36 619 104 c 128,-1,25
 687 172 687 172 722 337 c 0,26,27
 766 545 766 545 703 664 c 0,28,29
 659 744 659 744 566 744 c 0,16,17
EndSplineSet
EndChar

StartChar: p
Encoding: 112 112 74
Width: 868
Flags: W
LayerCount: 2
Fore
SplineSet
146 700 m 1,0,-1
 406 796 l 1,1,-1
 438 796 l 1,2,-1
 400 615 l 1,3,4
 481 718 481 718 551 758.5 c 128,-1,5
 621 799 621 799 688 799 c 0,6,7
 805 799 805 799 863 708 c 0,8,9
 935 596 935 596 897 417 c 0,10,11
 854 215 854 215 710 84 c 0,12,13
 594 -23 594 -23 449 -23 c 0,14,15
 387 -23 387 -23 343 -6 c 0,16,17
 313 6 313 6 278 45 c 1,18,-1
 228 -192 l 2,19,20
 211 -271 211 -271 216.5 -293 c 128,-1,21
 222 -315 222 -315 243 -327.5 c 128,-1,22
 264 -340 264 -340 328 -340 c 1,23,-1
 321 -371 l 1,24,-1
 -85 -371 l 1,25,-1
 -78 -340 l 1,26,-1
 -57 -340 l 2,27,28
 -11 -341 -11 -341 26 -322 c 0,29,30
 45 -313 45 -313 58 -292 c 128,-1,31
 71 -271 71 -271 89 -187 c 2,32,-1
 245 548 l 2,33,34
 261 623 261 623 259 643.5 c 128,-1,35
 257 664 257 664 244 674.5 c 128,-1,36
 231 685 231 685 206 685 c 0,37,38
 185 685 185 685 151 672 c 1,39,-1
 146 700 l 1,0,-1
389 565 m 1,40,-1
 328 275 l 2,41,42
 307 180 307 180 310 151 c 0,43,44
 311 102 311 102 349 65 c 128,-1,45
 387 28 387 28 457 28 c 0,46,47
 542 28 542 28 608 93 c 0,48,49
 696 180 696 180 729 337 c 0,50,51
 767 515 767 515 709 611 c 0,52,53
 669 676 669 676 595 676 c 0,54,55
 553 676 553 676 510 656 c 0,56,57
 476 641 476 641 389 565 c 1,40,-1
EndSplineSet
EndChar

StartChar: q
Encoding: 113 113 75
Width: 868
Flags: W
LayerCount: 2
Fore
SplineSet
912 799 m 1,0,-1
 700 -199 l 2,1,2
 684 -273 684 -273 689 -294.5 c 128,-1,3
 694 -316 694 -316 713 -328 c 128,-1,4
 732 -340 732 -340 795 -340 c 1,5,-1
 789 -371 l 1,6,-1
 397 -371 l 1,7,-1
 404 -340 l 1,8,-1
 420 -340 l 2,9,10
 467 -340 467 -340 495 -326 c 0,11,12
 514 -317 514 -317 529.5 -293 c 128,-1,13
 545 -269 545 -269 560 -199 c 2,14,-1
 630 135 l 1,15,16
 533 43 533 43 468.5 10 c 128,-1,17
 404 -23 404 -23 342 -23 c 0,18,19
 230 -23 230 -23 162.5 79 c 128,-1,20
 95 181 95 181 131 354 c 0,21,22
 174 551 174 551 317.5 675 c 128,-1,23
 461 799 461 799 626 799 c 0,24,25
 675 799 675 799 712.5 786 c 128,-1,26
 750 773 750 773 777 745 c 1,27,28
 831 770 831 770 883 799 c 1,29,-1
 912 799 l 1,0,-1
641 189 m 1,30,-1
 719 553 l 2,31,32
 732 617 732 617 723.5 653 c 128,-1,33
 715 689 715 689 678 714.5 c 128,-1,34
 641 740 641 740 587 740 c 0,35,36
 493 740 493 740 408 659.5 c 128,-1,37
 323 579 323 579 288 416 c 0,38,39
 254 259 254 259 306 177 c 128,-1,40
 358 95 358 95 456 95 c 0,41,42
 506 95 506 95 549.5 117 c 128,-1,43
 593 139 593 139 641 189 c 1,30,-1
EndSplineSet
EndChar

StartChar: r
Encoding: 114 114 76
Width: 637
Flags: W
LayerCount: 2
Fore
SplineSet
452 799 m 1,0,-1
 408 596 l 1,1,2
 580 787 580 787 682 787 c 0,3,4
 728 787 728 787 753 758.5 c 128,-1,5
 778 730 778 730 771 693 c 0,6,7
 763 659 763 659 736 636.5 c 128,-1,8
 709 614 709 614 679 614 c 0,9,10
 650 614 650 614 618.5 643 c 128,-1,11
 587 672 587 672 569 672 c 0,12,13
 554 672 554 672 533 655 c 0,14,15
 488 621 488 621 393 524 c 1,16,-1
 320 181 l 2,17,18
 306 117 306 117 315 84 c 0,19,20
 321 61 321 61 346 46 c 128,-1,21
 371 31 371 31 424 31 c 1,22,-1
 418 0 l 1,23,-1
 19 0 l 1,24,-1
 25 31 l 1,25,26
 85 31 85 31 118 49 c 0,27,28
 142 63 142 63 157 92 c 0,29,30
 164 107 164 107 179 175 c 2,31,-1
 243 476 l 2,32,33
 271 612 271 612 271 638 c 128,-1,34
 271 664 271 664 258.5 675.5 c 128,-1,35
 246 687 246 687 224 687 c 0,36,37
 198 687 198 687 162 674 c 1,38,-1
 160 705 l 1,39,-1
 416 799 l 1,40,-1
 452 799 l 1,0,-1
EndSplineSet
EndChar

StartChar: s
Encoding: 115 115 77
Width: 676
Flags: W
LayerCount: 2
Fore
SplineSet
726 799 m 1,0,-1
 670 535 l 1,1,-1
 641 535 l 1,2,3
 636 659 636 659 595 704 c 128,-1,4
 554 749 554 749 476 749 c 0,5,6
 417 749 417 749 373.5 718 c 128,-1,7
 330 687 330 687 322 649 c 0,8,9
 312 601 312 601 332 567 c 0,10,11
 351 532 351 532 424 494 c 2,12,-1
 534 434 l 2,13,14
 689 350 689 350 659 212 c 0,15,16
 637 106 637 106 543 41.5 c 128,-1,17
 449 -23 449 -23 350 -23 c 0,18,19
 279 -23 279 -23 193 2 c 0,20,21
 166 11 166 11 148 11 c 0,22,23
 129 11 129 11 113 -12 c 1,24,-1
 85 -12 l 1,25,-1
 144 265 l 1,26,-1
 173 265 l 1,27,28
 171 146 171 146 225 86 c 128,-1,29
 279 26 279 26 363 26 c 0,30,31
 421 26 421 26 465.5 60.5 c 128,-1,32
 510 95 510 95 519 143 c 0,33,34
 532 201 532 201 499 241.5 c 128,-1,35
 466 282 466 282 356 343 c 128,-1,36
 246 404 246 404 218 453 c 0,37,38
 191 501 191 501 207 575 c 0,39,40
 227 671 227 671 306.5 735 c 128,-1,41
 386 799 386 799 490 799 c 0,42,43
 536 799 536 799 597 780 c 0,44,45
 637 767 637 767 652 767 c 0,46,47
 665 767 665 767 674.5 773 c 128,-1,48
 684 779 684 779 697 799 c 1,49,-1
 726 799 l 1,0,-1
EndSplineSet
EndChar

StartChar: t
Encoding: 116 116 78
Width: 482
Flags: W
LayerCount: 2
Fore
SplineSet
499 1032 m 1,0,-1
 444 777 l 1,1,-1
 625 777 l 1,2,-1
 613 718 l 1,3,-1
 431 718 l 1,4,-1
 324 214 l 2,5,6
 308 138 308 138 324.5 112 c 128,-1,7
 341 86 341 86 375 86 c 0,8,9
 403 86 403 86 433 103.5 c 128,-1,10
 463 121 463 121 484 155 c 1,11,-1
 518 155 l 1,12,13
 471 71 471 71 407 29 c 128,-1,14
 343 -13 343 -13 286 -13 c 0,15,16
 247 -13 247 -13 214.5 9 c 128,-1,17
 182 31 182 31 172.5 71 c 128,-1,18
 163 111 163 111 181 195 c 2,19,-1
 291 718 l 1,20,-1
 169 718 l 1,21,-1
 175 745 l 1,22,23
 226 764 226 764 284 808.5 c 128,-1,24
 342 853 342 853 393 914 c 0,25,26
 419 947 419 947 473 1032 c 1,27,-1
 499 1032 l 1,0,-1
EndSplineSet
EndChar

StartChar: u
Encoding: 117 117 79
Width: 868
Flags: W
LayerCount: 2
Fore
SplineSet
900 777 m 1,0,-1
 800 306 l 2,1,2
 772 172 772 172 772 141.5 c 128,-1,3
 772 111 772 111 783 99 c 128,-1,4
 794 87 794 87 813 87 c 0,5,6
 838 87 838 87 876 102 c 1,7,-1
 881 72 l 1,8,-1
 629 -23 l 1,9,-1
 590 -23 l 1,10,-1
 625 141 l 1,11,12
 501 32 501 32 443 4.5 c 128,-1,13
 385 -23 385 -23 326 -23 c 0,14,15
 261 -23 261 -23 221 14.5 c 128,-1,16
 181 52 181 52 175.5 111.5 c 128,-1,17
 170 171 170 171 192 279 c 2,18,-1
 266 625 l 2,19,20
 278 681 278 681 270 702 c 128,-1,21
 262 723 262 723 241 734.5 c 128,-1,22
 220 746 220 746 160 745 c 1,23,-1
 166 777 l 1,24,-1
 438 777 l 1,25,-1
 328 257 l 2,26,27
 304 148 304 148 335.5 114.5 c 128,-1,28
 367 81 367 81 420 81 c 0,29,30
 456 81 456 81 507.5 103.5 c 128,-1,31
 559 126 559 126 636 191 c 1,32,-1
 729 631 l 2,33,34
 743 697 743 697 724 720.5 c 128,-1,35
 705 744 705 744 629 745 c 1,36,-1
 635 777 l 1,37,-1
 900 777 l 1,0,-1
EndSplineSet
EndChar

StartChar: v
Encoding: 118 118 80
Width: 868
Flags: W
LayerCount: 2
Fore
SplineSet
179 777 m 1,0,-1
 544 777 l 1,1,-1
 537 745 l 1,2,-1
 514 745 l 2,3,4
 481 745 481 745 460.5 729 c 128,-1,5
 440 713 440 713 434 686 c 0,6,7
 427 656 427 656 437 616 c 2,8,-1
 526 187 l 1,9,-1
 801 632 l 2,10,11
 832 679 832 679 837 704 c 0,12,13
 840 715 840 715 833 723 c 0,14,15
 828 736 828 736 814 740.5 c 128,-1,16
 800 745 800 745 757 745 c 1,17,-1
 763 777 l 1,18,-1
 1017 777 l 1,19,-1
 1010 745 l 1,20,21
 965 742 965 742 944 727 c 0,22,23
 909 702 909 702 873 642 c 2,24,-1
 457 -23 l 1,25,-1
 422 -23 l 1,26,-1
 284 632 l 2,27,28
 275 677 275 677 262 697.5 c 128,-1,29
 249 718 249 718 226 731 c 0,30,31
 214 739 214 739 173 745 c 1,32,-1
 179 777 l 1,0,-1
EndSplineSet
EndChar

StartChar: w
Encoding: 119 119 81
Width: 1254
Flags: W
LayerCount: 2
Fore
SplineSet
175 777 m 1,0,-1
 501 777 l 1,1,-1
 495 745 l 1,2,3
 448 742 448 742 432 729.5 c 128,-1,4
 416 717 416 717 411 693 c 0,5,6
 405 667 405 667 411 630 c 2,7,-1
 482 182 l 1,8,-1
 727 546 l 1,9,-1
 707 660 l 2,10,11
 697 711 697 711 669 731 c 0,12,13
 653 743 653 743 602 745 c 1,14,-1
 608 777 l 1,15,-1
 978 777 l 1,16,-1
 972 745 l 1,17,18
 911 743 911 743 880 723 c 0,19,20
 861 710 861 710 854 681 c 0,21,22
 851 664 851 664 854 646 c 2,23,-1
 935 199 l 1,24,-1
 1191 630 l 2,25,26
 1218 675 1218 675 1223 702 c 0,27,28
 1227 719 1227 719 1213 731.5 c 128,-1,29
 1199 744 1199 744 1151 745 c 1,30,-1
 1158 777 l 1,31,-1
 1402 777 l 1,32,-1
 1396 745 l 1,33,34
 1320 735 1320 735 1267 646 c 2,35,-1
 865 -23 l 1,36,-1
 830 -23 l 1,37,-1
 741 473 l 1,38,-1
 409 -23 l 1,39,-1
 378 -23 l 1,40,-1
 267 630 l 2,41,42
 255 691 255 691 236 713 c 128,-1,43
 217 735 217 735 169 745 c 1,44,-1
 175 777 l 1,0,-1
EndSplineSet
EndChar

StartChar: x
Encoding: 120 120 82
Width: 868
Flags: W
LayerCount: 2
Fore
SplineSet
188 777 m 1,0,-1
 552 777 l 1,1,-1
 546 745 l 1,2,3
 512 745 512 745 495 733.5 c 128,-1,4
 478 722 478 722 474 702 c 256,5,6
 470 682 470 682 491 639 c 0,7,8
 497 625 497 625 510 597 c 2,9,-1
 547 509 l 1,10,-1
 629 597 l 2,11,12
 707 681 707 681 711 703 c 0,13,14
 715 721 715 721 703.5 733 c 128,-1,15
 692 745 692 745 660 745 c 1,16,-1
 667 777 l 1,17,-1
 930 777 l 1,18,-1
 923 745 l 1,19,20
 881 743 881 743 846 723 c 0,21,22
 798 693 798 693 705 597 c 2,23,-1
 569 456 l 1,24,-1
 704 177 l 2,25,26
 753 74 753 74 779.5 53.5 c 128,-1,27
 806 33 806 33 853 31 c 1,28,-1
 847 0 l 1,29,-1
 481 0 l 1,30,-1
 488 31 l 1,31,32
 526 31 526 31 550 48 c 0,33,34
 568 59 568 59 572 78 c 0,35,36
 577 99 577 99 540 177 c 2,37,-1
 460 343 l 1,38,-1
 301 177 l 2,39,40
 226 100 226 100 224 86 c 0,41,42
 219 66 219 66 234.5 49 c 128,-1,43
 250 32 250 32 288 31 c 1,44,-1
 282 0 l 1,45,-1
 29 0 l 1,46,-1
 35 31 l 1,47,48
 67 35 67 35 93 52 c 0,49,50
 130 76 130 76 228 177 c 2,51,-1
 437 393 l 1,52,-1
 334 607 l 2,53,54
 291 699 291 699 261.5 722 c 128,-1,55
 232 745 232 745 181 745 c 1,56,-1
 188 777 l 1,0,-1
EndSplineSet
EndChar

StartChar: y
Encoding: 121 121 83
Width: 868
Flags: W
LayerCount: 2
Fore
SplineSet
175 777 m 1,0,-1
 536 777 l 1,1,-1
 530 745 l 1,2,-1
 512 745 l 2,3,4
 474 745 474 745 451 728.5 c 128,-1,5
 428 712 428 712 423 688 c 0,6,7
 417 655 417 655 432 596 c 2,8,-1
 538 205 l 1,9,-1
 803 634 l 2,10,11
 825 668 825 668 832 702 c 0,12,13
 835 718 835 718 831 725 c 0,14,15
 827 735 827 735 813.5 740 c 128,-1,16
 800 745 800 745 763 745 c 1,17,-1
 770 777 l 1,18,-1
 1023 777 l 1,19,-1
 1017 745 l 1,20,21
 984 742 984 742 965 732 c 128,-1,22
 946 722 946 722 920 693 c 0,23,24
 909 682 909 682 878 629 c 2,25,-1
 395 -146 l 2,26,27
 325 -260 325 -260 239 -317.5 c 128,-1,28
 153 -375 153 -375 84 -375 c 0,29,30
 34 -375 34 -375 8.5 -346 c 128,-1,31
 -17 -317 -17 -317 -10 -280 c 0,32,33
 -1 -244 -1 -244 26 -222.5 c 128,-1,34
 53 -201 53 -201 94 -201 c 0,35,36
 122 -201 122 -201 167 -219 c 0,37,38
 198 -232 198 -232 207 -232 c 0,39,40
 232 -232 232 -232 267 -206 c 128,-1,41
 302 -180 302 -180 350 -104 c 2,42,-1
 434 31 l 1,43,-1
 279 617 l 2,44,45
 271 642 271 642 252 682 c 0,46,47
 237 711 237 711 226 722 c 0,48,49
 209 736 209 736 169 745 c 1,50,-1
 175 777 l 1,0,-1
EndSplineSet
EndChar

StartChar: z
Encoding: 122 122 84
Width: 771
Flags: W
LayerCount: 2
Fore
SplineSet
779 238 m 1,0,-1
 720 0 l 1,1,-1
 35 0 l 1,2,-1
 41 31 l 1,3,-1
 702 718 l 1,4,-1
 447 718 l 2,5,6
 366 718 366 718 338.5 707 c 128,-1,7
 311 696 311 696 287 667 c 0,8,9
 257 624 257 624 240 562 c 1,10,-1
 206 562 l 1,11,-1
 255 777 l 1,12,-1
 907 777 l 1,13,-1
 901 745 l 1,14,-1
 234 57 l 1,15,-1
 517 57 l 2,16,17
 606 57 606 57 641 72 c 128,-1,18
 676 87 676 87 703 124 c 0,19,20
 723 151 723 151 750 238 c 1,21,-1
 779 238 l 1,0,-1
EndSplineSet
EndChar

StartChar: braceleft
Encoding: 123 123 85
Width: 833
Flags: W
LayerCount: 2
Fore
SplineSet
639 -346 m 1,0,-1
 633 -375 l 1,1,2
 495 -355 495 -355 427 -259.5 c 128,-1,3
 359 -164 359 -164 384 -49 c 0,4,5
 396 13 396 13 433.5 94 c 128,-1,6
 471 175 471 175 479 219 c 0,7,8
 493 281 493 281 452.5 334 c 128,-1,9
 412 387 412 387 323 399 c 1,10,-1
 331 434 l 1,11,12
 425 445 425 445 487.5 497.5 c 128,-1,13
 550 550 550 550 563 613 c 0,14,15
 572 657 572 657 570 737.5 c 128,-1,16
 568 818 568 818 581 880 c 0,17,18
 605 995 605 995 714.5 1091 c 128,-1,19
 824 1187 824 1187 969 1206 c 1,20,-1
 962 1177 l 1,21,22
 859 1152 859 1152 801 1098.5 c 128,-1,23
 743 1045 743 1045 729 980 c 0,24,25
 719 931 719 931 720.5 848.5 c 128,-1,26
 722 766 722 766 710 709 c 0,27,28
 691 623 691 623 611.5 542.5 c 128,-1,29
 532 462 532 462 397 418 c 1,30,31
 510 373 510 373 556.5 291 c 128,-1,32
 603 209 603 209 585 123 c 0,33,34
 573 66 573 66 536.5 -16.5 c 128,-1,35
 500 -99 500 -99 490 -148 c 0,36,37
 476 -213 476 -213 510.5 -266.5 c 128,-1,38
 545 -320 545 -320 639 -346 c 1,0,-1
EndSplineSet
EndChar

StartChar: bar
Encoding: 124 124 86
Width: 348
Flags: W
LayerCount: 2
Fore
SplineSet
462 1206 m 1,0,-1
 126 -375 l 1,1,-1
 56 -375 l 1,2,-1
 392 1206 l 1,3,-1
 462 1206 l 1,0,-1
EndSplineSet
EndChar

StartChar: asciitilde
Encoding: 126 126 87
Width: 939
Flags: W
LayerCount: 2
Fore
SplineSet
1005 572 m 1,0,-1
 1043 572 l 1,1,2
 1015 462 1015 462 942.5 399.5 c 128,-1,3
 870 337 870 337 785 337 c 0,4,5
 746 337 746 337 703.5 350.5 c 128,-1,6
 661 364 661 364 491 440 c 0,7,8
 372 494 372 494 317 494 c 0,9,10
 258 494 258 494 209 458 c 128,-1,11
 160 422 160 422 126 339 c 1,12,-1
 89 339 l 1,13,14
 118 454 118 454 189 514.5 c 128,-1,15
 260 575 260 575 337 575 c 0,16,17
 374 575 374 575 410 563 c 0,18,19
 493 537 493 537 624.5 475.5 c 128,-1,20
 756 414 756 414 814 414 c 0,21,22
 878 414 878 414 929 455 c 128,-1,23
 980 496 980 496 1005 572 c 1,0,-1
EndSplineSet
EndChar

StartChar: ccedilla
Encoding: 231 231 90
Width: 805
Flags: W
LayerCount: 2
Fore
SplineSet
775 198 m 1,0,-1
 764 142 l 1,1,2
 616 37 616 37 445 -9 c 1,3,-1
 408 -65 l 1,4,5
 481 -86 481 -86 481 -146 c 0,6,7
 481 -197 481 -197 424.5 -240.5 c 128,-1,8
 368 -284 368 -284 301 -284 c 0,9,10
 272 -284 272 -284 232 -277 c 1,11,-1
 287 -201 l 1,12,13
 322 -223 322 -223 348 -223 c 0,14,15
 412 -223 412 -223 412 -172 c 0,16,17
 412 -117 412 -117 311 -111 c 1,18,-1
 376 -19 l 1,19,20
 145 5 145 5 145 228 c 0,21,22
 145 445 145 445 302 622 c 128,-1,23
 459 799 459 799 652 799 c 0,24,25
 736 799 736 799 819 762 c 1,26,-1
 770 578 l 1,27,-1
 725 578 l 1,28,-1
 728 589 l 2,29,30
 735 622 735 622 735 638 c 0,31,32
 735 737 735 737 599 737 c 0,33,34
 475 737 475 737 382.5 595 c 128,-1,35
 290 453 290 453 290 263 c 0,36,37
 290 62 290 62 446 62 c 0,38,39
 563 62 563 62 775 198 c 1,0,-1
EndSplineSet
EndChar

StartChar: icircumflex
Encoding: 238 238 95
Width: 468
Flags: W
LayerCount: 2
Fore
SplineSet
328 0 m 1,0,-1
 140 0 l 1,1,-1
 140 1117 l 1,2,-1
 328 1117 l 1,3,-1
 328 0 l 1,0,-1
521 1297 m 1,4,-1
 370 1297 l 1,5,-1
 231 1560 l 1,6,-1
 93 1297 l 1,7,-1
 -54 1297 l 1,8,-1
 120 1676 l 1,9,-1
 347 1676 l 1,10,-1
 521 1297 l 1,4,-1
EndSplineSet
EndChar

StartChar: idieresis
Encoding: 239 239 96
Width: 468
Flags: W
LayerCount: 2
Fore
SplineSet
328 0 m 1,0,-1
 140 0 l 1,1,-1
 140 1117 l 1,2,-1
 328 1117 l 1,3,-1
 328 0 l 1,0,-1
506 1304 m 1,4,-1
 317 1304 l 1,5,-1
 317 1499 l 1,6,-1
 506 1499 l 1,7,-1
 506 1304 l 1,4,-1
151 1304 m 1,8,-1
 -38 1304 l 1,9,-1
 -38 1499 l 1,10,-1
 151 1499 l 1,11,-1
 151 1304 l 1,8,-1
EndSplineSet
EndChar

StartChar: dagger
Encoding: 8224 8224 101
Width: 932
Flags: W
LayerCount: 2
Fore
SplineSet
347 -231 m 1,0,-1
 567 622 l 1,1,-1
 248 592 l 1,2,-1
 297 700 l 1,3,-1
 576 668 l 1,4,-1
 607 1066 l 1,5,-1
 755 1093 l 1,6,-1
 621 668 l 1,7,-1
 941 700 l 1,8,-1
 895 592 l 1,9,-1
 612 622 l 1,10,-1
 496 -213 l 1,11,-1
 347 -231 l 1,0,-1
EndSplineSet
EndChar

StartChar: degree
Encoding: 176 176 102
Width: 409
Flags: W
LayerCount: 2
Fore
SplineSet
395 844 m 0,0,1
 344 844 344 844 307.5 880 c 128,-1,2
 271 916 271 916 271 968 c 0,3,4
 271 1021 271 1021 307.5 1057 c 128,-1,5
 344 1093 344 1093 395 1093 c 0,6,7
 447 1093 447 1093 483 1057 c 128,-1,8
 519 1021 519 1021 519 968 c 0,9,10
 519 916 519 916 483 880 c 128,-1,11
 447 844 447 844 395 844 c 0,0,1
395 888 m 256,12,13
 427 888 427 888 450.5 912 c 128,-1,14
 474 936 474 936 474 968 c 256,15,16
 474 1000 474 1000 450.5 1024 c 128,-1,17
 427 1048 427 1048 395 1048 c 256,18,19
 363 1048 363 1048 339 1024 c 128,-1,20
 315 1000 315 1000 315 968 c 256,21,22
 315 936 315 936 339 912 c 128,-1,23
 363 888 363 888 395 888 c 256,12,13
EndSplineSet
EndChar

StartChar: cent
Encoding: 162 162 103
Width: 693
Flags: W
LayerCount: 2
Fore
SplineSet
365 -18 m 1,0,-1
 404 176 l 1,1,2
 142 195 142 195 142 355 c 0,3,4
 142 459 142 459 242 534.5 c 128,-1,5
 342 610 342 610 492 622 c 1,6,-1
 527 799 l 1,7,-1
 572 799 l 1,8,-1
 537 622 l 1,9,10
 637 617 637 617 715 601 c 1,11,-1
 689 471 l 1,12,-1
 644 471 l 1,13,14
 644 477 644 477 645 488 c 0,15,16
 648 509 648 509 648 517 c 0,17,18
 648 572 648 572 528 578 c 1,19,-1
 459 229 l 1,20,21
 567 229 567 229 661 280 c 1,22,-1
 650 229 l 1,23,24
 544 176 544 176 448 176 c 1,25,-1
 409 -18 l 1,26,-1
 365 -18 l 1,0,-1
415 232 m 1,27,-1
 484 578 l 1,28,29
 272 547 272 547 272 383 c 0,30,31
 272 255 272 255 415 232 c 1,27,-1
EndSplineSet
EndChar

StartChar: sterling
Encoding: 163 163 104
Width: 874
Flags: W
LayerCount: 2
Fore
SplineSet
17 0 m 1,0,-1
 109 88 l 1,1,-1
 122 88 l 2,2,3
 229 88 229 88 272.5 136.5 c 128,-1,4
 316 185 316 185 347 343 c 2,5,-1
 356 391 l 1,6,-1
 196 391 l 1,7,-1
 205 436 l 1,8,-1
 365 436 l 1,9,-1
 378 499 l 2,10,11
 407 642 407 642 496.5 721 c 128,-1,12
 586 800 586 800 718 800 c 0,13,14
 797 800 797 800 892 765 c 1,15,-1
 858 586 l 1,16,-1
 808 586 l 1,17,-1
 810 598 l 2,18,19
 812 608 812 608 812 620 c 0,20,21
 812 746 812 746 679 746 c 0,22,23
 614 746 614 746 584.5 710 c 128,-1,24
 555 674 555 674 535 569 c 2,25,-1
 508 436 l 1,26,-1
 748 436 l 1,27,-1
 739 391 l 1,28,-1
 499 391 l 1,29,-1
 492 359 l 2,30,31
 473 265 473 265 427.5 208 c 128,-1,32
 382 151 382 151 275 88 c 1,33,-1
 480 88 l 2,34,35
 617 88 617 88 679 102.5 c 128,-1,36
 741 117 741 117 819 167 c 1,37,-1
 808 113 l 1,38,39
 735 35 735 35 665.5 7.5 c 128,-1,40
 596 -20 596 -20 470 -20 c 1,41,-1
 442 -19 l 1,42,-1
 17 0 l 1,0,-1
EndSplineSet
EndChar

StartChar: section
Encoding: 167 167 105
Width: 932
Flags: W
LayerCount: 2
Fore
SplineSet
107 -153 m 1,0,-1
 232 -80 l 1,1,2
 348 -178 348 -178 481 -178 c 0,3,4
 564 -178 564 -178 621.5 -127.5 c 128,-1,5
 679 -77 679 -77 679 -5 c 0,6,7
 679 48 679 48 645.5 80.5 c 128,-1,8
 612 113 612 113 513 160 c 2,9,-1
 440 193 l 2,10,11
 247 283 247 283 247 409 c 0,12,13
 247 528 247 528 409 652 c 1,14,15
 328 717 328 717 328 815 c 0,16,17
 328 938 328 938 440 1015.5 c 128,-1,18
 552 1093 552 1093 727 1093 c 0,19,20
 814 1093 814 1093 933 1060 c 1,21,-1
 897 879 l 1,22,-1
 853 879 l 1,23,24
 857 904 857 904 857 916 c 0,25,26
 857 1039 857 1039 652 1039 c 0,27,28
 560 1039 560 1039 500.5 987 c 128,-1,29
 441 935 441 935 441 853 c 0,30,31
 441 798 441 798 466 774.5 c 128,-1,32
 491 751 491 751 613 686 c 2,33,-1
 674 652 l 2,34,35
 854 553 854 553 854 444 c 0,36,37
 854 319 854 319 703 200 c 1,38,39
 801 136 801 136 801 40 c 0,40,41
 801 -75 801 -75 684.5 -153 c 128,-1,42
 568 -231 568 -231 397 -231 c 0,43,44
 244 -231 244 -231 107 -153 c 1,0,-1
667 229 m 1,45,46
 747 319 747 319 747 394 c 0,47,48
 747 470 747 470 628 527 c 2,49,-1
 558 562 l 2,50,51
 495 593 495 593 445 625 c 1,52,53
 355 545 355 545 355 456 c 0,54,55
 355 382 355 382 474 326 c 2,56,-1
 571 279 l 2,57,58
 607 263 607 263 667 229 c 1,45,46
EndSplineSet
EndChar

StartChar: bullet
Encoding: 8226 8226 106
Width: 931
Flags: W
LayerCount: 2
Fore
SplineSet
817 662 m 256,0,1
 817 517 817 517 713.5 414 c 128,-1,2
 610 311 610 311 465 311 c 256,3,4
 320 311 320 311 217 414 c 128,-1,5
 114 517 114 517 114 662 c 256,6,7
 114 807 114 807 217 910 c 128,-1,8
 320 1013 320 1013 465 1013 c 256,9,10
 610 1013 610 1013 713.5 910 c 128,-1,11
 817 807 817 807 817 662 c 256,0,1
EndSplineSet
EndChar

StartChar: paragraph
Encoding: 182 182 107
Width: 932
Flags: W
LayerCount: 2
Fore
SplineSet
365 -239 m 1,0,-1
 511 496 l 1,1,2
 241 542 241 542 241 747 c 0,3,4
 241 876 241 876 346.5 968 c 128,-1,5
 452 1060 452 1060 628 1085 c 1,6,-1
 660 1244 l 1,7,-1
 704 1244 l 1,8,-1
 673 1085 l 1,9,-1
 703 1086 l 2,10,11
 744 1086 744 1086 796 1080 c 1,12,-1
 828 1244 l 1,13,-1
 873 1244 l 1,14,-1
 839 1071 l 1,15,16
 891 1057 891 1057 948 1036 c 1,17,-1
 938 988 l 1,18,19
 898 1005 898 1005 830 1024 c 1,20,-1
 742 586 l 1,21,22
 794 603 794 603 869 643 c 1,23,-1
 859 586 l 1,24,25
 794 549 794 549 732 530 c 1,26,-1
 578 -239 l 1,27,-1
 534 -239 l 1,28,-1
 684 514 l 1,29,30
 597 496 597 496 556 496 c 1,31,-1
 409 -239 l 1,32,-1
 365 -239 l 1,0,-1
695 568 m 1,33,-1
 787 1031 l 1,34,35
 738 1040 738 1040 704 1040 c 0,36,37
 691 1040 691 1040 664 1039 c 1,38,-1
 567 553 l 1,39,40
 625 553 625 553 695 568 c 1,33,-1
EndSplineSet
EndChar

StartChar: registered
Encoding: 174 174 108
Width: 897
Flags: W
LayerCount: 2
Fore
SplineSet
580 445 m 0,0,1
 448 445 448 445 354.5 538.5 c 128,-1,2
 261 632 261 632 261 764 c 256,3,4
 261 896 261 896 354.5 990 c 128,-1,5
 448 1084 448 1084 580 1084 c 0,6,7
 714 1084 714 1084 807 990 c 128,-1,8
 900 896 900 896 900 764 c 256,9,10
 900 632 900 632 806.5 538.5 c 128,-1,11
 713 445 713 445 580 445 c 0,0,1
580 484 m 0,12,13
 695 484 695 484 777.5 567 c 128,-1,14
 860 650 860 650 860 764 c 256,15,16
 860 878 860 878 777.5 961 c 128,-1,17
 695 1044 695 1044 580 1044 c 0,18,19
 466 1044 466 1044 383.5 961 c 128,-1,20
 301 878 301 878 301 764 c 256,21,22
 301 650 301 650 383.5 567 c 128,-1,23
 466 484 466 484 580 484 c 0,12,13
529 737 m 1,24,-1
 501 596 l 1,25,-1
 394 596 l 1,26,-1
 403 639 l 1,27,-1
 456 639 l 1,28,-1
 511 915 l 1,29,-1
 458 915 l 1,30,-1
 466 959 l 1,31,-1
 598 959 l 2,32,33
 751 959 751 959 751 875 c 0,34,35
 751 800 751 800 650 750 c 1,36,-1
 685 639 l 1,37,-1
 747 639 l 1,38,-1
 738 596 l 1,39,-1
 641 596 l 1,40,-1
 591 737 l 1,41,-1
 529 737 l 1,24,-1
538 782 m 1,42,-1
 574 782 l 2,43,44
 697 782 697 782 697 866 c 0,45,46
 697 915 697 915 607 915 c 2,47,-1
 564 915 l 1,48,-1
 538 782 l 1,42,-1
EndSplineSet
EndChar

StartChar: copyright
Encoding: 169 169 109
Width: 1244
Flags: W
LayerCount: 2
Fore
SplineSet
725 -27 m 0,0,1
 495 -27 495 -27 330.5 137 c 128,-1,2
 166 301 166 301 166 533 c 256,3,4
 166 765 166 765 330.5 929 c 128,-1,5
 495 1093 495 1093 725 1093 c 0,6,7
 958 1093 958 1093 1122 929 c 128,-1,8
 1286 765 1286 765 1286 533 c 256,9,10
 1286 301 1286 301 1122 137 c 128,-1,11
 958 -27 958 -27 725 -27 c 0,0,1
725 18 m 0,12,13
 939 18 939 18 1090 169 c 128,-1,14
 1241 320 1241 320 1241 533 c 256,15,16
 1241 746 1241 746 1090 897 c 128,-1,17
 939 1048 939 1048 725 1048 c 0,18,19
 513 1048 513 1048 362 897 c 128,-1,20
 211 746 211 746 211 533 c 256,21,22
 211 320 211 320 362 169 c 128,-1,23
 513 18 513 18 725 18 c 0,12,13
890 246 m 1,24,25
 785 213 785 213 704 213 c 0,26,27
 580 213 580 213 508 279.5 c 128,-1,28
 436 346 436 346 436 462 c 0,29,30
 436 625 436 625 541 734.5 c 128,-1,31
 646 844 646 844 805 844 c 0,32,33
 896 844 896 844 1003 814 c 1,34,-1
 967 675 l 1,35,-1
 915 684 l 1,36,-1
 923 766 l 1,37,38
 854 798 854 798 792 798 c 0,39,40
 688 798 688 798 616 700 c 128,-1,41
 544 602 544 602 544 462 c 0,42,43
 544 271 544 271 722 271 c 0,44,45
 823 271 823 271 902 307 c 1,46,-1
 890 246 l 1,24,25
EndSplineSet
EndChar

StartChar: trademark
Encoding: 8482 8482 110
Width: 1333
Flags: W
LayerCount: 2
Fore
SplineSet
440 1021 m 1,0,-1
 307 1021 l 1,1,-1
 288 923 l 1,2,-1
 225 923 l 1,3,-1
 254 1066 l 1,4,-1
 751 1066 l 1,5,-1
 723 923 l 1,6,-1
 661 923 l 1,7,-1
 679 1021 l 1,8,-1
 546 1021 l 1,9,-1
 456 569 l 1,10,-1
 554 569 l 1,11,-1
 545 524 l 1,12,-1
 243 524 l 1,13,-1
 253 569 l 1,14,-1
 350 569 l 1,15,-1
 440 1021 l 1,0,-1
1011 569 m 1,16,-1
 942 956 l 1,17,-1
 857 524 l 1,18,-1
 688 524 l 1,19,-1
 697 569 l 1,20,-1
 794 569 l 1,21,-1
 884 1021 l 1,22,-1
 787 1021 l 1,23,-1
 796 1066 l 1,24,-1
 1036 1066 l 1,25,-1
 1092 747 l 1,26,-1
 1265 1066 l 1,27,-1
 1481 1066 l 1,28,-1
 1473 1021 l 1,29,-1
 1375 1021 l 1,30,-1
 1285 569 l 1,31,-1
 1383 569 l 1,32,-1
 1373 524 l 1,33,-1
 1178 524 l 1,34,-1
 1270 985 l 1,35,-1
 1041 569 l 1,36,-1
 1011 569 l 1,16,-1
EndSplineSet
EndChar

StartChar: acute
Encoding: 180 180 111
Width: 256
Flags: W
LayerCount: 2
Fore
SplineSet
118 999 m 1,0,1
 195 1083 195 1083 192 1046 c 1,2,3
 183 1014 183 1014 135.5 924 c 128,-1,4
 88 834 88 834 66 802 c 1,5,6
 55 796 55 796 62 848 c 1,7,8
 83 919 83 919 118 999 c 1,0,1
EndSplineSet
EndChar

StartChar: dieresis
Encoding: 168 168 112
Width: 862
Flags: W
LayerCount: 2
Fore
SplineSet
495 923 m 1,0,-1
 408 1033 l 1,1,-1
 520 1119 l 1,2,-1
 607 1003 l 1,3,-1
 495 923 l 1,0,-1
841 923 m 1,4,-1
 752 1035 l 1,5,-1
 866 1119 l 1,6,-1
 951 1004 l 1,7,-1
 841 923 l 1,4,-1
EndSplineSet
EndChar

StartChar: plusminus
Encoding: 177 177 113
Width: 932
Flags: W
LayerCount: 2
Fore
SplineSet
76 0 m 1,0,-1
 92 80 l 1,1,-1
 873 80 l 1,2,-1
 858 0 l 1,3,-1
 76 0 l 1,0,-1
469 213 m 1,4,-1
 525 493 l 1,5,-1
 174 493 l 1,6,-1
 189 573 l 1,7,-1
 541 573 l 1,8,-1
 596 852 l 1,9,-1
 676 852 l 1,10,-1
 621 573 l 1,11,-1
 971 573 l 1,12,-1
 956 493 l 1,13,-1
 605 493 l 1,14,-1
 549 213 l 1,15,-1
 469 213 l 1,4,-1
EndSplineSet
EndChar

StartChar: yen
Encoding: 165 165 114
Width: 965
Flags: W
LayerCount: 2
Fore
SplineSet
156 0 m 1,0,-1
 247 99 l 1,1,2
 269 97 269 97 279 97 c 0,3,4
 415 97 415 97 477 257 c 1,5,-1
 272 257 l 1,6,-1
 280 301 l 1,7,-1
 489 301 l 1,8,9
 495 346 495 346 499 409 c 1,10,-1
 301 409 l 1,11,-1
 310 453 l 1,12,-1
 499 453 l 1,13,14
 499 465 499 465 499 470 c 0,15,16
 499 567 499 567 463.5 631 c 128,-1,17
 428 695 428 695 375 695 c 256,18,19
 322 695 322 695 250 638 c 128,-1,20
 178 581 178 581 139 509 c 1,21,-1
 106 534 l 1,22,23
 172 650 172 650 268.5 724.5 c 128,-1,24
 365 799 365 799 452 799 c 0,25,26
 612 799 612 799 612 518 c 1,27,-1
 611 472 l 1,28,29
 736 799 736 799 971 799 c 0,30,31
 1045 799 1045 799 1100 765 c 1,32,-1
 1016 653 l 1,33,34
 967 684 967 684 915 684 c 0,35,36
 742 684 742 684 651 453 c 1,37,-1
 835 453 l 1,38,-1
 826 409 l 1,39,-1
 643 409 l 1,40,-1
 634 369 l 2,41,42
 627 335 627 335 609 301 c 1,43,-1
 805 301 l 1,44,-1
 796 257 l 1,45,-1
 585 257 l 1,46,47
 519 138 519 138 389 91 c 1,48,-1
 624 77 l 1,49,-1
 534 -18 l 1,50,-1
 156 0 l 1,0,-1
EndSplineSet
EndChar

StartChar: mu1
Encoding: 181 181 115
Width: 992
Flags: W
LayerCount: 2
Fore
SplineSet
100 -302 m 1,0,-1
 155 -76 l 1,1,-1
 270 500 l 2,2,3
 282 560 282 560 282 611 c 0,4,5
 282 693 282 693 206 782 c 1,6,-1
 368 790 l 1,7,8
 427 740 427 740 427 623 c 0,9,10
 427 576 427 576 409 481 c 2,11,-1
 355 213 l 2,12,13
 347 176 347 176 347 161 c 0,14,15
 347 106 347 106 391 106 c 0,16,17
 446 106 446 106 553.5 229 c 128,-1,18
 661 352 661 352 753 519 c 1,19,-1
 805 782 l 1,20,-1
 958 790 l 1,21,-1
 905 569 l 1,22,-1
 834 213 l 2,23,24
 818 132 818 132 818 106 c 0,25,26
 818 53 818 53 861 53 c 0,27,28
 931 53 931 53 1075 218 c 1,29,-1
 1062 151 l 1,30,31
 905 -18 905 -18 779 -18 c 0,32,33
 675 -18 675 -18 675 91 c 0,34,35
 675 128 675 128 692 213 c 2,36,-1
 727 391 l 1,37,-1
 717 391 l 1,38,39
 517 0 517 0 312 0 c 1,40,-1
 255 -284 l 1,41,-1
 100 -302 l 1,0,-1
EndSplineSet
EndChar

StartChar: logicalnot
Encoding: 172 172 116
Width: 932
Flags: W
LayerCount: 2
Fore
SplineSet
177 510 m 1,0,-1
 193 590 l 1,1,-1
 975 590 l 1,2,-1
 906 248 l 1,3,-1
 814 248 l 1,4,-1
 866 510 l 1,5,-1
 177 510 l 1,0,-1
EndSplineSet
EndChar

StartChar: florin
Encoding: 402 402 117
Width: 679
Flags: W
LayerCount: 2
Fore
SplineSet
158 -231 m 1,0,-1
 210 -18 l 1,1,-1
 286 364 l 1,2,-1
 108 364 l 1,3,-1
 117 409 l 1,4,-1
 294 409 l 1,5,-1
 298 427 l 2,6,7
 330 586 330 586 463 692.5 c 128,-1,8
 596 799 596 799 761 799 c 0,9,10
 818 799 818 799 860 784 c 1,11,-1
 764 678 l 1,12,13
 712 729 712 729 643 729 c 0,14,15
 500 729 500 729 457 512 c 2,16,-1
 436 409 l 1,17,-1
 623 409 l 1,18,-1
 614 364 l 1,19,-1
 427 364 l 1,20,-1
 313 -213 l 1,21,-1
 158 -231 l 1,0,-1
EndSplineSet
EndChar

StartChar: ellipsis
Encoding: 8230 8230 118
Width: 1474
Flags: W
LayerCount: 2
Fore
SplineSet
178 0 m 1,0,-1
 206 142 l 1,1,-1
 348 142 l 1,2,-1
 319 0 l 1,3,-1
 178 0 l 1,0,-1
667 0 m 1,4,-1
 695 142 l 1,5,-1
 837 142 l 1,6,-1
 808 0 l 1,7,-1
 667 0 l 1,4,-1
1155 0 m 1,8,-1
 1183 142 l 1,9,-1
 1326 142 l 1,10,-1
 1297 0 l 1,11,-1
 1155 0 l 1,8,-1
EndSplineSet
EndChar

StartChar: OE
Encoding: 338 338 119
Width: 1477
Flags: W
LayerCount: 2
Fore
SplineSet
816 0 m 1,0,-1
 831 70 l 1,1,2
 711 -27 711 -27 549 -27 c 0,3,4
 371 -27 371 -27 269 81 c 128,-1,5
 167 189 167 189 167 378 c 0,6,7
 167 661 167 661 358 877 c 128,-1,8
 549 1093 549 1093 799 1093 c 0,9,10
 931 1093 931 1093 1017 1007 c 1,11,-1
 1029 1066 l 1,12,-1
 1593 1066 l 1,13,-1
 1529 862 l 1,14,-1
 1484 862 l 1,15,16
 1490 891 1490 891 1490 913 c 0,17,18
 1490 969 1490 969 1424.5 990.5 c 128,-1,19
 1359 1012 1359 1012 1187 1012 c 2,20,-1
 1165 1012 l 1,21,-1
 1082 586 l 1,22,-1
 1402 586 l 1,23,-1
 1329 512 l 1,24,25
 1165 533 1165 533 1107 533 c 2,26,-1
 1071 533 l 1,27,-1
 1012 218 l 2,28,29
 1002 167 1002 167 1002 156 c 0,30,31
 1002 80 1002 80 1228 80 c 0,32,33
 1348 80 1348 80 1453 160 c 1,34,-1
 1442 103 l 1,35,36
 1318 -23 1318 -23 1203 -23 c 0,37,38
 1183 -23 1183 -23 1161 -21 c 2,39,-1
 816 0 l 1,0,-1
888 361 m 2,40,-1
 961 723 l 2,41,42
 974 786 974 786 974 841 c 0,43,44
 974 933 974 933 916.5 990.5 c 128,-1,45
 859 1048 859 1048 769 1048 c 0,46,47
 604 1048 604 1048 466.5 844 c 128,-1,48
 329 640 329 640 329 395 c 0,49,50
 329 218 329 218 396.5 117.5 c 128,-1,51
 464 17 464 17 585 17 c 0,52,53
 818 17 818 17 888 361 c 2,40,-1
EndSplineSet
EndChar

StartChar: oe
Encoding: 339 339 120
Width: 1350
Flags: W
LayerCount: 2
Fore
SplineSet
706 145 m 1,0,1
 535 -18 535 -18 370 -18 c 0,2,3
 273 -18 273 -18 209 55 c 128,-1,4
 145 128 145 128 145 237 c 0,5,6
 145 448 145 448 302.5 623.5 c 128,-1,7
 460 799 460 799 650 799 c 0,8,9
 794 799 794 799 859 630 c 1,10,11
 1025 799 1025 799 1183 799 c 0,12,13
 1246 799 1246 799 1286.5 758 c 128,-1,14
 1327 717 1327 717 1327 651 c 0,15,16
 1327 508 1327 508 1192.5 414 c 128,-1,17
 1058 320 1058 320 841 311 c 1,18,-1
 840 278 l 1,19,20
 840 66 840 66 998 66 c 0,21,22
 1113 66 1113 66 1327 200 c 1,23,-1
 1316 146 l 1,24,25
 1083 -18 1083 -18 917 -18 c 0,26,27
 758 -18 758 -18 706 145 c 1,0,1
431 35 m 0,28,29
 544 35 544 35 636 178.5 c 128,-1,30
 728 322 728 322 728 499 c 0,31,32
 728 607 728 607 689 672 c 128,-1,33
 650 737 650 737 584 737 c 0,34,35
 472 737 472 737 382 594 c 128,-1,36
 292 451 292 451 292 272 c 0,37,38
 292 35 292 35 431 35 c 0,28,29
844 355 m 1,39,40
 1004 368 1004 368 1097.5 438.5 c 128,-1,41
 1191 509 1191 509 1191 620 c 0,42,43
 1191 733 1191 733 1110 733 c 0,44,45
 1024 733 1024 733 941.5 616 c 128,-1,46
 859 499 859 499 844 355 c 1,39,40
EndSplineSet
EndChar

StartChar: endash
Encoding: 8211 8211 121
Width: 434
Flags: W
LayerCount: 2
Fore
SplineSet
434 154 m 1,0,-1
 0 154 l 1,1,-1
 0 234 l 1,2,-1
 434 234 l 1,3,-1
 434 154 l 1,0,-1
EndSplineSet
EndChar

StartChar: emdash
Encoding: 8212 8212 122
Width: 1862
Flags: W
LayerCount: 2
Fore
SplineSet
1866 572 m 1,0,-1
 -4 572 l 1,1,-1
 -4 732 l 1,2,-1
 1866 732 l 1,3,-1
 1866 572 l 1,0,-1
EndSplineSet
EndChar

StartChar: quotedblleft
Encoding: 8220 8220 123
Width: 662
Flags: W
LayerCount: 2
Fore
SplineSet
35 1182 m 1,0,1
 20 1167 20 1167 7 1150.5 c 128,-1,2
 -6 1134 -6 1134 -14.5 1115 c 128,-1,3
 -23 1096 -23 1096 -25.5 1074.5 c 128,-1,4
 -28 1053 -28 1053 -23 1028 c 0,5,6
 -17 999 -17 999 -1 965 c 128,-1,7
 15 931 15 931 23 893 c 0,8,9
 29 864 29 864 16 840.5 c 128,-1,10
 3 817 3 817 -26 817 c 0,11,12
 -50 817 -50 817 -67.5 825.5 c 128,-1,13
 -85 834 -85 834 -97.5 848.5 c 128,-1,14
 -110 863 -110 863 -118 882.5 c 128,-1,15
 -126 902 -126 902 -130 924 c 0,16,17
 -139 968 -139 968 -130 1009.5 c 128,-1,18
 -121 1051 -121 1051 -100 1087 c 128,-1,19
 -79 1123 -79 1123 -49 1152 c 128,-1,20
 -19 1181 -19 1181 14 1200 c 1,21,-1
 35 1182 l 1,0,1
317 1182 m 1,22,23
 302 1167 302 1167 289.5 1150.5 c 128,-1,24
 277 1134 277 1134 269 1115 c 128,-1,25
 261 1096 261 1096 259 1074.5 c 128,-1,26
 257 1053 257 1053 262 1028 c 0,27,28
 268 999 268 999 284 965 c 128,-1,29
 300 931 300 931 308 893 c 0,30,31
 314 864 314 864 300.5 840.5 c 128,-1,32
 287 817 287 817 258 817 c 0,33,34
 211 817 211 817 185.5 848.5 c 128,-1,35
 160 880 160 880 151 924 c 0,36,37
 142 967 142 967 151 1009 c 128,-1,38
 160 1051 160 1051 182 1087.5 c 128,-1,39
 204 1124 204 1124 234.5 1153 c 128,-1,40
 265 1182 265 1182 299 1200 c 1,41,-1
 317 1182 l 1,22,23
EndSplineSet
EndChar

StartChar: quotedblright
Encoding: 8221 8221 124
Width: 662
Flags: W
LayerCount: 2
Fore
SplineSet
202 819 m 1,0,1
 233 850 233 850 252 885 c 128,-1,2
 271 920 271 920 260 971 c 0,3,4
 254 1000 254 1000 238 1033 c 128,-1,5
 222 1066 222 1066 213 1108 c 0,6,7
 207 1137 207 1137 220.5 1160.5 c 128,-1,8
 234 1184 234 1184 260 1184 c 0,9,10
 285 1184 285 1184 303 1175.5 c 128,-1,11
 321 1167 321 1167 334 1152.5 c 128,-1,12
 347 1138 347 1138 355.5 1118.5 c 128,-1,13
 364 1099 364 1099 369 1077 c 0,14,15
 378 1032 378 1032 368.5 990.5 c 128,-1,16
 359 949 359 949 337 913 c 128,-1,17
 315 877 315 877 284 848 c 128,-1,18
 253 819 253 819 220 801 c 1,19,-1
 202 819 l 1,0,1
-82 819 m 1,20,21
 -51 850 -51 850 -33 885 c 128,-1,22
 -15 920 -15 920 -26 971 c 0,23,24
 -32 1000 -32 1000 -47 1033 c 128,-1,25
 -62 1066 -62 1066 -71 1108 c 0,26,27
 -77 1137 -77 1137 -64 1160.5 c 128,-1,28
 -51 1184 -51 1184 -22 1184 c 0,29,30
 2 1184 2 1184 20 1175.5 c 128,-1,31
 38 1167 38 1167 50.5 1152.5 c 128,-1,32
 63 1138 63 1138 71 1118.5 c 128,-1,33
 79 1099 79 1099 84 1077 c 0,34,35
 93 1032 93 1032 83.5 990 c 128,-1,36
 74 948 74 948 52.5 912 c 128,-1,37
 31 876 31 876 0 847.5 c 128,-1,38
 -31 819 -31 819 -64 801 c 1,39,-1
 -82 819 l 1,20,21
EndSplineSet
EndChar

StartChar: divide
Encoding: 247 247 125
Width: 1093
Flags: W
LayerCount: 2
Fore
SplineSet
480 674 m 1,0,-1
 322 674 l 1,1,-1
 284 855 l 1,2,-1
 442 855 l 1,3,-1
 480 674 l 1,0,-1
851 383 m 1,4,-1
 75 383 l 1,5,-1
 53 489 l 1,6,-1
 829 489 l 1,7,-1
 851 383 l 1,4,-1
620 17 m 1,8,-1
 462 17 l 1,9,-1
 423 198 l 1,10,-1
 581 198 l 1,11,-1
 620 17 l 1,8,-1
EndSplineSet
EndChar

StartChar: lozenge
Encoding: 9674 9674 126
Width: 1118
Flags: W
LayerCount: 2
Fore
SplineSet
854 699 m 1,0,-1
 518 197 l 1,1,-1
 -31 699 l 1,2,-1
 304 1202 l 1,3,-1
 854 699 l 1,0,-1
699 699 m 1,4,-1
 339 1036 l 1,5,-1
 122 699 l 1,6,-1
 482 364 l 1,7,-1
 699 699 l 1,4,-1
EndSplineSet
EndChar

StartChar: Euro
Encoding: 8364 8364 128
Width: 812
Flags: W
LayerCount: 2
Fore
SplineSet
210 464 m 1,0,1
 252 596 252 596 371.5 697.5 c 128,-1,2
 491 799 491 799 674 799 c 0,3,4
 773 799 773 799 885 769 c 1,5,-1
 845 624 l 1,6,-1
 795 624 l 1,7,8
 801 653 801 653 801 665 c 0,9,10
 801 701 801 701 757 726 c 128,-1,11
 713 751 713 751 649 751 c 0,12,13
 445 751 445 751 349 464 c 1,14,-1
 686 464 l 1,15,-1
 677 420 l 1,16,-1
 337 420 l 2,17,18
 335 418 335 418 332 404 c 2,19,-1
 325 365 l 1,20,-1
 325 360 l 1,21,-1
 665 360 l 1,22,-1
 656 315 l 1,23,-1
 319 315 l 1,24,-1
 319 289 l 2,25,26
 319 178 319 178 370 115.5 c 128,-1,27
 421 53 421 53 512 53 c 0,28,29
 636 53 636 53 765 135 c 1,30,-1
 755 72 l 1,31,32
 604 -18 604 -18 459 -18 c 0,33,34
 324 -18 324 -18 249.5 59 c 128,-1,35
 175 136 175 136 175 274 c 0,36,37
 175 300 175 300 175 315 c 1,38,-1
 111 315 l 1,39,-1
 120 360 l 1,40,-1
 182 360 l 1,41,-1
 182 364 l 1,42,43
 189 401 189 401 194 420 c 1,44,-1
 118 420 l 1,45,-1
 127 464 l 1,46,-1
 210 464 l 1,0,1
EndSplineSet
EndChar

StartChar: guilsinglleft
Encoding: 8249 8249 129
Width: 560
Flags: W
LayerCount: 2
Fore
SplineSet
375 71 m 1,0,1
 304 237 304 237 167 391 c 1,2,3
 358 507 358 507 437 653 c 1,4,-1
 587 711 l 1,5,6
 536 589 536 589 315 441 c 1,7,8
 423 310 423 310 499 138 c 1,9,-1
 375 71 l 1,0,1
EndSplineSet
EndChar

StartChar: guilsinglright
Encoding: 8250 8250 130
Width: 560
Flags: W
LayerCount: 2
Fore
SplineSet
339 711 m 1,0,1
 410 545 410 545 546 391 c 1,2,3
 356 275 356 275 276 128 c 1,4,-1
 128 71 l 1,5,6
 178 193 178 193 400 341 c 1,7,8
 293 470 293 470 215 643 c 1,9,-1
 339 711 l 1,0,1
EndSplineSet
EndChar

StartChar: daggerdbl
Encoding: 8225 8225 133
Width: 932
Flags: W
LayerCount: 2
Fore
SplineSet
349 -231 m 1,0,-1
 481 185 l 1,1,-1
 161 154 l 1,2,-1
 211 261 l 1,3,-1
 490 229 l 1,4,-1
 567 616 l 1,5,-1
 247 586 l 1,6,-1
 297 693 l 1,7,-1
 575 661 l 1,8,-1
 608 1066 l 1,9,-1
 758 1093 l 1,10,-1
 620 661 l 1,11,-1
 940 693 l 1,12,-1
 889 586 l 1,13,-1
 611 616 l 1,14,-1
 535 229 l 1,15,-1
 855 261 l 1,16,-1
 804 154 l 1,17,-1
 525 185 l 1,18,-1
 499 -213 l 1,19,-1
 349 -231 l 1,0,-1
EndSplineSet
EndChar

StartChar: middot.001
Encoding: 8729 8729 134
Width: 620
Flags: W
LayerCount: 2
Fore
SplineSet
319 516 m 1,0,-1
 80 516 l 1,1,-1
 22 789 l 1,2,-1
 261 789 l 1,3,-1
 319 516 l 1,0,-1
EndSplineSet
EndChar

StartChar: quotesinglbase
Encoding: 8218 8218 135
Width: 418
Flags: W
LayerCount: 2
Fore
SplineSet
75 128 m 1,0,-1
 197 231 l 1,1,-1
 333 90 l 1,2,3
 356 -56 356 -56 290.5 -134.5 c 128,-1,4
 225 -213 225 -213 81 -213 c 1,5,-1
 111 -168 l 1,6,7
 222 -158 222 -158 214 -18 c 1,8,-1
 75 128 l 1,0,-1
EndSplineSet
EndChar

StartChar: quotedblbase
Encoding: 8222 8222 136
Width: 684
Flags: W
LayerCount: 2
Fore
SplineSet
91 92 m 1,0,-1
 204 178 l 1,1,-1
 292 64 l 1,2,3
 270 -213 270 -213 31 -213 c 1,4,-1
 60 -168 l 1,5,6
 166 -148 166 -148 179 -16 c 1,7,-1
 91 92 l 1,0,-1
401 92 m 1,8,-1
 516 178 l 1,9,-1
 602 64 l 1,10,11
 581 -213 581 -213 341 -213 c 1,12,-1
 372 -168 l 1,13,14
 476 -148 476 -148 490 -16 c 1,15,-1
 401 92 l 1,8,-1
EndSplineSet
EndChar

StartChar: perthousand
Encoding: 8240 8240 137
Width: 1571
Flags: W
LayerCount: 2
Fore
SplineSet
385 533 m 0,0,1
 304 533 304 533 254.5 584.5 c 128,-1,2
 205 636 205 636 205 722 c 0,3,4
 205 865 205 865 286.5 965.5 c 128,-1,5
 368 1066 368 1066 483 1066 c 0,6,7
 567 1066 567 1066 617.5 1014.5 c 128,-1,8
 668 963 668 963 668 877 c 0,9,10
 668 733 668 733 585.5 633 c 128,-1,11
 503 533 503 533 385 533 c 0,0,1
311 715 m 0,12,13
 311 578 311 578 398 578 c 0,14,15
 463 578 463 578 517 671.5 c 128,-1,16
 571 765 571 765 571 881 c 0,17,18
 571 1022 571 1022 483 1022 c 0,19,20
 416 1022 416 1022 363.5 928 c 128,-1,21
 311 834 311 834 311 715 c 0,12,13
850 0 m 0,22,23
 769 0 769 0 719.5 51.5 c 128,-1,24
 670 103 670 103 670 189 c 0,25,26
 670 331 670 331 751 432 c 128,-1,27
 832 533 832 533 947 533 c 0,28,29
 1031 533 1031 533 1081.5 481.5 c 128,-1,30
 1132 430 1132 430 1132 344 c 0,31,32
 1132 200 1132 200 1049.5 100 c 128,-1,33
 967 0 967 0 850 0 c 0,22,23
776 182 m 0,34,35
 776 44 776 44 862 44 c 0,36,37
 929 44 929 44 982 138 c 128,-1,38
 1035 232 1035 232 1035 348 c 0,39,40
 1035 490 1035 490 948 490 c 0,41,42
 880 490 880 490 828 395.5 c 128,-1,43
 776 301 776 301 776 182 c 0,34,35
131 -27 m 1,44,-1
 1111 1093 l 1,45,-1
 1206 1093 l 1,46,-1
 225 -27 l 1,47,-1
 131 -27 l 1,44,-1
1376 0 m 0,48,49
 1294 0 1294 0 1244.5 51.5 c 128,-1,50
 1195 103 1195 103 1195 189 c 0,51,52
 1195 331 1195 331 1276.5 432 c 128,-1,53
 1358 533 1358 533 1473 533 c 0,54,55
 1557 533 1557 533 1607.5 481.5 c 128,-1,56
 1658 430 1658 430 1658 344 c 0,57,58
 1658 200 1658 200 1575.5 100 c 128,-1,59
 1493 0 1493 0 1376 0 c 0,48,49
1301 183 m 0,60,61
 1301 44 1301 44 1389 44 c 0,62,63
 1453 44 1453 44 1507 138 c 128,-1,64
 1561 232 1561 232 1561 347 c 0,65,66
 1561 490 1561 490 1473 490 c 0,67,68
 1406 490 1406 490 1353.5 395.5 c 128,-1,69
 1301 301 1301 301 1301 183 c 0,60,61
EndSplineSet
EndChar

StartChar: circumflex
Encoding: 710 710 139
Width: 862
Flags: W
LayerCount: 2
Fore
SplineSet
870 976 m 1,0,-1
 783 923 l 1,1,2
 729 984 729 984 693 1082 c 1,3,4
 652 1032 652 1032 574 953 c 0,5,6
 571 949 571 949 553 931 c 1,7,-1
 452 923 l 1,8,9
 607 1037 607 1037 674 1120 c 1,10,-1
 772 1182 l 1,11,12
 805 1069 805 1069 870 976 c 1,0,-1
EndSplineSet
EndChar

StartChar: cedilla
Encoding: 184 184 140
Width: 862
Flags: W
LayerCount: 2
Fore
SplineSet
456 0 m 1,0,-1
 414 -64 l 1,1,2
 485 -86 485 -86 485 -147 c 0,3,4
 485 -198 485 -198 428.5 -241 c 128,-1,5
 372 -284 372 -284 303 -284 c 0,6,7
 272 -284 272 -284 237 -277 c 1,8,-1
 292 -201 l 1,9,10
 326 -223 326 -223 352 -223 c 0,11,12
 416 -223 416 -223 416 -171 c 0,13,14
 416 -112 416 -112 318 -112 c 1,15,-1
 394 0 l 1,16,-1
 456 0 l 1,0,-1
EndSplineSet
EndChar

StartChar: brokenbar
Encoding: 166 166 141
Width: 355
Flags: W
LayerCount: 2
Fore
SplineSet
86 -213 m 1,0,-1
 203 373 l 1,1,-1
 301 373 l 1,2,-1
 184 -213 l 1,3,-1
 86 -213 l 1,0,-1
238 551 m 1,4,-1
 355 1137 l 1,5,-1
 453 1137 l 1,6,-1
 337 551 l 1,7,-1
 238 551 l 1,4,-1
EndSplineSet
EndChar

StartChar: minus
Encoding: 8722 8722 142
Width: 1490
Flags: W
LayerCount: 2
Fore
SplineSet
1186 572 m 1,0,-1
 60 572 l 1,1,-1
 26 732 l 1,2,-1
 1152 732 l 1,3,-1
 1186 572 l 1,0,-1
EndSplineSet
EndChar

StartChar: multiply
Encoding: 215 215 143
Width: 856
Flags: W
LayerCount: 2
Fore
SplineSet
225 491 m 1,0,-1
 2 675 l 1,1,-1
 76 769 l 1,2,-1
 299 585 l 1,3,-1
 446 772 l 1,4,-1
 560 678 l 1,5,-1
 413 491 l 1,6,-1
 647 298 l 1,7,-1
 573 204 l 1,8,-1
 339 397 l 1,9,-1
 193 211 l 1,10,-1
 79 305 l 1,11,-1
 225 491 l 1,0,-1
EndSplineSet
EndChar

StartChar: onesuperior
Encoding: 185 185 144
Width: 596
Flags: W
LayerCount: 2
Fore
SplineSet
573 1093 m 1,0,-1
 487 657 l 2,1,2
 476 607 476 607 476 589 c 0,3,4
 476 570 476 570 532 563 c 1,5,-1
 591 560 l 1,6,-1
 582 516 l 1,7,-1
 210 516 l 1,8,-1
 218 560 l 1,9,-1
 279 563 l 2,10,11
 328 567 328 567 337.5 578 c 128,-1,12
 347 589 347 589 362 657 c 2,13,-1
 418 938 l 2,14,15
 423 960 423 960 423 978 c 0,16,17
 423 1004 423 1004 355 1013 c 2,18,-1
 310 1021 l 1,19,-1
 319 1066 l 1,20,-1
 573 1093 l 1,0,-1
EndSplineSet
EndChar

StartChar: twosuperior
Encoding: 178 178 145
Width: 596
Flags: W
LayerCount: 2
Fore
SplineSet
187 516 m 1,0,-1
 207 617 l 1,1,2
 362 712 362 712 454.5 803.5 c 128,-1,3
 547 895 547 895 547 952 c 0,4,5
 547 1046 547 1046 463 1046 c 0,6,7
 352 1046 352 1046 331 928 c 1,8,-1
 278 928 l 1,9,-1
 304 1059 l 1,10,11
 400 1093 400 1093 484 1093 c 0,12,13
 674 1093 674 1093 674 959 c 0,14,15
 674 887 674 887 624.5 842 c 128,-1,16
 575 797 575 797 297 617 c 1,17,-1
 607 617 l 1,18,-1
 587 516 l 1,19,-1
 187 516 l 1,0,-1
EndSplineSet
EndChar

StartChar: threesuperior
Encoding: 179 179 146
Width: 596
Flags: W
LayerCount: 2
Fore
SplineSet
185 545 m 1,0,-1
 257 620 l 1,1,2
 337 556 337 556 418 556 c 0,3,4
 460 556 460 556 490.5 587 c 128,-1,5
 521 618 521 618 521 661 c 0,6,7
 521 776 521 776 345 776 c 0,8,9
 323 776 323 776 301 773 c 1,10,-1
 331 859 l 1,11,12
 350 860 350 860 365 860 c 0,13,14
 412 860 412 860 466 849 c 1,15,16
 547 886 547 886 547 961 c 0,17,18
 547 1046 547 1046 454 1046 c 0,19,20
 365 1046 365 1046 342 941 c 1,21,-1
 289 941 l 1,22,-1
 311 1057 l 1,23,24
 398 1093 398 1093 484 1093 c 0,25,26
 662 1093 662 1093 662 984 c 0,27,28
 662 893 662 893 520 829 c 1,29,30
 625 790 625 790 625 693 c 0,31,32
 625 616 625 616 554.5 563 c 128,-1,33
 484 510 484 510 378 510 c 0,34,35
 289 510 289 510 185 545 c 1,0,-1
EndSplineSet
EndChar

StartChar: onehalf
Encoding: 189 189 147
Width: 1262
Flags: W
LayerCount: 2
Fore
SplineSet
528 1093 m 1,0,-1
 442 657 l 2,1,2
 432 606 432 606 432 589 c 0,3,4
 432 570 432 570 488 563 c 1,5,-1
 547 560 l 1,6,-1
 538 516 l 1,7,-1
 165 516 l 1,8,-1
 174 560 l 1,9,-1
 235 563 l 2,10,11
 283 567 283 567 293 578 c 128,-1,12
 303 589 303 589 318 657 c 2,13,-1
 373 938 l 2,14,15
 378 960 378 960 378 978 c 0,16,17
 378 1004 378 1004 310 1013 c 2,18,-1
 265 1021 l 1,19,-1
 274 1066 l 1,20,-1
 528 1093 l 1,0,-1
160 -27 m 1,21,-1
 1180 1093 l 1,22,-1
 1280 1093 l 1,23,-1
 257 -27 l 1,24,-1
 160 -27 l 1,21,-1
778 0 m 1,25,-1
 797 103 l 1,26,27
 952 197 952 197 1045 288 c 128,-1,28
 1138 379 1138 379 1138 436 c 0,29,30
 1138 530 1138 530 1053 530 c 0,31,32
 942 530 942 530 922 413 c 1,33,-1
 868 413 l 1,34,-1
 895 544 l 1,35,36
 989 578 989 578 1075 578 c 0,37,38
 1264 578 1264 578 1264 445 c 0,39,40
 1264 373 1264 373 1214.5 328 c 128,-1,41
 1165 283 1165 283 887 103 c 1,42,-1
 1197 103 l 1,43,-1
 1177 0 l 1,44,-1
 778 0 l 1,25,-1
EndSplineSet
EndChar

StartChar: onequarter
Encoding: 188 188 148
Width: 1262
Flags: W
LayerCount: 2
Fore
SplineSet
546 1093 m 1,0,-1
 460 657 l 2,1,2
 450 606 450 606 450 589 c 0,3,4
 450 570 450 570 506 563 c 1,5,-1
 565 560 l 1,6,-1
 556 516 l 1,7,-1
 183 516 l 1,8,-1
 192 560 l 1,9,-1
 253 563 l 2,10,11
 301 567 301 567 311 578 c 128,-1,12
 321 589 321 589 336 657 c 2,13,-1
 391 938 l 2,14,15
 396 960 396 960 396 978 c 0,16,17
 396 1004 396 1004 328 1013 c 2,18,-1
 283 1021 l 1,19,-1
 292 1066 l 1,20,-1
 546 1093 l 1,0,-1
178 -27 m 1,21,-1
 1198 1093 l 1,22,-1
 1298 1093 l 1,23,-1
 275 -27 l 1,24,-1
 178 -27 l 1,21,-1
981 164 m 1,25,-1
 732 182 l 1,26,-1
 747 261 l 1,27,-1
 1102 578 l 1,28,-1
 1170 578 l 1,29,-1
 1102 236 l 1,30,-1
 1212 229 l 1,31,-1
 1168 149 l 1,32,-1
 1086 157 l 1,33,34
 1076 102 1076 102 1076 74 c 0,35,36
 1076 52 1076 52 1129 49 c 2,37,-1
 1189 45 l 1,38,-1
 1180 0 l 1,39,-1
 820 0 l 1,40,-1
 829 45 l 1,41,-1
 886 49 l 2,42,43
 937 52 937 52 952 64 c 128,-1,44
 967 76 967 76 973 117 c 0,45,46
 976 134 976 134 981 164 c 1,25,-1
997 244 m 1,47,-1
 1038 446 l 1,48,-1
 823 255 l 1,49,-1
 997 244 l 1,47,-1
EndSplineSet
EndChar

StartChar: threequarters
Encoding: 190 190 149
Width: 1262
Flags: W
LayerCount: 2
Fore
SplineSet
174 545 m 1,0,-1
 247 620 l 1,1,2
 326 556 326 556 407 556 c 0,3,4
 448 556 448 556 478.5 587 c 128,-1,5
 509 618 509 618 509 661 c 0,6,7
 509 776 509 776 333 776 c 0,8,9
 311 776 311 776 289 773 c 1,10,-1
 319 859 l 1,11,12
 338 860 338 860 355 860 c 0,13,14
 401 860 401 860 455 849 c 1,15,16
 535 886 535 886 535 961 c 0,17,18
 535 1046 535 1046 442 1046 c 0,19,20
 354 1046 354 1046 330 941 c 1,21,-1
 277 941 l 1,22,-1
 301 1057 l 1,23,24
 387 1093 387 1093 472 1093 c 0,25,26
 651 1093 651 1093 651 984 c 0,27,28
 651 893 651 893 508 829 c 1,29,30
 614 790 614 790 614 693 c 0,31,32
 614 616 614 616 543 563 c 128,-1,33
 472 510 472 510 366 510 c 0,34,35
 277 510 277 510 174 545 c 1,0,-1
178 -27 m 1,36,-1
 1198 1093 l 1,37,-1
 1298 1093 l 1,38,-1
 275 -27 l 1,39,-1
 178 -27 l 1,36,-1
981 164 m 1,40,-1
 732 182 l 1,41,-1
 747 261 l 1,42,-1
 1102 578 l 1,43,-1
 1170 578 l 1,44,-1
 1102 236 l 1,45,-1
 1212 229 l 1,46,-1
 1168 149 l 1,47,-1
 1086 157 l 1,48,49
 1076 102 1076 102 1076 74 c 0,50,51
 1076 52 1076 52 1129 49 c 2,52,-1
 1189 45 l 1,53,-1
 1180 0 l 1,54,-1
 820 0 l 1,55,-1
 829 45 l 1,56,-1
 886 49 l 2,57,58
 938 52 938 52 952.5 64 c 128,-1,59
 967 76 967 76 973 117 c 0,60,61
 976 134 976 134 981 164 c 1,40,-1
997 244 m 1,62,-1
 1038 446 l 1,63,-1
 823 255 l 1,64,-1
 997 244 l 1,62,-1
EndSplineSet
EndChar

StartChar: macron
Encoding: 175 175 150
Width: 1118
Flags: W
LayerCount: 2
Fore
SplineSet
1134 1659 m 1,0,-1
 -16 1659 l 1,1,-1
 -16 1789 l 1,2,-1
 1134 1789 l 1,3,-1
 1134 1659 l 1,0,-1
EndSplineSet
EndChar

StartChar: periodcentered
Encoding: 183 183 151
Width: 724
Flags: W
LayerCount: 2
Fore
SplineSet
482 832 m 1,0,-1
 243 832 l 1,1,-1
 243 1117 l 1,2,-1
 482 1117 l 1,3,-1
 482 832 l 1,0,-1
EndSplineSet
EndChar

StartChar: H22073
Encoding: 9633 9633 152
Width: 1237
Flags: W
LayerCount: 2
Fore
SplineSet
-54 944 m 1,0,-1
 889 944 l 1,1,-1
 1090 0 l 1,2,-1
 146 0 l 1,3,-1
 -54 944 l 1,0,-1
37 868 m 1,4,-1
 205 76 l 1,5,-1
 997 76 l 1,6,-1
 829 868 l 1,7,-1
 37 868 l 1,4,-1
EndSplineSet
EndChar

StartChar: H18543
Encoding: 9642 9642 153
Width: 1089
Flags: W
LayerCount: 2
Fore
SplineSet
674 994 m 1,0,-1
 822 300 l 1,1,-1
 128 300 l 1,2,-1
 -19 994 l 1,3,-1
 674 994 l 1,0,-1
EndSplineSet
EndChar

StartChar: H18551
Encoding: 9643 9643 154
Width: 1089
Flags: W
LayerCount: 2
Fore
SplineSet
676 996 m 1,0,-1
 824 301 l 1,1,-1
 129 301 l 1,2,-1
 -18 996 l 1,3,-1
 676 996 l 1,0,-1
586 882 m 1,4,-1
 119 882 l 1,5,-1
 218 415 l 1,6,-1
 685 415 l 1,7,-1
 586 882 l 1,4,-1
EndSplineSet
EndChar

StartChar: H18533
Encoding: 9679 9679 155
Width: 1339
Flags: W
LayerCount: 2
Fore
SplineSet
51 719 m 0,0,1
 8 920 8 920 119 1061 c 128,-1,2
 230 1202 230 1202 429 1202 c 0,3,4
 629 1202 629 1202 800 1061 c 128,-1,5
 971 920 971 920 1014 719 c 0,6,7
 1056 521 1056 521 945 380 c 128,-1,8
 834 239 834 239 634 239 c 0,9,10
 435 239 435 239 264 380 c 128,-1,11
 93 521 93 521 51 719 c 0,0,1
EndSplineSet
EndChar

StartChar: openbullet
Encoding: 9702 9702 156
Width: 1089
Flags: W
LayerCount: 2
Fore
SplineSet
295 1171 m 0,0,1
 451 1171 451 1171 585 1060.5 c 128,-1,2
 719 950 719 950 752 794 c 256,3,4
 785 638 785 638 698 528 c 128,-1,5
 611 418 611 418 455 418 c 256,6,7
 299 418 299 418 165.5 528 c 128,-1,8
 32 638 32 638 0 794 c 0,9,10
 -33 950 -33 950 52.5 1060.5 c 128,-1,11
 138 1171 138 1171 295 1171 c 0,0,1
319 1057 m 0,12,13
 210 1057 210 1057 150 979.5 c 128,-1,14
 90 902 90 902 113 794 c 0,15,16
 136 685 136 685 229 608.5 c 128,-1,17
 322 532 322 532 430 532 c 256,18,19
 538 532 538 532 599.5 608.5 c 128,-1,20
 661 685 661 685 638 794 c 0,21,22
 615 902 615 902 522 979.5 c 128,-1,23
 429 1057 429 1057 319 1057 c 0,12,13
EndSplineSet
EndChar

StartChar: currency
Encoding: 164 164 157
Width: 932
Flags: W
LayerCount: 2
Fore
SplineSet
769 322 m 1,0,-1
 879 184 l 1,1,-1
 841 153 l 1,2,-1
 732 292 l 1,3,4
 616 214 616 214 504 214 c 0,5,6
 394 214 394 214 310 292 c 1,7,-1
 145 153 l 1,8,-1
 120 184 l 1,9,-1
 286 322 l 1,10,11
 243 397 243 397 243 470 c 0,12,13
 243 613 243 613 369 743 c 1,14,-1
 259 882 l 1,15,-1
 297 913 l 1,16,-1
 407 775 l 1,17,18
 521 852 521 852 634 852 c 0,19,20
 744 852 744 852 828 775 c 1,21,-1
 994 913 l 1,22,-1
 1019 882 l 1,23,-1
 852 743 l 1,24,25
 895 668 895 668 895 596 c 0,26,27
 895 455 895 455 769 322 c 1,0,-1
818 579 m 0,28,29
 818 666 818 666 762 721.5 c 128,-1,30
 706 777 706 777 620 777 c 0,31,32
 502 777 502 777 411 688 c 128,-1,33
 320 599 320 599 320 485 c 0,34,35
 320 400 320 400 376.5 344.5 c 128,-1,36
 433 289 433 289 519 289 c 0,37,38
 635 289 635 289 726.5 377.5 c 128,-1,39
 818 466 818 466 818 579 c 0,28,29
EndSplineSet
EndChar

StartChar: uniFFFC
Encoding: 65532 65532 158
Width: 2048
Flags: W
LayerCount: 2
Fore
SplineSet
2048 1150 m 1,0,-1
 1948 1150 l 1,1,-1
 1948 1373 l 1,2,-1
 1725 1373 l 1,3,-1
 1725 1473 l 1,4,-1
 2048 1473 l 1,5,-1
 2048 1150 l 1,0,-1
1473 1373 m 1,6,-1
 1150 1373 l 1,7,-1
 1150 1473 l 1,8,-1
 1473 1473 l 1,9,-1
 1473 1373 l 1,6,-1
2048 575 m 1,10,-1
 1948 575 l 1,11,-1
 1948 898 l 1,12,-1
 2048 898 l 1,13,-1
 2048 575 l 1,10,-1
1782 611 m 2,14,15
 1782 370 1782 370 1571 370 c 0,16,17
 1485 370 1485 370 1433 415 c 1,18,-1
 1506 494 l 1,19,20
 1531 468 1531 468 1571 468 c 0,21,22
 1666 468 1666 468 1666 606 c 2,23,-1
 1666 1090 l 1,24,-1
 1782 1090 l 1,25,-1
 1782 611 l 2,14,15
898 1373 m 1,26,-1
 575 1373 l 1,27,-1
 575 1473 l 1,28,-1
 898 1473 l 1,29,-1
 898 1373 l 1,26,-1
2048 0 m 1,30,-1
 1725 0 l 1,31,-1
 1725 100 l 1,32,-1
 1948 100 l 1,33,-1
 1948 323 l 1,34,-1
 2048 323 l 1,35,-1
 2048 0 l 1,30,-1
1423 591 m 0,36,37
 1423 382 1423 382 1149 382 c 2,38,-1
 909 382 l 1,39,-1
 909 1090 l 1,40,-1
 1144 1090 l 2,41,42
 1393 1090 1393 1090 1393 904 c 0,43,44
 1393 813 1393 813 1304 759 c 1,45,46
 1423 713 1423 713 1423 591 c 0,36,37
323 1373 m 1,47,-1
 100 1373 l 1,48,-1
 100 1150 l 1,49,-1
 0 1150 l 1,50,-1
 0 1473 l 1,51,-1
 323 1473 l 1,52,-1
 323 1373 l 1,47,-1
1473 0 m 1,53,-1
 1150 0 l 1,54,-1
 1150 100 l 1,55,-1
 1473 100 l 1,56,-1
 1473 0 l 1,53,-1
854 735 m 0,57,58
 854 562 854 562 772 466 c 128,-1,59
 690 370 690 370 537 370 c 256,60,61
 384 370 384 370 303.5 466 c 128,-1,62
 223 562 223 562 223 735 c 0,63,64
 223 910 223 910 303.5 1006 c 128,-1,65
 384 1102 384 1102 537 1102 c 256,66,67
 690 1102 690 1102 772 1006 c 128,-1,68
 854 910 854 910 854 735 c 0,57,58
100 575 m 1,69,-1
 0 575 l 1,70,-1
 0 898 l 1,71,-1
 100 898 l 1,72,-1
 100 575 l 1,69,-1
898 0 m 1,73,-1
 575 0 l 1,74,-1
 575 100 l 1,75,-1
 898 100 l 1,76,-1
 898 0 l 1,73,-1
323 0 m 1,77,-1
 0 0 l 1,78,-1
 0 323 l 1,79,-1
 100 323 l 1,80,-1
 100 100 l 1,81,-1
 323 100 l 1,82,-1
 323 0 l 1,77,-1
1277 893 m 0,83,84
 1277 992 1277 992 1114 992 c 2,85,-1
 1025 992 l 1,86,-1
 1025 798 l 1,87,-1
 1126 798 l 2,88,89
 1277 798 1277 798 1277 893 c 0,83,84
1307 591 m 0,90,91
 1307 700 1307 700 1136 700 c 2,92,-1
 1025 700 l 1,93,-1
 1025 480 l 1,94,-1
 1149 480 l 2,95,96
 1307 480 1307 480 1307 591 c 0,90,91
738 735 m 0,97,98
 738 1004 738 1004 537 1004 c 0,99,100
 339 1004 339 1004 339 735 c 0,101,102
 339 468 339 468 537 468 c 0,103,104
 738 468 738 468 738 735 c 0,97,98
EndSplineSet
EndChar

StartChar: dotbelowcomb
Encoding: 65538 -1 160
Width: 0
Flags: W
LayerCount: 2
Fore
SplineSet
747 -382 m 1,0,-1
 533 -382 l 1,1,-1
 491 -187 l 1,2,-1
 705 -187 l 1,3,-1
 747 -382 l 1,0,-1
EndSplineSet
EndChar

StartChar: zerowidthnonjoiner
Encoding: 8204 8204 175
Width: 0
GlyphClass: 2
Flags: W
LayerCount: 2
Fore
SplineSet
36 1289 m 1,0,-1
 36 -275 l 1,1,-1
 -36 -275 l 1,2,-1
 -36 1289 l 1,3,-1
 36 1289 l 1,0,-1
EndSplineSet
EndChar

StartChar: zerowidthjoiner
Encoding: 8205 8205 176
Width: 0
GlyphClass: 2
Flags: W
LayerCount: 2
Fore
SplineSet
36 -275 m 1,0,-1
 -36 -275 l 1,1,-1
 -36 1114 l 1,2,-1
 -170 978 l 1,3,-1
 -219 1027 l 1,4,-1
 -48 1196 l 1,5,-1
 -219 1364 l 1,6,-1
 -170 1413 l 1,7,-1
 0 1242 l 1,8,-1
 170 1413 l 1,9,-1
 219 1364 l 1,10,-1
 48 1196 l 1,11,-1
 219 1027 l 1,12,-1
 170 978 l 1,13,-1
 36 1114 l 1,14,-1
 36 -275 l 1,0,-1
EndSplineSet
EndChar

StartChar: lefttorightmark
Encoding: 8206 8206 177
Width: 0
GlyphClass: 2
Flags: W
LayerCount: 2
Fore
SplineSet
430 1198 m 1,0,-1
 213 984 l 1,1,-1
 164 1033 l 1,2,-1
 301 1163 l 1,3,-1
 35 1163 l 1,4,-1
 35 -275 l 1,5,-1
 -36 -275 l 1,6,-1
 -36 1234 l 1,7,-1
 301 1234 l 1,8,-1
 164 1364 l 1,9,-1
 213 1413 l 1,10,-1
 430 1198 l 1,0,-1
EndSplineSet
EndChar

StartChar: righttoleftmark
Encoding: 8207 8207 178
Width: 0
GlyphClass: 2
Flags: W
LayerCount: 2
Fore
SplineSet
35 -275 m 1,0,-1
 -36 -275 l 1,1,-1
 -36 1163 l 1,2,-1
 -302 1163 l 1,3,-1
 -165 1033 l 1,4,-1
 -214 984 l 1,5,-1
 -431 1198 l 1,6,-1
 -214 1413 l 1,7,-1
 -165 1364 l 1,8,-1
 -302 1234 l 1,9,-1
 35 1234 l 1,10,-1
 35 -275 l 1,0,-1
EndSplineSet
EndChar

StartChar: afii57388.001
Encoding: 1644 1644 179
Width: 353
GlyphClass: 2
Flags: W
LayerCount: 2
Fore
SplineSet
210 654 m 0,0,1
 200 627 200 627 185 603 c 0,2,3
 180 597 180 597 173.5 593.5 c 128,-1,4
 167 590 167 590 162 590 c 128,-1,5
 157 590 157 590 154.5 593 c 128,-1,6
 152 596 152 596 155 603 c 0,7,8
 187 660 187 660 202.5 713.5 c 128,-1,9
 218 767 218 767 218 800 c 1,10,11
 194 806 194 806 179 816 c 128,-1,12
 164 826 164 826 155 837.5 c 128,-1,13
 146 849 146 849 143 859 c 128,-1,14
 140 869 140 869 140 874 c 0,15,16
 140 890 140 890 145.5 907 c 128,-1,17
 151 924 151 924 160.5 937.5 c 128,-1,18
 170 951 170 951 183.5 959.5 c 128,-1,19
 197 968 197 968 213 968 c 0,20,21
 272 968 272 968 272 874 c 0,22,23
 272 859 272 859 268 835 c 128,-1,24
 264 811 264 811 256 781.5 c 128,-1,25
 248 752 248 752 236.5 719.5 c 128,-1,26
 225 687 225 687 210 654 c 0,0,1
EndSplineSet
EndChar

StartChar: afii57409
Encoding: 1569 1569 180
Width: 732
GlyphClass: 2
Flags: W
AnchorPoint: "Anchor-3" 390 -345 basechar 0
AnchorPoint: "Anchor-2" 300 615 basechar 0
LayerCount: 2
Fore
SplineSet
630 228 m 1,0,1
 610 161 610 161 581 100 c 1,2,3
 461 76 461 76 406 61 c 0,4,5
 286 29 286 29 177 -20 c 1,6,7
 172 -9 172 -9 169 3 c 0,8,9
 167 19 167 19 168 35 c 1,10,11
 190 69 190 69 275 112 c 1,12,13
 222 139 222 139 205 153 c 0,14,15
 176 177 176 177 168 215 c 0,16,17
 153 285 153 285 221.5 366.5 c 128,-1,18
 290 448 290 448 361 448 c 0,19,20
 435 448 435 448 450 381 c 0,21,22
 463 316 463 316 441 275 c 0,23,24
 427 250 427 250 407 280 c 0,25,26
 371 333 371 333 317 333 c 0,27,28
 262 333 262 333 270 296 c 0,29,30
 279 252 279 252 335 217 c 0,31,32
 387 184 387 184 433 184 c 0,33,34
 448 184 448 184 630 228 c 1,0,1
EndSplineSet
EndChar

StartChar: afii57440
Encoding: 1600 1600 181
Width: 468
GlyphClass: 2
Flags: W
LayerCount: 2
Fore
SplineSet
495 0 m 1,0,-1
 -29 0 l 1,1,-1
 -63 162 l 1,2,-1
 460 162 l 1,3,-1
 495 0 l 1,0,-1
EndSplineSet
EndChar

StartChar: afii57453
Encoding: 1613 1613 182
Width: 0
GlyphClass: 4
Flags: W
AnchorPoint: "Anchor-3" 0 0 mark 0
AnchorPoint: "Anchor-1" 0 0 mark 0
LayerCount: 2
Fore
SplineSet
170 115 m 1,0,-1
 153 18 l 1,1,-1
 -179 -163 l 1,2,-1
 -161 -74 l 1,3,-1
 170 115 l 1,0,-1
146 275 m 1,4,-1
 129 178 l 1,5,-1
 -203 -3 l 1,6,-1
 -185 86 l 1,7,-1
 146 275 l 1,4,-1
EndSplineSet
EndChar

StartChar: afii57455.001
Encoding: 65539 -1 183
Width: 507
GlyphClass: 4
Flags: W
LayerCount: 2
Fore
SplineSet
121 1550 m 0,0,1
 140 1460 140 1460 91 1396 c 1,2,3
 109 1384 109 1384 147 1369 c 1,4,-1
 157 1286 l 1,5,6
 83 1307 83 1307 33 1345 c 1,7,8
 -71 1237 -71 1237 -197 1219 c 1,9,10
 -242 1225 -242 1225 -251 1257 c 1,11,12
 -84 1316 -84 1316 -23 1382 c 1,13,14
 -77 1425 -77 1425 -88 1475 c 0,15,16
 -97 1519 -97 1519 -53 1577.5 c 128,-1,17
 -9 1636 -9 1636 34 1636 c 0,18,19
 103 1636 103 1636 121 1550 c 0,0,1
31 1556 m 0,20,21
 13 1556 13 1556 -9 1536.5 c 128,-1,22
 -31 1517 -31 1517 -27 1500 c 0,23,24
 -24 1482 -24 1482 -3 1457 c 128,-1,25
 18 1432 18 1432 35 1432 c 0,26,27
 54 1432 54 1432 59 1471 c 0,28,29
 63 1503 63 1503 58 1526 c 0,30,31
 52 1556 52 1556 31 1556 c 0,20,21
EndSplineSet
EndChar

StartChar: afii57458.001
Encoding: 65540 -1 184
Width: 0
GlyphClass: 4
Flags: W
LayerCount: 2
Fore
SplineSet
-94 1165 m 0,0,1
 -80 1097 -80 1097 -122 1052 c 0,2,3
 -163 1011 -163 1011 -232 1011 c 0,4,5
 -372 1011 -372 1011 -402 1151 c 0,6,7
 -411 1194 -411 1194 -385 1263 c 0,8,9
 -352 1345 -352 1345 -291 1345 c 0,10,11
 -218 1345 -218 1345 -162 1290 c 0,12,13
 -110 1239 -110 1239 -94 1165 c 0,0,1
-163 1162 m 0,14,15
 -170 1193 -170 1193 -221 1224 c 128,-1,16
 -272 1255 -272 1255 -305 1255 c 0,17,18
 -326 1255 -326 1255 -338 1224.5 c 128,-1,19
 -350 1194 -350 1194 -345 1170 c 0,20,21
 -333 1113 -333 1113 -235 1113 c 0,22,23
 -209 1113 -209 1113 -186 1124 c 0,24,25
 -159 1139 -159 1139 -163 1162 c 0,14,15
EndSplineSet
EndChar

StartChar: afii57381
Encoding: 1642 1642 185
Width: 1024
GlyphClass: 2
Flags: W
LayerCount: 2
Fore
SplineSet
248 -132 m 1,0,-1
 497 1335 l 1,1,-1
 590 1301 l 1,2,-1
 342 -166 l 1,3,-1
 248 -132 l 1,0,-1
927 52 m 0,4,5
 936 11 936 11 913 -18.5 c 128,-1,6
 890 -48 890 -48 849 -48 c 0,7,8
 807 -48 807 -48 771 -18.5 c 128,-1,9
 735 11 735 11 726 53 c 0,10,11
 718 94 718 94 741 123.5 c 128,-1,12
 764 153 764 153 805 153 c 0,13,14
 848 153 848 153 883.5 123.5 c 128,-1,15
 919 94 919 94 927 52 c 0,4,5
79 1135 m 0,16,17
 88 1095 88 1095 64.5 1065.5 c 128,-1,18
 41 1036 41 1036 0 1036 c 256,19,20
 -41 1036 -41 1036 -76.5 1065.5 c 128,-1,21
 -112 1095 -112 1095 -121 1137 c 0,22,23
 -130 1178 -130 1178 -106.5 1207.5 c 128,-1,24
 -83 1237 -83 1237 -42 1237 c 0,25,26
 0 1237 0 1237 35 1207.5 c 128,-1,27
 70 1178 70 1178 79 1135 c 0,16,17
EndSplineSet
EndChar

StartChar: afii57461
Encoding: 1643 1643 186
Width: 985
GlyphClass: 2
Flags: W
LayerCount: 2
Fore
SplineSet
228 -521 m 1,0,-1
 664 502 l 1,1,-1
 778 502 l 1,2,-1
 342 -521 l 1,3,-1
 228 -521 l 1,0,-1
EndSplineSet
EndChar

StartChar: afii63167
Encoding: 1645 1645 187
Width: 1118
GlyphClass: 2
Flags: W
LayerCount: 2
Fore
SplineSet
694 729 m 1,0,-1
 1057 733 l 1,1,-1
 1057 610 l 1,2,-1
 702 612 l 1,3,-1
 971 352 l 1,4,-1
 883 264 l 1,5,-1
 616 539 l 1,6,-1
 623 168 l 1,7,-1
 498 168 l 1,8,-1
 502 539 l 1,9,-1
 236 264 l 1,10,-1
 147 352 l 1,11,-1
 422 614 l 1,12,-1
 63 610 l 1,13,-1
 63 733 l 1,14,-1
 420 729 l 1,15,-1
 170 975 l 1,16,-1
 258 1065 l 1,17,-1
 502 817 l 1,18,-1
 498 1176 l 1,19,-1
 623 1176 l 1,20,-1
 616 813 l 1,21,-1
 860 1065 l 1,22,-1
 948 975 l 1,23,-1
 694 729 l 1,0,-1
EndSplineSet
EndChar

StartChar: afii57459
Encoding: 65541 -1 188
Width: 491
GlyphClass: 2
Flags: W
LayerCount: 2
Fore
SplineSet
381 357 m 0,0,1
 418 182 418 182 376 120 c 0,2,3
 340 67 340 67 228 31 c 0,4,5
 134 1 134 1 61 0 c 2,6,-1
 -41 0 l 1,7,-1
 -75 162 l 1,8,-1
 -16 162 l 2,9,10
 80 162 80 162 171 181 c 0,11,12
 292 206 292 206 329 254 c 0,13,14
 336 263 336 263 331 285 c 0,15,16
 320 335 320 335 283 363 c 1,17,18
 273 262 273 262 142 262 c 0,19,20
 86 262 86 262 41.5 297 c 128,-1,21
 -3 332 -3 332 -15 387 c 0,22,23
 -33 473 -33 473 0 574 c 0,24,25
 37 686 37 686 111 686 c 0,26,27
 175 686 175 686 256 599 c 0,28,29
 350 499 350 499 381 357 c 0,0,1
201 440 m 0,30,31
 195 470 195 470 158 501.5 c 128,-1,32
 121 533 121 533 91 533 c 0,33,34
 37 533 37 533 57 438 c 0,35,36
 66 399 66 399 120 399 c 0,37,38
 143 399 143 399 171 409 c 0,39,40
 205 421 205 421 201 440 c 0,30,31
EndSplineSet
EndChar

StartChar: afii57543
Encoding: 65542 -1 189
Width: 426
Flags: W
LayerCount: 2
Fore
SplineSet
456 0 m 1,0,-1
 397 0 l 2,1,2
 258 1 258 1 188 102 c 1,3,4
 143 1 143 1 18 0 c 2,5,-1
 -29 0 l 1,6,-1
 -63 162 l 1,7,-1
 13 162 l 2,8,9
 89 162 89 162 127 197 c 0,10,11
 149 218 149 218 165 262 c 0,12,13
 177 297 177 297 186 297 c 0,14,15
 201 297 201 297 224 246 c 0,16,17
 262 162 262 162 377 162 c 2,18,-1
 421 162 l 1,19,-1
 456 0 l 1,0,-1
EndSplineSet
EndChar

StartChar: afii57534
Encoding: 1749 1749 190
Width: 667
GlyphClass: 2
Flags: W
LayerCount: 2
Fore
SplineSet
536 310 m 0,0,1
 549 269 549 269 558 197 c 0,2,3
 567 117 567 117 554 90 c 0,4,5
 513 0 513 0 346 0 c 0,6,7
 294 0 294 0 242 35 c 0,8,9
 173 82 173 82 155 168 c 0,10,11
 132 274 132 274 181 411 c 0,12,13
 226 536 226 536 260 536 c 0,14,15
 345 536 345 536 428 465 c 0,16,17
 506 397 506 397 536 310 c 0,0,1
481 230 m 0,18,19
 474 262 474 262 420 300 c 0,20,21
 353 348 353 348 264 348 c 0,22,23
 245 348 245 348 233 296 c 0,24,25
 222 250 222 250 227 226 c 0,26,27
 240 166 240 166 332 166 c 0,28,29
 383 166 383 166 430 181 c 0,30,31
 487 199 487 199 481 230 c 0,18,19
EndSplineSet
EndChar

StartChar: afii64240
Encoding: 65543 -1 191
Width: 310
Flags: W
LayerCount: 2
Fore
SplineSet
234 137 m 1,0,-1
 172 0 l 1,1,-1
 18 91 l 1,2,-1
 84 229 l 1,3,-1
 234 137 l 1,0,-1
EndSplineSet
EndChar

StartChar: afii64241
Encoding: 65544 -1 192
Width: 566
Flags: W
LayerCount: 2
Fore
SplineSet
446 132 m 1,0,-1
 393 11 l 1,1,-1
 253 92 l 1,2,-1
 209 -9 l 1,3,-1
 61 80 l 1,4,-1
 116 209 l 1,5,-1
 253 128 l 1,6,-1
 294 223 l 1,7,-1
 446 132 l 1,0,-1
EndSplineSet
EndChar

StartChar: afii63954
Encoding: 65545 -1 193
Width: 544
Flags: W
LayerCount: 2
Fore
SplineSet
253 353 m 1,0,-1
 196 241 l 1,1,-1
 62 319 l 1,2,-1
 115 441 l 1,3,-1
 253 353 l 1,0,-1
429 158 m 1,4,-1
 376 39 l 1,5,-1
 242 113 l 1,6,-1
 197 21 l 1,7,-1
 59 99 l 1,8,-1
 117 225 l 1,9,-1
 248 151 l 1,10,-1
 287 238 l 1,11,-1
 429 158 l 1,4,-1
EndSplineSet
EndChar

StartChar: afii57382
Encoding: 65546 -1 194
Width: 498
Flags: W
LayerCount: 2
Fore
SplineSet
272 -339 m 1,0,-1
 329 -227 l 1,1,-1
 463 -305 l 1,2,-1
 410 -427 l 1,3,-1
 272 -339 l 1,0,-1
96 -144 m 1,4,-1
 149 -25 l 1,5,-1
 283 -99 l 1,6,-1
 328 -7 l 1,7,-1
 466 -85 l 1,8,-1
 408 -211 l 1,9,-1
 277 -137 l 1,10,-1
 238 -224 l 1,11,-1
 96 -144 l 1,4,-1
EndSplineSet
EndChar

StartChar: afii64242
Encoding: 65547 -1 195
Width: 362
Flags: W
LayerCount: 2
Fore
SplineSet
241 264 m 0,0,1
 250 223 250 223 241 158 c 0,2,3
 232 89 232 89 211 64 c 0,4,5
 158 1 158 1 36 0 c 2,6,-1
 -29 0 l 1,7,-1
 -63 162 l 1,8,-1
 3 162 l 2,9,10
 45 162 45 162 107 173 c 0,11,12
 190 188 190 188 185 210 c 0,13,14
 176 251 176 251 66 356 c 1,15,-1
 109 474 l 2,16,17
 120 506 120 506 141 480 c 0,18,19
 214 391 214 391 241 264 c 0,0,1
EndSplineSet
EndChar

StartChar: afii62881
Encoding: 59416 59416 196
Width: 0
GlyphClass: 4
Flags: W
AnchorPoint: "Anchor-2" 0 0 mark 0
AnchorPoint: "Anchor-0" 0 0 mark 0
LayerCount: 2
Fore
SplineSet
106 237 m 0,0,1
 115 194 115 194 97 149 c 0,2,3
 75 94 75 94 25 94 c 0,4,5
 4 94 4 94 -20 104 c 1,6,7
 -54 3 -54 3 -133 3 c 0,8,9
 -165 3 -165 3 -190 35 c 0,10,11
 -212 62 -212 62 -219 96 c 0,12,13
 -231 151 -231 151 -207 220 c 0,14,15
 -204 231 -204 231 -195 233 c 1,16,17
 -190 227 -190 227 -185 222 c 1,18,19
 -182 193 -182 193 -177 171 c 0,20,21
 -162 101 -162 101 -129 101 c 0,22,23
 -84 101 -84 101 -73 201 c 128,-1,24
 -62 301 -62 301 -59 301 c 0,25,26
 -50 301 -50 301 -31.5 248 c 128,-1,27
 -13 195 -13 195 15 195 c 0,28,29
 48 195 48 195 46.5 278 c 128,-1,30
 45 361 45 361 51 361 c 0,31,32
 80 361 80 361 106 237 c 0,0,1
76 565 m 1,33,-1
 59 468 l 1,34,-1
 -273 287 l 1,35,-1
 -254 376 l 1,36,-1
 76 565 l 1,33,-1
40 735 m 1,37,-1
 23 638 l 1,38,-1
 -309 457 l 1,39,-1
 -291 546 l 1,40,-1
 40 735 l 1,37,-1
EndSplineSet
Ligature2: "'ccmp' Glyph Composition/Decomposition in Arabic lookup 4 subtable" afii57457 afii57451
EndChar

StartChar: afii57373
Encoding: 65548 -1 200
Width: 396
Flags: W
LayerCount: 2
Fore
SplineSet
225 694 m 1,0,1
 217 653 217 653 205 605 c 1,2,3
 32 579 32 579 -71 533 c 1,4,5
 -70 547 -70 547 -66 565 c 1,6,7
 -36 615 -36 615 9 633 c 1,8,9
 -76 681 -76 681 -83 715 c 0,10,11
 -94 766 -94 766 -54 826 c 128,-1,12
 -14 886 -14 886 35 886 c 0,13,14
 95 886 95 886 106 836 c 0,15,16
 117 785 117 785 101 759 c 0,17,18
 95 749 95 749 85 763 c 0,19,20
 56 807 56 807 5 807 c 0,21,22
 -32 807 -32 807 -24 770 c 0,23,24
 -17 737 -17 737 32 706 c 0,25,26
 80 676 80 676 114 676 c 0,27,28
 139 676 139 676 225 694 c 1,0,1
EndSplineSet
EndChar

StartChar: afii57374
Encoding: 65549 -1 201
Width: 654
GlyphClass: 2
Flags: W
LayerCount: 2
Fore
SplineSet
683 0 m 1,0,-1
 583 0 l 2,1,2
 417 1 417 1 286 92 c 1,3,4
 252 62 252 62 187 34 c 0,5,6
 110 0 110 0 39 0 c 2,7,-1
 -30 0 l 1,8,-1
 -64 162 l 1,9,-1
 -17 162 l 2,10,11
 112 162 112 162 156 188 c 1,12,13
 117 233 117 233 105 291 c 0,14,15
 82 396 82 396 181 537 c 0,16,17
 255 642 255 642 319 642 c 0,18,19
 375 642 375 642 419 568 c 0,20,21
 450 515 450 515 465 446 c 0,22,23
 477 390 477 390 466 311 c 0,24,25
 455 222 455 222 422 196 c 1,26,27
 466 162 466 162 594 162 c 2,28,-1
 648 162 l 1,29,-1
 683 0 l 1,0,-1
410 345 m 0,30,31
 403 380 403 380 361 421 c 128,-1,32
 319 462 319 462 285 462 c 256,33,34
 251 462 251 462 211 423 c 128,-1,35
 171 384 171 384 178 351 c 0,36,37
 184 321 184 321 226 286 c 128,-1,38
 268 251 268 251 298 251 c 0,39,40
 329 251 329 251 372.5 283.5 c 128,-1,41
 416 316 416 316 410 345 c 0,30,31
EndSplineSet
EndChar

StartChar: afii57375
Encoding: 1619 1619 202
Width: 741
GlyphClass: 2
Flags: W
LayerCount: 2
Fore
SplineSet
483 1179 m 0,0,1
 438 1094 438 1094 320 1053 c 0,2,3
 227 1021 227 1021 117 1021 c 0,4,5
 74 1022 74 1022 20 1032 c 128,-1,6
 -34 1042 -34 1042 -50 1041 c 0,7,8
 -81 1042 -81 1042 -79 999 c 0,9,10
 -77 972 -77 972 -96 972 c 0,11,12
 -132 972 -132 972 -164 1007 c 0,13,14
 -192 1038 -192 1038 -200 1076 c 0,15,16
 -217 1162 -217 1162 -125 1165 c 0,17,18
 -86 1165 -86 1165 -6 1150 c 128,-1,19
 74 1135 74 1135 114 1135 c 0,20,21
 269 1135 269 1135 345 1154 c 0,22,23
 379 1162 379 1162 424 1183 c 0,24,25
 463 1201 463 1201 470 1201 c 0,26,27
 479 1201 479 1201 482 1192 c 0,28,29
 486 1184 486 1184 483 1179 c 0,0,1
EndSplineSet
EndChar

StartChar: afii57471
Encoding: 65550 -1 203
Width: 1587
Flags: W
LayerCount: 2
Fore
SplineSet
1617 0 m 1,0,-1
 1560 0 l 2,1,2
 1507 0 1507 0 1454.5 31.5 c 128,-1,3
 1402 63 1402 63 1376 112 c 1,4,5
 1336 15 1336 15 1072 -31 c 0,6,7
 894 -62 894 -62 699 -62 c 0,8,9
 478 -62 478 -62 325 -3 c 0,10,11
 110 80 110 80 70 271 c 0,12,13
 38 420 38 420 104 502 c 0,14,15
 111 511 111 511 119 511 c 0,16,17
 135 511 135 511 129 489 c 0,18,19
 111 430 111 430 126 360 c 0,20,21
 147 260 147 260 287 190 c 0,22,23
 466 100 466 100 781 100 c 0,24,25
 1203 100 1203 100 1303 185 c 0,26,27
 1340 216 1340 216 1343 265 c 0,28,29
 1344 283 1344 283 1357 283 c 256,30,31
 1370 283 1370 283 1376 267 c 0,32,33
 1394 209 1394 209 1414 191 c 0,34,35
 1446 162 1446 162 1525 162 c 2,36,-1
 1582 162 l 1,37,-1
 1617 0 l 1,0,-1
EndSplineSet
EndChar

StartChar: afii52258
Encoding: 65551 -1 204
Width: 1802
GlyphClass: 2
Flags: W
LayerCount: 2
Fore
SplineSet
1832 0 m 1,0,-1
 1722 0 l 2,1,2
 1603 1 1603 1 1464 58 c 1,3,4
 1326 -64 1326 -64 863 -132 c 0,5,6
 741 -150 741 -150 552 -141 c 0,7,8
 145 -122 145 -122 77 200 c 0,9,10
 48 337 48 337 124 430 c 0,11,12
 134 443 134 443 143 443 c 0,13,14
 151 443 151 443 154 432 c 0,15,16
 156 420 156 420 149 403 c 0,17,18
 120 338 120 338 138 253 c 0,19,20
 163 132 163 132 317 71 c 0,21,22
 433 25 433 25 571 25 c 2,23,-1
 693 25 l 2,24,25
 1045 25 1045 25 1306 144 c 1,26,27
 1246 175 1246 175 1227 265 c 0,28,29
 1219 302 1219 302 1221 336 c 0,30,31
 1225 408 1225 408 1280 514 c 0,32,33
 1342 632 1342 632 1402 632 c 0,34,35
 1457 632 1457 632 1514 542 c 0,36,37
 1561 469 1561 469 1575 404 c 0,38,39
 1606 257 1606 257 1567 184 c 1,40,41
 1597 162 1597 162 1693 162 c 2,42,-1
 1797 162 l 1,43,-1
 1832 0 l 1,0,-1
1519 328 m 0,44,45
 1512 358 1512 358 1477 399 c 0,46,47
 1438 444 1438 444 1410 444 c 0,48,49
 1372 444 1372 444 1332.5 400 c 128,-1,50
 1293 356 1293 356 1301 318 c 0,51,52
 1307 288 1307 288 1361 257 c 0,53,54
 1408 230 1408 230 1430 230 c 0,55,56
 1447 230 1447 230 1484 263 c 0,57,58
 1525 300 1525 300 1519 328 c 0,44,45
EndSplineSet
EndChar

StartChar: afii62889
Encoding: 65552 -1 210
Width: 1060
Flags: W
LayerCount: 2
Fore
SplineSet
1090 0 m 1,0,-1
 980 0 l 1,1,2
 998 -157 998 -157 937 -244 c 0,3,4
 798 -447 798 -447 528 -447 c 0,5,6
 377 -447 377 -447 274.5 -364.5 c 128,-1,7
 172 -282 172 -282 140 -131 c 0,8,9
 98 66 98 66 199 204 c 0,10,11
 208 216 208 216 220 216 c 0,12,13
 227 216 227 216 228 210 c 0,14,15
 229 203 229 203 222 189 c 0,16,17
 203 149 203 149 192 67 c 128,-1,18
 181 -15 181 -15 191 -62 c 0,19,20
 213 -168 213 -168 322 -231 c 0,21,22
 417 -287 417 -287 528 -287 c 0,23,24
 652 -287 652 -287 763 -242 c 0,25,26
 957 -164 957 -164 924 -8 c 1,27,28
 867 -16 867 -16 822 -16 c 0,29,30
 660 -16 660 -16 637 93 c 0,31,32
 618 179 618 179 659 280 c 0,33,34
 702 388 702 388 772 388 c 0,35,36
 878 388 878 388 945 162 c 1,37,-1
 1055 162 l 1,38,-1
 1090 0 l 1,0,-1
884 152 m 1,39,40
 827 247 827 247 767 247 c 0,41,42
 744 247 744 247 728 230 c 128,-1,43
 712 213 712 213 717 190 c 0,44,45
 726 147 726 147 817 147 c 0,46,47
 847 147 847 147 884 152 c 1,39,40
EndSplineSet
EndChar

StartChar: afii62887
Encoding: 65553 -1 211
Width: 1552
Flags: W
LayerCount: 2
Fore
SplineSet
1434 362 m 0,0,1
 1445 308 1445 308 1430 230 c 0,2,3
 1417 164 1417 164 1403 148 c 0,4,5
 1354 89 1354 89 1131 29 c 0,6,7
 879 -39 879 -39 618 -39 c 0,8,9
 430 -39 430 -39 293 16 c 0,10,11
 106 91 106 91 71 256 c 0,12,13
 45 377 45 377 110 475 c 0,14,15
 118 488 118 488 127 488 c 256,16,17
 136 488 136 488 138 476 c 0,18,19
 140 468 140 468 137 458 c 0,20,21
 118 397 118 397 131 336 c 0,22,23
 157 214 157 214 367 159 c 0,24,25
 503 123 503 123 665 123 c 0,26,27
 927 123 927 123 1168 190 c 0,28,29
 1387 251 1387 251 1378 294 c 0,30,31
 1369 338 1369 338 1259 442 c 1,32,-1
 1296 576 l 2,33,34
 1304 604 1304 604 1324 578 c 0,35,36
 1412 462 1412 462 1434 362 c 0,0,1
EndSplineSet
EndChar

StartChar: afii62888
Encoding: 1697 1697 212
Width: 1653
GlyphClass: 2
Flags: W
LayerCount: 2
Fore
SplineSet
1534 377 m 0,0,1
 1576 179 1576 179 1546 140 c 0,2,3
 1463 36 1463 36 1212 -48 c 0,4,5
 1005 -117 1005 -117 813 -135 c 0,6,7
 680 -148 680 -148 537 -141 c 0,8,9
 346 -132 346 -132 237 -63 c 0,10,11
 106 19 106 19 68 200 c 0,12,13
 38 343 38 343 109 430 c 0,14,15
 119 443 119 443 128 443 c 0,16,17
 136 443 136 443 139 432 c 0,18,19
 141 420 141 420 134 403 c 0,20,21
 105 338 105 338 123 253 c 0,22,23
 148 132 148 132 302 71 c 0,24,25
 418 25 418 25 556 25 c 2,26,-1
 678 25 l 2,27,28
 940 25 940 25 1207 115 c 0,29,30
 1453 198 1453 198 1482 274 c 1,31,32
 1483 296 1483 296 1479 315 c 0,33,34
 1469 359 1469 359 1437 383 c 1,35,36
 1432 335 1432 335 1388 306 c 0,37,38
 1349 279 1349 279 1296 279 c 0,39,40
 1165 279 1165 279 1139 404 c 0,41,42
 1119 494 1119 494 1153 595 c 0,43,44
 1189 706 1189 706 1264 706 c 0,45,46
 1330 706 1330 706 1411 621 c 0,47,48
 1504 522 1504 522 1534 377 c 0,0,1
1352 467 m 0,49,50
 1346 497 1346 497 1313 527.5 c 128,-1,51
 1280 558 1280 558 1250 558 c 0,52,53
 1221 558 1221 558 1210 525 c 0,54,55
 1202 497 1202 497 1209 465 c 0,56,57
 1217 426 1217 426 1271 426 c 0,58,59
 1294 426 1294 426 1322 436 c 0,60,61
 1356 448 1356 448 1352 467 c 0,49,50
EndSplineSet
Substitution2: "'fina' Terminal Forms in Arabic lookup 3 subtable" afii52258
Substitution2: "'medi' Medial Forms in Arabic lookup 2 subtable" afii57374
Substitution2: "'init' Initial Forms in Arabic lookup 0 subtable" afii57459
EndChar

StartChar: afii57567
Encoding: 1705 1705 219
Width: 1929
GlyphClass: 2
Flags: W
AnchorPoint: "Anchor-3" 645 -525 basechar 0
AnchorPoint: "Anchor-2" 510 975 basechar 0
LayerCount: 2
Fore
SplineSet
1725 1316 m 1,0,1
 1721 1288 1721 1288 1700 1221 c 0,2,3
 1677 1146 1677 1146 1668 1136 c 1,4,5
 1080 925 1080 925 950 823 c 0,6,7
 934 811 934 811 936 802 c 0,8,9
 938 794 938 794 960 782 c 0,10,11
 1156 677 1156 677 1247 604 c 0,12,13
 1412 472 1412 472 1444 321 c 0,14,15
 1471 197 1471 197 1430 135 c 0,16,17
 1393 79 1393 79 1146 21 c 0,18,19
 878 -42 878 -42 612 -42 c 0,20,21
 125 -42 125 -42 62 256 c 0,22,23
 34 390 34 390 105 511 c 0,24,25
 115 528 115 528 124 528 c 0,26,27
 131 528 131 528 133 518 c 0,28,29
 136 508 136 508 130 493 c 0,30,31
 100 416 100 416 119 327 c 0,32,33
 162 123 162 123 649 123 c 0,34,35
 884 123 884 123 1051 155 c 0,36,37
 1403 223 1403 223 1382 320 c 0,38,39
 1370 380 1370 380 1174 500 c 0,40,41
 1029 589 1029 589 918 639 c 1,42,43
 888 664 888 664 863 782 c 0,44,45
 842 881 842 881 857 906 c 1,46,47
 987 1047 987 1047 1725 1316 c 1,0,1
EndSplineSet
Substitution2: "'fina' Terminal Forms in Arabic lookup 3 subtable" afii62964
Substitution2: "'medi' Medial Forms in Arabic lookup 2 subtable" afii52306
Substitution2: "'init' Initial Forms in Arabic lookup 0 subtable" afii52305
EndChar

StartChar: afii62964
Encoding: 64399 64399 220
Width: 2050
GlyphClass: 2
Flags: W
AnchorPoint: "Anchor-3" 630 -540 basechar 0
AnchorPoint: "Anchor-2" 510 1005 basechar 0
LayerCount: 2
Fore
SplineSet
2080 0 m 1,0,-1
 2010 0 l 2,1,2
 1929 1 1929 1 1748 142 c 0,3,4
 1464 364 1464 364 1427 387 c 1,5,6
 1452 344 1452 344 1462 300 c 0,7,8
 1491 162 1491 162 1371 86 c 0,9,10
 1298 40 1298 40 1129 5 c 0,11,12
 901 -42 901 -42 620 -42 c 0,13,14
 411 -42 411 -42 292 2 c 0,15,16
 110 69 110 69 72 246 c 0,17,18
 44 378 44 378 115 501 c 0,19,20
 122 514 122 514 131 514 c 0,21,22
 148 514 148 514 144 483 c 0,23,24
 128 366 128 366 136 327 c 0,25,26
 162 205 162 205 365 154 c 0,27,28
 489 123 489 123 657 123 c 0,29,30
 917 123 917 123 1110 159 c 0,31,32
 1397 213 1397 213 1373 327 c 0,33,34
 1359 392 1359 392 1187 487 c 0,35,36
 958 613 958 613 928 638 c 0,37,38
 867 688 867 688 841 813 c 0,39,40
 828 873 828 873 847 899 c 0,41,42
 969 1059 969 1059 1250 1236 c 0,43,44
 1500 1394 1500 1394 1694 1457 c 1,45,46
 1680 1340 1680 1340 1651 1278 c 1,47,48
 1185 1082 1185 1082 941 837 c 0,49,50
 917 814 917 814 921 799 c 0,51,52
 925 779 925 779 969 759 c 2,53,-1
 1154 674 l 2,54,55
 1315 599 1315 599 1413 540 c 0,56,57
 1555 454 1555 454 1798 270 c 0,58,59
 1941 162 1941 162 1999 162 c 2,60,-1
 2045 162 l 1,61,-1
 2080 0 l 1,0,-1
EndSplineSet
EndChar

StartChar: afii52305
Encoding: 64400 64400 221
Width: 952
GlyphClass: 2
Flags: W
AnchorPoint: "Anchor-3" 345 -540 basechar 0
AnchorPoint: "Anchor-2" 90 1170 basechar 0
LayerCount: 2
Fore
SplineSet
745 1286 m 1,0,1
 741 1258 741 1258 720 1191 c 0,2,3
 697 1116 697 1116 688 1106 c 1,4,5
 100 895 100 895 -29 793 c 0,6,7
 -45 781 -45 781 -43 772 c 0,8,9
 -41 764 -41 764 -18 752 c 0,10,11
 176 647 176 647 267 574 c 0,12,13
 433 442 433 442 465 291 c 0,14,15
 490 174 490 174 444 111 c 0,16,17
 402 54 402 54 290 25 c 0,18,19
 198 0 198 0 96 0 c 2,20,-1
 -29 0 l 1,21,-1
 -63 162 l 1,22,-1
 5 162 l 2,23,24
 430 162 430 162 403 290 c 0,25,26
 390 350 390 350 195 470 c 0,27,28
 50 559 50 559 -61 609 c 1,29,30
 -90 634 -90 634 -115 752 c 0,31,32
 -136 851 -136 851 -122 876 c 1,33,34
 7 1017 7 1017 745 1286 c 1,0,1
EndSplineSet
EndChar

StartChar: afii52306
Encoding: 64401 64401 222
Width: 1087
GlyphClass: 2
Flags: W
AnchorPoint: "Anchor-3" 405 -570 basechar 0
AnchorPoint: "Anchor-2" 30 1305 basechar 0
LayerCount: 2
Fore
SplineSet
1116 0 m 1,0,-1
 1046 0 l 2,1,2
 965 1 965 1 784 142 c 0,3,4
 500 364 500 364 463 387 c 1,5,6
 488 338 488 338 498 290 c 0,7,8
 548 56 548 56 270 10 c 0,9,10
 217 0 217 0 67 0 c 2,11,-1
 -41 0 l 1,12,-1
 -75 162 l 1,13,-1
 79 162 l 2,14,15
 207 162 207 162 298 186 c 0,16,17
 446 225 446 225 426 318 c 0,18,19
 413 378 413 378 231 480 c 0,20,21
 -5 613 -5 613 -35 638 c 0,22,23
 -96 688 -96 688 -122 813 c 0,24,25
 -135 873 -135 873 -116 899 c 0,26,27
 5 1059 5 1059 286 1236 c 0,28,29
 536 1394 536 1394 730 1457 c 1,30,31
 716 1340 716 1340 687 1278 c 1,32,33
 219 1081 219 1081 -22 837 c 0,34,35
 -45 815 -45 815 -41 799 c 0,36,37
 -37 778 -37 778 66 729 c 0,38,39
 127 701 127 701 190 674 c 0,40,41
 351 599 351 599 449 540 c 0,42,43
 591 454 591 454 834 270 c 0,44,45
 977 162 977 162 1035 162 c 2,46,-1
 1081 162 l 1,47,-1
 1116 0 l 1,0,-1
EndSplineSet
EndChar

StartChar: afii57509
Encoding: 1711 1711 223
Width: 2008
GlyphClass: 2
Flags: W
AnchorPoint: "Anchor-3" 735 -510 basechar 0
AnchorPoint: "Anchor-2" 540 1020 basechar 0
LayerCount: 2
Fore
SplineSet
1785 1577 m 1,0,1
 1783 1524 1783 1524 1736 1442 c 1,2,3
 1550 1388 1550 1388 1338 1298 c 0,4,5
 1035 1170 1035 1170 906 1056 c 1,6,-1
 894 1094 l 1,7,8
 888 1138 888 1138 891 1142 c 0,9,10
 979 1267 979 1267 1273 1398 c 0,11,12
 1507 1502 1507 1502 1785 1577 c 1,0,1
1803 1301 m 1,13,14
 1775 1134 1775 1134 1749 1106 c 1,15,16
 1150 898 1150 898 1029 803 c 0,17,18
 1013 790 1013 790 1014 783 c 0,19,20
 1016 775 1016 775 1040 762 c 0,21,22
 1261 642 1261 642 1323 595 c 0,23,24
 1487 471 1487 471 1519 321 c 0,25,26
 1545 198 1545 198 1504 135 c 0,27,28
 1467 79 1467 79 1220 21 c 0,29,30
 952 -42 952 -42 686 -42 c 0,31,32
 199 -42 199 -42 136 256 c 0,33,34
 108 388 108 388 179 511 c 0,35,36
 187 525 187 525 196 527 c 0,37,38
 207 529 207 529 209 519 c 0,39,40
 211 512 211 512 206 500 c 0,41,42
 174 410 174 410 192 327 c 0,43,44
 235 123 235 123 723 123 c 0,45,46
 1113 123 1113 123 1352 216 c 0,47,48
 1470 262 1470 262 1457 320 c 0,49,50
 1446 376 1446 376 1250 489 c 0,51,52
 1114 567 1114 567 997 619 c 1,53,54
 968 644 968 644 942 765 c 0,55,56
 920 866 920 866 935 891 c 1,57,58
 1065 1032 1065 1032 1803 1301 c 1,13,14
EndSplineSet
Substitution2: "'fina' Terminal Forms in Arabic lookup 3 subtable" afii62967
Substitution2: "'medi' Medial Forms in Arabic lookup 2 subtable" afii62966
Substitution2: "'init' Initial Forms in Arabic lookup 0 subtable" afii62965
EndChar

StartChar: afii62967
Encoding: 64403 64403 224
Width: 2116
GlyphClass: 2
Flags: W
AnchorPoint: "Anchor-3" 735 -555 basechar 0
AnchorPoint: "Anchor-2" 480 1050 basechar 0
LayerCount: 2
Fore
SplineSet
1751 1593 m 1,0,1
 1748 1540 1748 1540 1702 1458 c 1,2,3
 1516 1404 1516 1404 1303 1314 c 0,4,5
 1000 1186 1000 1186 872 1072 c 1,6,-1
 860 1110 l 1,7,8
 853 1154 853 1154 856 1158 c 0,9,10
 945 1283 945 1283 1239 1414 c 0,11,12
 1473 1518 1473 1518 1751 1593 c 1,0,1
2146 0 m 1,13,-1
 2076 0 l 2,14,15
 1995 1 1995 1 1814 142 c 0,16,17
 1530 364 1530 364 1493 387 c 1,18,19
 1518 344 1518 344 1528 300 c 0,20,21
 1557 162 1557 162 1437 86 c 0,22,23
 1364 40 1364 40 1195 5 c 0,24,25
 967 -42 967 -42 686 -42 c 0,26,27
 199 -42 199 -42 136 256 c 0,28,29
 108 390 108 390 179 511 c 0,30,31
 186 524 186 524 197 526 c 0,32,33
 206 528 206 528 208 518 c 0,34,35
 210 510 210 510 205 497 c 0,36,37
 173 416 173 416 192 327 c 0,38,39
 235 123 235 123 723 123 c 0,40,41
 983 123 983 123 1176 159 c 0,42,43
 1463 213 1463 213 1439 327 c 0,44,45
 1425 392 1425 392 1253 487 c 0,46,47
 1024 613 1024 613 994 638 c 0,48,49
 937 685 937 685 911 808 c 0,50,51
 897 873 897 873 918 900 c 0,52,53
 986 987 986 987 1291 1119 c 0,54,55
 1512 1215 1512 1215 1759 1295 c 1,56,57
 1745 1178 1745 1178 1716 1116 c 1,58,59
 1175 924 1175 924 1010 831 c 0,60,61
 979 814 979 814 982 800 c 0,62,63
 986 781 986 781 1035 759 c 2,64,-1
 1220 674 l 2,65,66
 1381 599 1381 599 1479 540 c 0,67,68
 1627 450 1627 450 1864 270 c 0,69,70
 2007 162 2007 162 2065 162 c 2,71,-1
 2111 162 l 1,72,-1
 2146 0 l 1,13,-1
EndSplineSet
EndChar

StartChar: afii62965
Encoding: 64404 64404 225
Width: 982
GlyphClass: 2
Flags: W
AnchorPoint: "Anchor-3" 300 -480 basechar 0
AnchorPoint: "Anchor-2" 30 1470 basechar 0
LayerCount: 2
Fore
SplineSet
730 1548 m 1,0,1
 728 1495 728 1495 681 1413 c 1,2,3
 496 1359 496 1359 283 1269 c 0,4,5
 -19 1141 -19 1141 -148 1027 c 1,6,-1
 -160 1065 l 1,7,8
 -166 1109 -166 1109 -163 1113 c 0,9,10
 -75 1238 -75 1238 219 1369 c 0,11,12
 452 1473 452 1473 730 1548 c 1,0,1
749 1266 m 1,13,14
 746 1237 746 1237 726 1165 c 0,15,16
 704 1084 704 1084 695 1076 c 1,17,18
 437 984 437 984 321 938 c 0,19,20
 51 832 51 832 -25 773 c 0,21,22
 -42 760 -42 760 -41 753 c 0,23,24
 -39 745 -39 745 -14 732 c 0,25,26
 203 616 203 616 269 565 c 0,27,28
 433 441 433 441 465 291 c 0,29,30
 490 174 490 174 444 111 c 0,31,32
 402 54 402 54 290 25 c 0,33,34
 198 0 198 0 96 0 c 2,35,-1
 -29 0 l 1,36,-1
 -63 162 l 1,37,-1
 5 162 l 2,38,39
 430 162 430 162 403 290 c 0,40,41
 391 345 391 345 195 458 c 0,42,43
 62 536 62 536 -57 589 c 1,44,45
 -86 614 -86 614 -111 732 c 0,46,47
 -132 831 -132 831 -117 856 c 1,48,49
 12 997 12 997 749 1266 c 1,13,14
EndSplineSet
EndChar

StartChar: afii62966
Encoding: 64405 64405 226
Width: 1086
GlyphClass: 2
Flags: W
AnchorPoint: "Anchor-3" 390 -480 basechar 0
AnchorPoint: "Anchor-2" 15 1470 basechar 0
LayerCount: 2
Fore
SplineSet
721 1593 m 1,0,1
 718 1540 718 1540 672 1458 c 1,2,3
 486 1404 486 1404 273 1314 c 0,4,5
 -29 1186 -29 1186 -157 1072 c 1,6,-1
 -169 1110 l 1,7,8
 -176 1154 -176 1154 -173 1158 c 0,9,10
 -84 1283 -84 1283 209 1414 c 0,11,12
 443 1518 443 1518 721 1593 c 1,0,1
1116 0 m 1,13,-1
 1046 0 l 2,14,15
 966 0 966 0 784 142 c 0,16,17
 500 364 500 364 463 387 c 1,18,19
 485 351 485 351 494 308 c 0,20,21
 518 193 518 193 472 120 c 0,22,23
 396 0 396 0 21 0 c 2,24,-1
 -30 0 l 1,25,-1
 -64 162 l 1,26,-1
 -16 162 l 2,27,28
 191 162 191 162 271 179 c 0,29,30
 433 213 433 213 409 327 c 0,31,32
 395 392 395 392 223 487 c 0,33,34
 -5 613 -5 613 -35 638 c 0,35,36
 -92 685 -92 685 -118 808 c 0,37,38
 -132 873 -132 873 -111 900 c 0,39,40
 -43 987 -43 987 261 1119 c 0,41,42
 482 1215 482 1215 729 1295 c 1,43,44
 715 1178 715 1178 686 1116 c 1,45,46
 177 935 177 935 -9 831 c 0,47,48
 -39 815 -39 815 -36 800 c 0,49,50
 -32 781 -32 781 15 759 c 0,51,52
 177 684 177 684 449 540 c 0,53,54
 545 489 545 489 834 270 c 0,55,56
 977 162 977 162 1035 162 c 2,57,-1
 1081 162 l 1,58,-1
 1116 0 l 1,13,-1
EndSplineSet
EndChar

StartChar: afii57555
Encoding: 1740 1740 227
Width: 1286
GlyphClass: 2
Flags: W
AnchorPoint: "Anchor-3" 480 -870 basechar 0
AnchorPoint: "Anchor-2" 495 825 basechar 0
LayerCount: 2
Fore
SplineSet
1105 615 m 0,0,1
 1110 592 1110 592 1107 539 c 128,-1,2
 1104 486 1104 486 1099 486 c 0,3,4
 1096 486 1096 486 1047.5 503 c 128,-1,5
 999 520 999 520 974 520 c 0,6,7
 872 520 872 520 779 434 c 0,8,9
 692 352 692 352 705 290 c 0,10,11
 721 216 721 216 835 195 c 0,12,13
 894 186 894 186 1048 162 c 0,14,15
 1162 144 1162 144 1174 89 c 0,16,17
 1205 -61 1205 -61 1141 -144 c 0,18,19
 1095 -202 1095 -202 945 -272 c 0,20,21
 747 -364 747 -364 558 -364 c 0,22,23
 403 -364 403 -364 292 -296 c 0,24,25
 168 -218 168 -218 136 -68 c 0,26,27
 88 159 88 159 189 363 c 0,28,29
 199 383 199 383 209 383 c 0,30,31
 216 383 216 383 218 373 c 0,32,33
 220 365 220 365 218 357 c 0,34,35
 163 160 163 160 186 54 c 0,36,37
 212 -67 212 -67 330 -137 c 0,38,39
 430 -197 430 -197 549 -197 c 0,40,41
 787 -197 787 -197 976 -105 c 0,42,43
 1114 -37 1114 -37 1108 -8 c 0,44,45
 1106 4 1106 4 881 32 c 0,46,47
 771 46 771 46 720 81 c 0,48,49
 660 123 660 123 639 225 c 0,50,51
 612 351 612 351 730 519 c 128,-1,52
 848 687 848 687 972 687 c 0,53,54
 1003 687 1003 687 1044 671 c 0,55,56
 1097 650 1097 650 1105 615 c 0,0,1
EndSplineSet
Substitution2: "'fina' Terminal Forms in Arabic lookup 3 subtable" afii52364
Substitution2: "'medi' Medial Forms in Arabic lookup 2 subtable" afii62832
Substitution2: "'init' Initial Forms in Arabic lookup 0 subtable" uniFBFE
EndChar

StartChar: afii52364
Encoding: 64509 64509 228
Width: 1191
GlyphClass: 2
Flags: W
AnchorPoint: "Anchor-3" 660 -1125 basechar 0
AnchorPoint: "Anchor-2" 570 555 basechar 0
LayerCount: 2
Fore
SplineSet
1222 0 m 1,0,-1
 1040 0 l 2,1,2
 972 1 972 1 913 -28 c 0,3,4
 861 -54 861 -54 865 -71 c 0,5,6
 868 -86 868 -86 945 -100 c 0,7,8
 1109 -129 1109 -129 1126 -135 c 0,9,10
 1207 -161 1207 -161 1220 -225 c 0,11,12
 1238 -310 1238 -310 1213 -359 c 0,13,14
 1151 -475 1151 -475 969 -537 c 0,15,16
 816 -588 816 -588 642 -588 c 0,17,18
 475 -588 475 -588 355 -515 c 0,19,20
 216 -431 216 -431 182 -271 c 0,21,22
 137 -61 137 -61 218 90 c 0,23,24
 230 113 230 113 239 113 c 0,25,26
 245 113 245 113 248 103 c 0,27,28
 251 89 251 89 244 67 c 0,29,30
 211 -51 211 -51 233 -154 c 0,31,32
 264 -297 264 -297 406 -367 c 0,33,34
 521 -424 521 -424 675 -424 c 0,35,36
 856 -424 856 -424 1015 -371 c 0,37,38
 1159 -323 1159 -323 1151 -286 c 0,39,40
 1147 -268 1147 -268 1083 -257 c 0,41,42
 1045 -251 1045 -251 948 -236 c 0,43,44
 783 -210 783 -210 765 -127 c 0,45,46
 746 -36 746 -36 833 59 c 0,47,48
 928 162 928 162 1073 162 c 2,49,-1
 1187 162 l 1,50,-1
 1222 0 l 1,0,-1
EndSplineSet
EndChar

StartChar: afii62882
Encoding: 64606 64606 229
Width: 0
GlyphClass: 4
Flags: W
AnchorPoint: "Anchor-2" 0 0 mark 0
AnchorPoint: "Anchor-0" 0 0 mark 0
LayerCount: 2
Fore
SplineSet
119 240 m 0,0,1
 128 198 128 198 111 154 c 0,2,3
 88 100 88 100 39 100 c 0,4,5
 19 100 19 100 -4 109 c 1,6,7
 -38 10 -38 10 -115 10 c 0,8,9
 -180 10 -180 10 -199 102 c 0,10,11
 -210 155 -210 155 -188 223 c 0,12,13
 -184 234 -184 234 -176 236 c 1,14,15
 -170 230 -170 230 -165 225 c 1,16,17
 -162 197 -162 197 -158 175 c 0,18,19
 -143 107 -143 107 -111 107 c 0,20,21
 -67 107 -67 107 -56.5 205 c 128,-1,22
 -46 303 -46 303 -43 303 c 0,23,24
 -34 303 -34 303 -16 251 c 128,-1,25
 2 199 2 199 30 199 c 0,26,27
 63 199 63 199 61.5 280 c 128,-1,28
 60 361 60 361 66 361 c 0,29,30
 94 361 94 361 119 240 c 0,0,1
62 691 m 0,31,32
 82 596 82 596 31 533 c 1,33,-1
 88 510 l 1,34,-1
 98 423 l 1,35,36
 41 432 41 432 -17 478 c 1,37,38
 -128 376 -128 376 -241 358 c 1,39,-1
 -300 393 l 1,40,41
 -237 434 -237 434 -247 498 c 0,42,43
 -253 533 -253 533 -263 540 c 0,44,45
 -289 556 -289 556 -340 525 c 1,46,-1
 -347 555 l 1,47,48
 -305 613 -305 613 -265 613 c 0,49,50
 -206 613 -206 613 -193 552 c 0,51,52
 -182 499 -182 499 -205 436 c 1,53,54
 -99 484 -99 484 -85 519 c 1,55,56
 -135 560 -135 560 -146 616 c 0,57,58
 -156 660 -156 660 -112 718.5 c 128,-1,59
 -68 777 -68 777 -23 777 c 0,60,61
 43 777 43 777 62 691 c 0,31,32
-24 697 m 0,62,63
 -43 697 -43 697 -65 678 c 0,64,65
 -89 658 -89 658 -86 640 c 0,66,67
 -82 623 -82 623 -60 597.5 c 128,-1,68
 -38 572 -38 572 -22 572 c 0,69,70
 -2 572 -2 572 3 611 c 0,71,72
 7 641 7 641 2 667 c 0,73,74
 -4 697 -4 697 -24 697 c 0,62,63
EndSplineSet
Ligature2: "'ccmp' Glyph Composition/Decomposition in Arabic lookup 4 subtable" afii57457 afii57452
EndChar

StartChar: afii62883
Encoding: 64607 64607 230
Width: 0
GlyphClass: 4
Flags: W
AnchorPoint: "Anchor-2" 0 0 mark 0
AnchorPoint: "Anchor-0" 0 0 mark 0
LayerCount: 2
Fore
SplineSet
59 625 m 0,0,1
 68 582 68 582 49 537 c 0,2,3
 27 482 27 482 -22 482 c 0,4,5
 -43 482 -43 482 -67 492 c 1,6,7
 -102 391 -102 391 -181 391 c 0,8,9
 -213 391 -213 391 -237 423 c 0,10,11
 -259 450 -259 450 -266 484 c 0,12,13
 -278 539 -278 539 -255 608 c 0,14,15
 -251 619 -251 619 -242 621 c 1,16,17
 -237 615 -237 615 -232 610 c 1,18,19
 -229 581 -229 581 -224 559 c 0,20,21
 -209 489 -209 489 -176 489 c 0,22,23
 -131 489 -131 489 -120.5 589 c 128,-1,24
 -110 689 -110 689 -107 689 c 0,25,26
 -98 689 -98 689 -79 636 c 128,-1,27
 -60 583 -60 583 -31 583 c 0,28,29
 1 583 1 583 -0.5 666 c 128,-1,30
 -2 749 -2 749 3 749 c 0,31,32
 32 749 32 749 59 625 c 0,0,1
119 433 m 1,33,-1
 102 336 l 1,34,-1
 -229 155 l 1,35,-1
 -211 244 l 1,36,-1
 119 433 l 1,33,-1
153 273 m 1,37,-1
 136 176 l 1,38,-1
 -195 -5 l 1,39,-1
 -177 84 l 1,40,-1
 153 273 l 1,37,-1
EndSplineSet
Ligature2: "'ccmp' Glyph Composition/Decomposition in Arabic lookup 4 subtable" afii57457 afii57453
EndChar

StartChar: afii62884
Encoding: 64608 64608 231
Width: 0
GlyphClass: 4
Flags: W
AnchorPoint: "Anchor-2" 0 0 mark 0
AnchorPoint: "Anchor-0" 0 0 mark 0
LayerCount: 2
Fore
SplineSet
111 242 m 0,0,1
 120 200 120 200 102 156 c 0,2,3
 80 102 80 102 31 102 c 0,4,5
 11 102 11 102 -12 111 c 1,6,7
 -46 12 -46 12 -123 12 c 0,8,9
 -188 12 -188 12 -208 104 c 0,10,11
 -219 157 -219 157 -196 225 c 0,12,13
 -193 236 -193 236 -184 238 c 1,14,15
 -179 232 -179 232 -174 227 c 1,16,17
 -171 199 -171 199 -166 177 c 0,18,19
 -152 109 -152 109 -120 109 c 0,20,21
 -76 109 -76 109 -65 207 c 128,-1,22
 -54 305 -54 305 -51 305 c 0,23,24
 -42 305 -42 305 -23.5 253 c 128,-1,25
 -5 201 -5 201 22 201 c 0,26,27
 55 201 55 201 53 282 c 128,-1,28
 51 363 51 363 57 363 c 0,29,30
 85 363 85 363 111 242 c 0,0,1
85 583 m 1,31,-1
 67 486 l 1,32,-1
 -264 305 l 1,33,-1
 -246 394 l 1,34,-1
 85 583 l 1,31,-1
EndSplineSet
Ligature2: "'ccmp' Glyph Composition/Decomposition in Arabic lookup 4 subtable" afii57457 afii57454
EndChar

StartChar: afii62885
Encoding: 64609 64609 232
Width: 0
GlyphClass: 4
Flags: W
AnchorPoint: "Anchor-2" 0 0 mark 0
AnchorPoint: "Anchor-0" 0 0 mark 0
LayerCount: 2
Fore
SplineSet
101 237 m 0,0,1
 110 194 110 194 92 149 c 0,2,3
 70 94 70 94 20 94 c 0,4,5
 0 94 0 94 -25 104 c 1,6,7
 -59 3 -59 3 -138 3 c 0,8,9
 -170 3 -170 3 -195 35 c 0,10,11
 -217 62 -217 62 -224 96 c 0,12,13
 -236 151 -236 151 -212 220 c 0,14,15
 -209 231 -209 231 -200 233 c 1,16,17
 -195 227 -195 227 -190 222 c 1,18,19
 -187 193 -187 193 -182 171 c 0,20,21
 -167 101 -167 101 -134 101 c 0,22,23
 -89 101 -89 101 -78 201 c 128,-1,24
 -67 301 -67 301 -64 301 c 0,25,26
 -55 301 -55 301 -36.5 248 c 128,-1,27
 -18 195 -18 195 10 195 c 0,28,29
 43 195 43 195 41.5 278 c 128,-1,30
 40 361 40 361 46 361 c 0,31,32
 75 361 75 361 101 237 c 0,0,1
42 682 m 0,33,34
 61 590 61 590 11 525 c 1,35,36
 31 512 31 512 68 497 c 1,37,-1
 79 412 l 1,38,39
 3 434 3 434 -47 473 c 1,40,41
 -155 363 -155 363 -282 344 c 1,42,43
 -328 350 -328 350 -337 383 c 1,44,45
 -168 443 -168 443 -105 510 c 1,46,47
 -160 554 -160 554 -171 605 c 0,48,49
 -181 651 -181 651 -136 710.5 c 128,-1,50
 -91 770 -91 770 -46 770 c 0,51,52
 23 770 23 770 42 682 c 0,33,34
-49 688 m 0,53,54
 -67 688 -67 688 -90 668 c 128,-1,55
 -113 648 -113 648 -110 631 c 0,56,57
 -106 613 -106 613 -84 587 c 128,-1,58
 -62 561 -62 561 -45 561 c 0,59,60
 -26 561 -26 561 -20 601 c 0,61,62
 -16 634 -16 634 -21 657 c 0,63,64
 -28 688 -28 688 -49 688 c 0,53,54
EndSplineSet
Ligature2: "'ccmp' Glyph Composition/Decomposition in Arabic lookup 4 subtable" afii57457 afii57455
EndChar

StartChar: afii62886
Encoding: 64610 64610 233
Width: 0
GlyphClass: 4
Flags: W
AnchorPoint: "Anchor-2" 0 0 mark 0
AnchorPoint: "Anchor-0" 0 0 mark 0
LayerCount: 2
Fore
SplineSet
78 482 m 0,0,1
 87 439 87 439 69 394 c 0,2,3
 46 339 46 339 -3 339 c 0,4,5
 -24 339 -24 339 -48 349 c 1,6,7
 -82 248 -82 248 -161 248 c 0,8,9
 -193 248 -193 248 -218 280 c 0,10,11
 -240 307 -240 307 -247 341 c 0,12,13
 -259 396 -259 396 -235 465 c 0,14,15
 -232 476 -232 476 -223 478 c 1,16,17
 -218 472 -218 472 -213 467 c 1,18,19
 -210 438 -210 438 -205 416 c 0,20,21
 -190 346 -190 346 -157 346 c 0,22,23
 -112 346 -112 346 -101.5 446 c 128,-1,24
 -91 546 -91 546 -88 546 c 0,25,26
 -79 546 -79 546 -60 493 c 128,-1,27
 -41 440 -41 440 -12 440 c 0,28,29
 20 440 20 440 18.5 523 c 128,-1,30
 17 606 17 606 23 606 c 0,31,32
 52 606 52 606 78 482 c 0,0,1
139 290 m 1,33,-1
 121 193 l 1,34,-1
 -210 12 l 1,35,-1
 -192 101 l 1,36,-1
 139 290 l 1,33,-1
EndSplineSet
Ligature2: "'ccmp' Glyph Composition/Decomposition in Arabic lookup 4 subtable" afii57457 afii57456
EndChar

StartChar: afii62945
Encoding: 65554 -1 234
Width: 1222
GlyphClass: 3
Flags: W
LayerCount: 2
Fore
SplineSet
1105 262 m 0,0,1
 1125 168 1125 168 1112 94 c 0,2,3
 1094 -4 1094 -4 1017 -4 c 0,4,5
 904 -4 904 -4 802 170 c 1,6,7
 773 -8 773 -8 608 -8 c 0,8,9
 482 -8 482 -8 385 140 c 1,10,11
 349 61 349 61 309 61 c 0,12,13
 233 61 233 61 160 77 c 0,14,15
 73 96 73 96 67 126 c 0,16,17
 62 147 62 147 71.5 210.5 c 128,-1,18
 81 274 81 274 91 288 c 0,19,20
 162 384 162 384 298 426 c 1,21,22
 286 477 286 477 279 512 c 0,23,24
 271 548 271 548 267 570 c 1,25,-1
 314 628 l 2,26,27
 330 648 330 648 337 616 c 0,28,29
 358 516 358 516 411 366 c 0,30,31
 481 166 481 166 581 166 c 0,32,33
 637 166 637 166 680 193 c 0,34,35
 733 225 733 225 722 276 c 0,36,37
 716 305 716 305 544 721 c 1,38,-1
 578 810 l 2,39,40
 587 834 587 834 593 834 c 0,41,42
 600 834 600 834 611 806 c 0,43,44
 658 686 658 686 725 524 c 0,45,46
 863 194 863 194 991 194 c 0,47,48
 1041 194 1041 194 1031 242 c 0,49,50
 1019 298 1019 298 815 720 c 1,51,-1
 835 816 l 2,52,53
 841 845 841 845 847 845 c 256,54,55
 853 845 853 845 869 814 c 0,56,57
 926 708 926 708 1001 537 c 0,58,59
 1088 339 1088 339 1105 262 c 0,0,1
350 246 m 1,60,61
 334 297 334 297 322 341 c 1,62,63
 267 341 267 341 214 295 c 0,64,65
 167 254 167 254 170 238 c 0,66,67
 173 224 173 224 238 227 c 0,68,69
 302 230 302 230 350 246 c 1,60,61
EndSplineSet
EndChar

StartChar: afii64184
Encoding: 65010 65010 235
Width: 1220
GlyphClass: 3
Flags: W
AnchorPoint: "Anchor-1" 1095 -375 baselig 0
AnchorPoint: "Anchor-0" 810 960 baselig 0
AnchorPoint: "Anchor-1" 750 -405 baselig 1
AnchorPoint: "Anchor-0" 555 870 baselig 1
AnchorPoint: "Anchor-1" 270 -465 baselig 2
AnchorPoint: "Anchor-0" 150 705 baselig 2
LayerCount: 2
Fore
SplineSet
613 1068 m 0,0,1
 650 919 650 919 566 919 c 0,2,3
 534 919 534 919 504 955 c 1,4,5
 483 877 483 877 425 877 c 0,6,7
 374 877 374 877 362 933 c 0,8,9
 358 954 358 954 366 998 c 0,10,11
 376 1047 376 1047 392 1047 c 0,12,13
 396 1045 396 1045 398 1036 c 0,14,15
 400 1029 400 1029 400.5 1015.5 c 128,-1,16
 401 1002 401 1002 402 995 c 0,17,18
 408 968 408 968 436 968 c 0,19,20
 461 968 461 968 473.5 1017 c 128,-1,21
 486 1066 486 1066 493 1066 c 0,22,23
 497 1066 497 1066 512.5 1029 c 128,-1,24
 528 992 528 992 553 992 c 0,25,26
 589 992 589 992 589 1061 c 0,27,28
 590 1082 590 1082 602 1082 c 0,29,30
 611 1082 611 1082 613 1068 c 0,0,1
1106 262 m 0,31,32
 1126 168 1126 168 1113 94 c 0,33,34
 1095 -4 1095 -4 1018 -4 c 0,35,36
 905 -4 905 -4 803 170 c 1,37,38
 774 -8 774 -8 609 -8 c 0,39,40
 483 -8 483 -8 386 140 c 1,41,42
 350 61 350 61 310 61 c 0,43,44
 234 61 234 61 161 77 c 0,45,46
 74 96 74 96 68 126 c 0,47,48
 63 147 63 147 72.5 210.5 c 128,-1,49
 82 274 82 274 92 288 c 0,50,51
 163 384 163 384 299 426 c 1,52,53
 287 477 287 477 280 512 c 0,54,55
 272 548 272 548 268 570 c 1,56,-1
 315 628 l 2,57,58
 331 648 331 648 338 616 c 0,59,60
 359 516 359 516 412 366 c 0,61,62
 482 166 482 166 582 166 c 0,63,64
 638 166 638 166 681 193 c 0,65,66
 734 225 734 225 723 276 c 0,67,68
 717 305 717 305 545 721 c 1,69,-1
 579 810 l 2,70,71
 588 834 588 834 594 834 c 0,72,73
 601 834 601 834 612 806 c 0,74,75
 659 686 659 686 726 524 c 0,76,77
 864 194 864 194 992 194 c 0,78,79
 1042 194 1042 194 1032 242 c 0,80,81
 1020 298 1020 298 816 720 c 1,82,-1
 836 816 l 2,83,84
 842 845 842 845 848 845 c 256,85,86
 854 845 854 845 870 814 c 0,87,88
 927 708 927 708 1002 537 c 0,89,90
 1089 339 1089 339 1106 262 c 0,31,32
351 246 m 1,91,92
 335 297 335 297 323 341 c 1,93,94
 268 341 268 341 215 295 c 0,95,96
 168 254 168 254 171 238 c 0,97,98
 174 224 174 224 239 227 c 0,99,100
 303 230 303 230 351 246 c 1,91,92
361 1348 m 1,101,-1
 382 1408 l 1,102,103
 412 1372 412 1372 436.5 1324.5 c 128,-1,104
 461 1277 461 1277 469 1241 c 0,105,106
 476 1209 476 1209 452 1143 c 1,107,108
 451 1155 451 1155 443 1194 c 0,109,110
 436 1224 436 1224 413 1268 c 128,-1,111
 390 1312 390 1312 361 1348 c 1,101,-1
EndSplineSet
Ligature2: "'rlig' Required Ligatures in Arabic lookup 6 subtable" afii62817 afii62818 uni06C1
Ligature2: "'rlig' Required Ligatures in Arabic lookup 5 subtable" afii62817 afii62818 uniFC63 afii62828
Ligature2: "'rlig' Required Ligatures in Arabic lookup 5 subtable" afii62817 afii62818 afii57457 uni0670 afii62828
EndChar

StartChar: afii57415.001
Encoding: 1575 1575 249
Width: 335
GlyphClass: 2
Flags: W
AnchorPoint: "Anchor-3" 240 -405 basechar 0
AnchorPoint: "Anchor-2" -75 1215 basechar 0
LayerCount: 2
Fore
SplineSet
226 298 m 0,0,1
 230 285 230 285 234 268 c 0,2,3
 266 115 266 115 232 4 c 0,4,5
 228 -7 228 -7 216 -6 c 256,6,7
 204 -5 204 -5 201 11 c 0,8,9
 185 137 185 137 97 415 c 0,10,11
 71 495 71 495 4 703 c 0,12,13
 -37 834 -37 834 -63 953 c 0,14,15
 -67 972 -67 972 -46 1033 c 0,16,17
 -13 1127 -13 1127 4 1127 c 0,18,19
 17 1127 17 1127 23 1082 c 0,20,21
 28 1037 28 1037 42 973 c 0,22,23
 76 811 76 811 226 298 c 0,0,1
EndSplineSet
Substitution2: "'fina' Terminal Forms in Arabic lookup 3 subtable" afii62760
EndChar

StartChar: afii62760.001
Encoding: 65555 -1 250
Width: 432
GlyphClass: 2
Flags: W
LayerCount: 2
Fore
SplineSet
462 0 m 1,0,-1
 377 0 l 2,1,2
 254 1 254 1 184 152 c 0,3,4
 166 192 166 192 79 480 c 0,5,6
 -31 854 -31 854 -81 989 c 0,7,8
 -85 1001 -85 1001 -28 1113 c 0,9,10
 -20 1128 -20 1128 -13 1128 c 0,11,12
 -5 1128 -5 1128 1 1103 c 2,13,-1
 207 370 l 2,14,15
 240 253 240 253 259 223 c 0,16,17
 299 162 299 162 385 162 c 2,18,-1
 427 162 l 1,19,-1
 462 0 l 1,0,-1
EndSplineSet
EndChar

StartChar: afii57421
Encoding: 1581 1581 269
Width: 1151
GlyphClass: 2
Flags: W
AnchorPoint: "Anchor-3" 495 -1350 basechar 0
AnchorPoint: "Anchor-2" 480 855 basechar 0
LayerCount: 2
Fore
SplineSet
1476 -714 m 0,0,1
 1345 -780 1345 -780 1173 -855 c 1,2,3
 1088 -876 1088 -876 943 -876 c 0,4,5
 661 -876 661 -876 475 -758 c 0,6,7
 261 -623 261 -623 203 -351 c 0,8,9
 152 -109 152 -109 277 78 c 0,10,11
 370 217 370 217 519 282 c 1,12,13
 361 309 361 309 287 309 c 0,14,15
 194 309 194 309 157 289 c 0,16,17
 144 282 144 282 136 287 c 0,18,19
 128 293 128 293 128 312 c 0,20,21
 126 483 126 483 309 483 c 0,22,23
 396 483 396 483 573 459 c 128,-1,24
 750 435 750 435 837 435 c 2,25,-1
 1008 435 l 2,26,27
 1022 435 1022 435 1022 427 c 2,28,-1
 1021 423 l 1,29,-1
 982 287 l 1,30,31
 866 287 866 287 746 260 c 0,32,33
 538 213 538 213 403 100 c 0,34,35
 217 -57 217 -57 265 -286 c 0,36,37
 315 -519 315 -519 583 -632 c 0,38,39
 786 -718 786 -718 1047 -718 c 0,40,41
 1281 -718 1281 -718 1464 -684 c 0,42,43
 1490 -679 1490 -679 1493 -694 c 0,44,45
 1495 -704 1495 -704 1476 -714 c 0,0,1
EndSplineSet
Substitution2: "'fina' Terminal Forms in Arabic lookup 3 subtable" afii62776
Substitution2: "'medi' Medial Forms in Arabic lookup 2 subtable" afii62775
Substitution2: "'init' Initial Forms in Arabic lookup 0 subtable" afii62774
EndChar

StartChar: afii62776
Encoding: 65186 65186 270
Width: 1215
GlyphClass: 2
Flags: W
AnchorPoint: "Anchor-3" 630 -1350 basechar 0
AnchorPoint: "Anchor-2" 480 825 basechar 0
LayerCount: 2
Fore
SplineSet
1481 -714 m 0,0,1
 1350 -780 1350 -780 1178 -855 c 1,2,3
 1093 -876 1093 -876 948 -876 c 0,4,5
 666 -876 666 -876 480 -758 c 0,6,7
 266 -623 266 -623 208 -351 c 0,8,9
 157 -109 157 -109 282 78 c 0,10,11
 375 217 375 217 524 282 c 1,12,13
 366 309 366 309 292 309 c 0,14,15
 199 309 199 309 162 289 c 0,16,17
 149 282 149 282 141 287 c 0,18,19
 133 293 133 293 133 312 c 0,20,21
 131 483 131 483 314 483 c 0,22,23
 401 483 401 483 578 459 c 128,-1,24
 755 435 755 435 842 435 c 2,25,-1
 1013 435 l 2,26,27
 1027 435 1027 435 1027 427 c 2,28,-1
 1026 423 l 1,29,-1
 987 287 l 1,30,31
 953 287 953 287 811 271 c 1,32,33
 822 221 822 221 853 199 c 0,34,35
 906 162 906 162 1040 162 c 2,36,-1
 1211 162 l 1,37,-1
 1246 0 l 1,38,-1
 986 0 l 2,39,40
 782 1 782 1 751 146 c 0,41,42
 741 194 741 194 751 261 c 1,43,44
 532 207 532 207 400 93 c 0,45,46
 222 -61 222 -61 270 -286 c 0,47,48
 320 -519 320 -519 588 -632 c 0,49,50
 791 -718 791 -718 1052 -718 c 0,51,52
 1286 -718 1286 -718 1469 -684 c 0,53,54
 1495 -679 1495 -679 1498 -694 c 0,55,56
 1500 -704 1500 -704 1481 -714 c 0,0,1
EndSplineSet
EndChar

StartChar: afii62774
Encoding: 65187 65187 271
Width: 1081
GlyphClass: 2
Flags: W
AnchorPoint: "Anchor-3" 435 -495 basechar 0
AnchorPoint: "Anchor-2" 345 945 basechar 0
LayerCount: 2
Fore
SplineSet
964 362 m 2,0,-1
 950 229 l 1,1,-1
 834 229 l 2,2,3
 609 229 609 229 495 183 c 0,4,5
 438 160 438 160 258 60 c 0,6,7
 152 0 152 0 52 0 c 2,8,-1
 -29 0 l 1,9,-1
 -63 162 l 1,10,-1
 24 162 l 2,11,12
 98 162 98 162 224 205 c 0,13,14
 394 263 394 263 422 270 c 0,15,16
 438 274 438 274 437 279 c 256,17,18
 436 284 436 284 418 290 c 0,19,20
 342 315 342 315 254 343 c 0,21,22
 172 369 172 369 121 369 c 0,23,24
 33 369 33 369 -17 346 c 0,25,26
 -34 338 -34 338 -44 345 c 0,27,28
 -53 352 -53 352 -49 376 c 0,29,30
 -24 540 -24 540 135 540 c 0,31,32
 188 540 188 540 301 497 c 0,33,34
 472 432 472 432 527 416 c 0,35,36
 677 373 677 373 825 373 c 2,37,-1
 953 373 l 2,38,39
 962 373 962 373 963 367 c 0,40,41
 964 365 964 365 964 362 c 2,0,-1
EndSplineSet
EndChar

StartChar: afii62775
Encoding: 65188 65188 272
Width: 1146
GlyphClass: 2
Flags: W
AnchorPoint: "Anchor-3" 420 -510 basechar 0
AnchorPoint: "Anchor-2" 495 1020 basechar 0
LayerCount: 2
Fore
SplineSet
1165 0 m 1,0,-1
 937 0 l 2,1,2
 737 1 737 1 711 125 c 0,3,4
 702 165 702 165 711 226 c 1,5,6
 540 207 540 207 402 148 c 0,7,8
 384 140 384 140 211 49 c 0,9,10
 121 0 121 0 52 0 c 2,11,-1
 -29 0 l 1,12,-1
 -63 162 l 1,13,-1
 24 162 l 2,14,15
 99 162 99 162 224 206 c 0,16,17
 394 266 394 266 422 272 c 0,18,19
 441 276 441 276 440 281 c 256,20,21
 439 286 439 286 417 292 c 0,22,23
 370 306 370 306 249 343 c 0,24,25
 162 369 162 369 111 369 c 0,26,27
 33 369 33 369 -17 346 c 0,28,29
 -34 338 -34 338 -44 345 c 0,30,31
 -53 352 -53 352 -49 376 c 0,32,33
 -24 540 -24 540 135 540 c 0,34,35
 188 540 188 540 301 497 c 0,36,37
 472 432 472 432 527 416 c 0,38,39
 677 373 677 373 825 373 c 2,40,-1
 953 373 l 2,41,42
 962 373 962 373 963 367 c 0,43,44
 964 365 964 365 964 362 c 2,45,-1
 950 229 l 1,46,-1
 781 229 l 1,47,48
 791 181 791 181 853 168 c 0,49,50
 881 162 881 162 967 162 c 2,51,-1
 1130 162 l 1,52,-1
 1165 0 l 1,0,-1
EndSplineSet
EndChar

StartChar: afii57423
Encoding: 1583 1583 277
Width: 726
GlyphClass: 2
Flags: W
AnchorPoint: "Anchor-3" 315 -465 basechar 0
AnchorPoint: "Anchor-2" 180 795 basechar 0
LayerCount: 2
Fore
SplineSet
630 275 m 0,0,1
 657 150 657 150 624 99 c 128,-1,2
 591 48 591 48 472 22 c 0,3,4
 376 1 376 1 278 1 c 0,5,6
 211 1 211 1 136 17 c 0,7,8
 116 21 116 21 116 40 c 2,9,-1
 117 168 l 2,10,11
 115 180 115 180 137 175 c 0,12,13
 193 162 193 162 238 162 c 0,14,15
 332 162 332 162 439 186 c 0,16,17
 574 216 574 216 563 264 c 0,18,19
 552 319 552 319 418 406 c 0,20,21
 296 485 296 485 201 516 c 0,22,23
 182 522 182 522 185 547 c 0,24,25
 207 688 207 688 222 688 c 0,26,27
 285 688 285 688 422 581 c 0,28,29
 594 446 594 446 630 275 c 0,0,1
EndSplineSet
Substitution2: "'fina' Terminal Forms in Arabic lookup 3 subtable" afii62780
PairPos2: "'kern' Horizontal Kerning in Arabic lookup 0 subtable" uni06B50627.isol dx=-50 dy=0 dh=-50 dv=0 dx=0 dy=0 dh=0 dv=0
PairPos2: "'kern' Horizontal Kerning in Arabic lookup 0 subtable" uni06CE.init dx=-100 dy=0 dh=-100 dv=0 dx=0 dy=0 dh=0 dv=0
PairPos2: "'kern' Horizontal Kerning in Arabic lookup 0 subtable" uni06BC.init dx=-100 dy=0 dh=-100 dv=0 dx=0 dy=0 dh=0 dv=0
PairPos2: "'kern' Horizontal Kerning in Arabic lookup 0 subtable" uni06B9.init dx=-100 dy=0 dh=-100 dv=0 dx=0 dy=0 dh=0 dv=0
PairPos2: "'kern' Horizontal Kerning in Arabic lookup 0 subtable" uni06B8.init dx=-50 dy=0 dh=-50 dv=0 dx=0 dy=0 dh=0 dv=0
PairPos2: "'kern' Horizontal Kerning in Arabic lookup 0 subtable" uni06B7.init dx=-50 dy=0 dh=-50 dv=0 dx=0 dy=0 dh=0 dv=0
PairPos2: "'kern' Horizontal Kerning in Arabic lookup 0 subtable" uni06B6.init dx=-50 dy=0 dh=-50 dv=0 dx=0 dy=0 dh=0 dv=0
PairPos2: "'kern' Horizontal Kerning in Arabic lookup 0 subtable" uni06B5.init dx=-50 dy=0 dh=-50 dv=0 dx=0 dy=0 dh=0 dv=0
PairPos2: "'kern' Horizontal Kerning in Arabic lookup 0 subtable" uni06B4.init dx=-180 dy=0 dh=-180 dv=0 dx=0 dy=0 dh=0 dv=0
PairPos2: "'kern' Horizontal Kerning in Arabic lookup 0 subtable" uni06B4 dx=-180 dy=0 dh=-180 dv=0 dx=0 dy=0 dh=0 dv=0
PairPos2: "'kern' Horizontal Kerning in Arabic lookup 0 subtable" uniFB98 dx=-180 dy=0 dh=-180 dv=0 dx=0 dy=0 dh=0 dv=0
PairPos2: "'kern' Horizontal Kerning in Arabic lookup 0 subtable" uni06B3 dx=-180 dy=0 dh=-180 dv=0 dx=0 dy=0 dh=0 dv=0
PairPos2: "'kern' Horizontal Kerning in Arabic lookup 0 subtable" uni06B2.init dx=-180 dy=0 dh=-180 dv=0 dx=0 dy=0 dh=0 dv=0
PairPos2: "'kern' Horizontal Kerning in Arabic lookup 0 subtable" uniFB9C dx=-180 dy=0 dh=-180 dv=0 dx=0 dy=0 dh=0 dv=0
PairPos2: "'kern' Horizontal Kerning in Arabic lookup 0 subtable" uni06B1 dx=-180 dy=0 dh=-180 dv=0 dx=0 dy=0 dh=0 dv=0
PairPos2: "'kern' Horizontal Kerning in Arabic lookup 0 subtable" uni06B0.init dx=-180 dy=0 dh=-180 dv=0 dx=0 dy=0 dh=0 dv=0
PairPos2: "'kern' Horizontal Kerning in Arabic lookup 0 subtable" uni06B0 dx=-180 dy=0 dh=-180 dv=0 dx=0 dy=0 dh=0 dv=0
PairPos2: "'kern' Horizontal Kerning in Arabic lookup 0 subtable" uni06AE.init dx=-180 dy=0 dh=-180 dv=0 dx=0 dy=0 dh=0 dv=0
PairPos2: "'kern' Horizontal Kerning in Arabic lookup 0 subtable" uni06AE dx=-50 dy=0 dh=-50 dv=0 dx=0 dy=0 dh=0 dv=0
PairPos2: "'kern' Horizontal Kerning in Arabic lookup 0 subtable" uniFBD5 dx=-180 dy=0 dh=-180 dv=0 dx=0 dy=0 dh=0 dv=0
PairPos2: "'kern' Horizontal Kerning in Arabic lookup 0 subtable" uni06AD dx=-50 dy=0 dh=-50 dv=0 dx=0 dy=0 dh=0 dv=0
PairPos2: "'kern' Horizontal Kerning in Arabic lookup 0 subtable" uni06AB.init dx=-180 dy=0 dh=-180 dv=0 dx=0 dy=0 dh=0 dv=0
PairPos2: "'kern' Horizontal Kerning in Arabic lookup 0 subtable" uni06AB dx=-50 dy=0 dh=-50 dv=0 dx=0 dy=0 dh=0 dv=0
PairPos2: "'kern' Horizontal Kerning in Arabic lookup 0 subtable" uni06AB.init dx=-180 dy=0 dh=-180 dv=0 dx=0 dy=0 dh=0 dv=0
PairPos2: "'kern' Horizontal Kerning in Arabic lookup 0 subtable" uni06AB.001 dx=-180 dy=0 dh=-180 dv=0 dx=0 dy=0 dh=0 dv=0
PairPos2: "'kern' Horizontal Kerning in Arabic lookup 0 subtable" uniFB5C dx=-100 dy=0 dh=-100 dv=0 dx=0 dy=0 dh=0 dv=0
PairPos2: "'kern' Horizontal Kerning in Arabic lookup 0 subtable" uni067C.init dx=-100 dy=0 dh=-100 dv=0 dx=0 dy=0 dh=0 dv=0
PairPos2: "'kern' Horizontal Kerning in Arabic lookup 0 subtable" uniFB54 dx=-100 dy=0 dh=-100 dv=0 dx=0 dy=0 dh=0 dv=0
PairPos2: "'kern' Horizontal Kerning in Arabic lookup 0 subtable" uni0675 dx=-50 dy=0 dh=-50 dv=0 dx=0 dy=0 dh=0 dv=0
PairPos2: "'kern' Horizontal Kerning in Arabic lookup 0 subtable" uni0673 dx=-50 dy=0 dh=-50 dv=0 dx=0 dy=0 dh=0 dv=0
PairPos2: "'kern' Horizontal Kerning in Arabic lookup 0 subtable" uni0672 dx=-50 dy=0 dh=-50 dv=0 dx=0 dy=0 dh=0 dv=0
PairPos2: "'kern' Horizontal Kerning in Arabic lookup 0 subtable" uniFBA8 dx=-100 dy=0 dh=-100 dv=0 dx=0 dy=0 dh=0 dv=0
PairPos2: "'kern' Horizontal Kerning in Arabic lookup 0 subtable" uniFBFE dx=-100 dy=0 dh=-100 dv=0 dx=0 dy=0 dh=0 dv=0
PairPos2: "'kern' Horizontal Kerning in Arabic lookup 0 subtable" afii62840 dx=-50 dy=0 dh=-50 dv=0 dx=0 dy=0 dh=0 dv=0
PairPos2: "'kern' Horizontal Kerning in Arabic lookup 0 subtable" afii62838 dx=-50 dy=0 dh=-50 dv=0 dx=0 dy=0 dh=0 dv=0
PairPos2: "'kern' Horizontal Kerning in Arabic lookup 0 subtable" afii62836 dx=-50 dy=0 dh=-50 dv=0 dx=0 dy=0 dh=0 dv=0
PairPos2: "'kern' Horizontal Kerning in Arabic lookup 0 subtable" afii62834 dx=-50 dy=0 dh=-50 dv=0 dx=0 dy=0 dh=0 dv=0
PairPos2: "'kern' Horizontal Kerning in Arabic lookup 0 subtable" afii62831 dx=-100 dy=0 dh=-100 dv=0 dx=0 dy=0 dh=0 dv=0
PairPos2: "'kern' Horizontal Kerning in Arabic lookup 0 subtable" afii62817 dx=-50 dy=0 dh=-50 dv=0 dx=0 dy=0 dh=0 dv=0
PairPos2: "'kern' Horizontal Kerning in Arabic lookup 0 subtable" afii57410 dx=-180 dy=0 dh=-180 dv=0 dx=0 dy=0 dh=0 dv=0
PairPos2: "'kern' Horizontal Kerning in Arabic lookup 0 subtable" afii57443 dx=-50 dy=0 dh=-50 dv=0 dx=0 dy=0 dh=0 dv=0
PairPos2: "'kern' Horizontal Kerning in Arabic lookup 0 subtable" afii57413 dx=-50 dy=0 dh=-50 dv=0 dx=0 dy=0 dh=0 dv=0
PairPos2: "'kern' Horizontal Kerning in Arabic lookup 0 subtable" afii57411 dx=-50 dy=0 dh=-50 dv=0 dx=0 dy=0 dh=0 dv=0
PairPos2: "'kern' Horizontal Kerning in Arabic lookup 0 subtable" afii62965 dx=-180 dy=0 dh=-180 dv=0 dx=0 dy=0 dh=0 dv=0
PairPos2: "'kern' Horizontal Kerning in Arabic lookup 0 subtable" afii57509 dx=-180 dy=0 dh=-180 dv=0 dx=0 dy=0 dh=0 dv=0
PairPos2: "'kern' Horizontal Kerning in Arabic lookup 0 subtable" afii52305 dx=-180 dy=0 dh=-180 dv=0 dx=0 dy=0 dh=0 dv=0
PairPos2: "'kern' Horizontal Kerning in Arabic lookup 0 subtable" afii57567 dx=-180 dy=0 dh=-180 dv=0 dx=0 dy=0 dh=0 dv=0
PairPos2: "'kern' Horizontal Kerning in Arabic lookup 0 subtable" afii62956 dx=-100 dy=0 dh=-100 dv=0 dx=0 dy=0 dh=0 dv=0
EndChar

StartChar: afii62780
Encoding: 65194 65194 278
Width: 935
GlyphClass: 2
Flags: W
AnchorPoint: "Anchor-3" 285 -450 basechar 0
AnchorPoint: "Anchor-2" 345 1080 basechar 0
LayerCount: 2
Fore
SplineSet
965 0 m 1,0,-1
 884 0 l 2,1,2
 720 1 720 1 626 248 c 1,3,4
 588 40 588 40 342 40 c 0,5,6
 270 40 270 40 209 55 c 0,7,8
 113 79 113 79 102 130 c 0,9,10
 96 156 96 156 110 296 c 0,11,12
 111 320 111 320 124 320 c 0,13,14
 140 320 140 320 148 292 c 0,15,16
 176 198 176 198 344 198 c 0,17,18
 616 198 616 198 584 352 c 0,19,20
 569 419 569 419 514 551 c 128,-1,21
 459 683 459 683 445 750 c 0,22,23
 439 777 439 777 480 876 c 0,24,25
 488 893 488 893 494 893 c 0,26,27
 503 893 503 893 511 868 c 2,28,-1
 691 354 l 2,29,30
 759 162 759 162 865 162 c 2,31,-1
 930 162 l 1,32,-1
 965 0 l 1,0,-1
EndSplineSet
PairPos2: "'kern' Horizontal Kerning in Arabic lookup 0 subtable" uni06B50627.isol dx=-50 dy=0 dh=-50 dv=0 dx=0 dy=0 dh=0 dv=0
PairPos2: "'kern' Horizontal Kerning in Arabic lookup 0 subtable" uni06B8.init dx=-50 dy=0 dh=-50 dv=0 dx=0 dy=0 dh=0 dv=0
PairPos2: "'kern' Horizontal Kerning in Arabic lookup 0 subtable" uni06B7.init dx=-50 dy=0 dh=-50 dv=0 dx=0 dy=0 dh=0 dv=0
PairPos2: "'kern' Horizontal Kerning in Arabic lookup 0 subtable" uni06B6.init dx=-50 dy=0 dh=-50 dv=0 dx=0 dy=0 dh=0 dv=0
PairPos2: "'kern' Horizontal Kerning in Arabic lookup 0 subtable" uni06B5.init dx=-50 dy=0 dh=-50 dv=0 dx=0 dy=0 dh=0 dv=0
PairPos2: "'kern' Horizontal Kerning in Arabic lookup 0 subtable" uni06B4.init dx=-300 dy=0 dh=-300 dv=0 dx=0 dy=0 dh=0 dv=0
PairPos2: "'kern' Horizontal Kerning in Arabic lookup 0 subtable" uni06B4 dx=-300 dy=0 dh=-300 dv=0 dx=0 dy=0 dh=0 dv=0
PairPos2: "'kern' Horizontal Kerning in Arabic lookup 0 subtable" uniFB98 dx=-300 dy=0 dh=-300 dv=0 dx=0 dy=0 dh=0 dv=0
PairPos2: "'kern' Horizontal Kerning in Arabic lookup 0 subtable" uni06B3 dx=-300 dy=0 dh=-300 dv=0 dx=0 dy=0 dh=0 dv=0
PairPos2: "'kern' Horizontal Kerning in Arabic lookup 0 subtable" uni06B2.init dx=-300 dy=0 dh=-300 dv=0 dx=0 dy=0 dh=0 dv=0
PairPos2: "'kern' Horizontal Kerning in Arabic lookup 0 subtable" uniFB9C dx=-300 dy=0 dh=-300 dv=0 dx=0 dy=0 dh=0 dv=0
PairPos2: "'kern' Horizontal Kerning in Arabic lookup 0 subtable" uni06B1 dx=-300 dy=0 dh=-300 dv=0 dx=0 dy=0 dh=0 dv=0
PairPos2: "'kern' Horizontal Kerning in Arabic lookup 0 subtable" uni06B0.init dx=-300 dy=0 dh=-300 dv=0 dx=0 dy=0 dh=0 dv=0
PairPos2: "'kern' Horizontal Kerning in Arabic lookup 0 subtable" uni06B0 dx=-300 dy=0 dh=-300 dv=0 dx=0 dy=0 dh=0 dv=0
PairPos2: "'kern' Horizontal Kerning in Arabic lookup 0 subtable" uni06AE.init dx=-300 dy=0 dh=-300 dv=0 dx=0 dy=0 dh=0 dv=0
PairPos2: "'kern' Horizontal Kerning in Arabic lookup 0 subtable" uni06AE dx=-50 dy=0 dh=-50 dv=0 dx=0 dy=0 dh=0 dv=0
PairPos2: "'kern' Horizontal Kerning in Arabic lookup 0 subtable" uniFBD5 dx=-300 dy=0 dh=-300 dv=0 dx=0 dy=0 dh=0 dv=0
PairPos2: "'kern' Horizontal Kerning in Arabic lookup 0 subtable" uni06AD dx=-50 dy=0 dh=-50 dv=0 dx=0 dy=0 dh=0 dv=0
PairPos2: "'kern' Horizontal Kerning in Arabic lookup 0 subtable" uni06AB.init dx=-300 dy=0 dh=-300 dv=0 dx=0 dy=0 dh=0 dv=0
PairPos2: "'kern' Horizontal Kerning in Arabic lookup 0 subtable" uni06AB dx=-50 dy=0 dh=-50 dv=0 dx=0 dy=0 dh=0 dv=0
PairPos2: "'kern' Horizontal Kerning in Arabic lookup 0 subtable" uni06AB.init dx=-300 dy=0 dh=-300 dv=0 dx=0 dy=0 dh=0 dv=0
PairPos2: "'kern' Horizontal Kerning in Arabic lookup 0 subtable" uni06AB.001 dx=-300 dy=0 dh=-300 dv=0 dx=0 dy=0 dh=0 dv=0
PairPos2: "'kern' Horizontal Kerning in Arabic lookup 0 subtable" uni0675 dx=-50 dy=0 dh=-50 dv=0 dx=0 dy=0 dh=0 dv=0
PairPos2: "'kern' Horizontal Kerning in Arabic lookup 0 subtable" uni0673 dx=-50 dy=0 dh=-50 dv=0 dx=0 dy=0 dh=0 dv=0
PairPos2: "'kern' Horizontal Kerning in Arabic lookup 0 subtable" uni0672 dx=-50 dy=0 dh=-50 dv=0 dx=0 dy=0 dh=0 dv=0
PairPos2: "'kern' Horizontal Kerning in Arabic lookup 0 subtable" afii62840 dx=-50 dy=0 dh=-50 dv=0 dx=0 dy=0 dh=0 dv=0
PairPos2: "'kern' Horizontal Kerning in Arabic lookup 0 subtable" afii62838 dx=-50 dy=0 dh=-50 dv=0 dx=0 dy=0 dh=0 dv=0
PairPos2: "'kern' Horizontal Kerning in Arabic lookup 0 subtable" afii62836 dx=-50 dy=0 dh=-50 dv=0 dx=0 dy=0 dh=0 dv=0
PairPos2: "'kern' Horizontal Kerning in Arabic lookup 0 subtable" afii62834 dx=-50 dy=0 dh=-50 dv=0 dx=0 dy=0 dh=0 dv=0
PairPos2: "'kern' Horizontal Kerning in Arabic lookup 0 subtable" afii62817 dx=-50 dy=0 dh=-50 dv=0 dx=0 dy=0 dh=0 dv=0
PairPos2: "'kern' Horizontal Kerning in Arabic lookup 0 subtable" afii57410 dx=-300 dy=0 dh=-300 dv=0 dx=0 dy=0 dh=0 dv=0
PairPos2: "'kern' Horizontal Kerning in Arabic lookup 0 subtable" afii57443 dx=-50 dy=0 dh=-50 dv=0 dx=0 dy=0 dh=0 dv=0
PairPos2: "'kern' Horizontal Kerning in Arabic lookup 0 subtable" afii57413 dx=-50 dy=0 dh=-50 dv=0 dx=0 dy=0 dh=0 dv=0
PairPos2: "'kern' Horizontal Kerning in Arabic lookup 0 subtable" afii57411 dx=-50 dy=0 dh=-50 dv=0 dx=0 dy=0 dh=0 dv=0
PairPos2: "'kern' Horizontal Kerning in Arabic lookup 0 subtable" afii62965 dx=-300 dy=0 dh=-300 dv=0 dx=0 dy=0 dh=0 dv=0
PairPos2: "'kern' Horizontal Kerning in Arabic lookup 0 subtable" afii57509 dx=-300 dy=0 dh=-300 dv=0 dx=0 dy=0 dh=0 dv=0
PairPos2: "'kern' Horizontal Kerning in Arabic lookup 0 subtable" afii52305 dx=-300 dy=0 dh=-300 dv=0 dx=0 dy=0 dh=0 dv=0
PairPos2: "'kern' Horizontal Kerning in Arabic lookup 0 subtable" afii57567 dx=-300 dy=0 dh=-300 dv=0 dx=0 dy=0 dh=0 dv=0
EndChar

